%TF.GenerationSoftware,KiCad,Pcbnew,(6.0.8)*%
%TF.CreationDate,2022-10-29T21:58:50-05:00*%
%TF.ProjectId,SE,53452e6b-6963-4616-945f-706362585858,rev?*%
%TF.SameCoordinates,Original*%
%TF.FileFunction,Legend,Bot*%
%TF.FilePolarity,Positive*%
%FSLAX46Y46*%
G04 Gerber Fmt 4.6, Leading zero omitted, Abs format (unit mm)*
G04 Created by KiCad (PCBNEW (6.0.8)) date 2022-10-29 21:58:50*
%MOMM*%
%LPD*%
G01*
G04 APERTURE LIST*
%ADD10C,0.150000*%
%ADD11C,0.120000*%
G04 APERTURE END LIST*
D10*
%TO.C,J1*%
X63072380Y-51199166D02*
X63786666Y-51199166D01*
X63929523Y-51151547D01*
X64024761Y-51056309D01*
X64072380Y-50913452D01*
X64072380Y-50818214D01*
X64072380Y-52199166D02*
X64072380Y-51627738D01*
X64072380Y-51913452D02*
X63072380Y-51913452D01*
X63215238Y-51818214D01*
X63310476Y-51722976D01*
X63358095Y-51627738D01*
%TO.C,Q4*%
X49805238Y-69877619D02*
X49900476Y-69830000D01*
X49995714Y-69734761D01*
X50138571Y-69591904D01*
X50233809Y-69544285D01*
X50329047Y-69544285D01*
X50281428Y-69782380D02*
X50376666Y-69734761D01*
X50471904Y-69639523D01*
X50519523Y-69449047D01*
X50519523Y-69115714D01*
X50471904Y-68925238D01*
X50376666Y-68830000D01*
X50281428Y-68782380D01*
X50090952Y-68782380D01*
X49995714Y-68830000D01*
X49900476Y-68925238D01*
X49852857Y-69115714D01*
X49852857Y-69449047D01*
X49900476Y-69639523D01*
X49995714Y-69734761D01*
X50090952Y-69782380D01*
X50281428Y-69782380D01*
X48995714Y-69115714D02*
X48995714Y-69782380D01*
X49233809Y-68734761D02*
X49471904Y-69449047D01*
X48852857Y-69449047D01*
%TO.C,J2*%
X69462380Y-38476666D02*
X70176666Y-38476666D01*
X70319523Y-38429047D01*
X70414761Y-38333809D01*
X70462380Y-38190952D01*
X70462380Y-38095714D01*
X69557619Y-38905238D02*
X69510000Y-38952857D01*
X69462380Y-39048095D01*
X69462380Y-39286190D01*
X69510000Y-39381428D01*
X69557619Y-39429047D01*
X69652857Y-39476666D01*
X69748095Y-39476666D01*
X69890952Y-39429047D01*
X70462380Y-38857619D01*
X70462380Y-39476666D01*
D11*
%TO.C,J1*%
X64740000Y-43772500D02*
X82700000Y-43772500D01*
X64740000Y-59292500D02*
X64740000Y-43772500D01*
X82700000Y-43772500D02*
X82700000Y-59292500D01*
X69120000Y-43087500D02*
X68620000Y-43587500D01*
X68120000Y-43087500D02*
X69120000Y-43087500D01*
X64740000Y-59292500D02*
X82700000Y-59292500D01*
X68620000Y-43587500D02*
X68120000Y-43087500D01*
%TO.C,Q4*%
X47910000Y-63920000D02*
X51510000Y-63920000D01*
X49710000Y-68370001D02*
G75*
G03*
X51548478Y-63931522I0J2600001D01*
G01*
X47871522Y-63931522D02*
G75*
G03*
X49710000Y-68370000I1838478J-1838478D01*
G01*
%TO.C,J2*%
X65970000Y-40140000D02*
X65970000Y-37480000D01*
X68570000Y-37480000D02*
X67240000Y-37480000D01*
X65970000Y-37480000D02*
X58290000Y-37480000D01*
X65970000Y-40140000D02*
X58290000Y-40140000D01*
X58290000Y-40140000D02*
X58290000Y-37480000D01*
X68570000Y-38810000D02*
X68570000Y-37480000D01*
%TD*%
M02*
