%TF.GenerationSoftware,KiCad,Pcbnew,(6.0.8)*%
%TF.CreationDate,2022-11-06T10:20:19-05:00*%
%TF.ProjectId,SE,53452e6b-6963-4616-945f-706362585858,rev?*%
%TF.SameCoordinates,Original*%
%TF.FileFunction,Copper,L2,Bot*%
%TF.FilePolarity,Positive*%
%FSLAX46Y46*%
G04 Gerber Fmt 4.6, Leading zero omitted, Abs format (unit mm)*
G04 Created by KiCad (PCBNEW (6.0.8)) date 2022-11-06 10:20:19*
%MOMM*%
%LPD*%
G01*
G04 APERTURE LIST*
%TA.AperFunction,ComponentPad*%
%ADD10R,2.000000X2.000000*%
%TD*%
%TA.AperFunction,ComponentPad*%
%ADD11C,2.000000*%
%TD*%
%TA.AperFunction,ComponentPad*%
%ADD12R,1.700000X1.700000*%
%TD*%
%TA.AperFunction,ComponentPad*%
%ADD13O,1.700000X1.700000*%
%TD*%
%TA.AperFunction,ComponentPad*%
%ADD14C,3.800000*%
%TD*%
%TA.AperFunction,ComponentPad*%
%ADD15R,1.800000X1.800000*%
%TD*%
%TA.AperFunction,ComponentPad*%
%ADD16C,1.800000*%
%TD*%
%TA.AperFunction,ComponentPad*%
%ADD17R,1.500000X1.500000*%
%TD*%
%TA.AperFunction,ComponentPad*%
%ADD18C,1.500000*%
%TD*%
%TA.AperFunction,ComponentPad*%
%ADD19R,1.500000X1.050000*%
%TD*%
%TA.AperFunction,ComponentPad*%
%ADD20O,1.500000X1.050000*%
%TD*%
G04 APERTURE END LIST*
D10*
%TO.P,BZ1,1,-*%
%TO.N,+3.3V*%
X39126000Y-47244000D03*
D11*
%TO.P,BZ1,2,+*%
%TO.N,Net-(BZ1-Pad2)*%
X46726000Y-47244000D03*
%TD*%
D12*
%TO.P,J3,1,Pin_1*%
%TO.N,Botones*%
X59944000Y-62980000D03*
D13*
%TO.P,J3,2,Pin_2*%
%TO.N,+3.3V*%
X62484000Y-62980000D03*
%TO.P,J3,3,Pin_3*%
%TO.N,GND*%
X65024000Y-62980000D03*
%TD*%
D14*
%TO.P,REF\u002A\u002A,1*%
%TO.N,N/C*%
X40760000Y-66210000D03*
%TD*%
D12*
%TO.P,J2,1,Pin_1*%
%TO.N,+3.3V*%
X38618000Y-37821000D03*
D13*
%TO.P,J2,2,Pin_2*%
%TO.N,GND*%
X41158000Y-37821000D03*
%TO.P,J2,3,Pin_3*%
%TO.N,SCL*%
X43698000Y-37821000D03*
%TO.P,J2,4,Pin_4*%
%TO.N,SDA*%
X46238000Y-37821000D03*
%TD*%
D15*
%TO.P,D1,1,K*%
%TO.N,GND*%
X61468000Y-44191000D03*
D16*
%TO.P,D1,2,A*%
%TO.N,Net-(D1-Pad2)*%
X61468000Y-46731000D03*
%TD*%
D14*
%TO.P,REF\u002A\u002A,1*%
%TO.N,N/C*%
X75630000Y-39070000D03*
%TD*%
D15*
%TO.P,D4,1,K*%
%TO.N,Net-(BZ1-Pad2)*%
X61468000Y-55621000D03*
D16*
%TO.P,D4,2,A*%
%TO.N,Net-(D4-Pad2)*%
X61468000Y-58161000D03*
%TD*%
D14*
%TO.P,REF\u002A\u002A,1*%
%TO.N,N/C*%
X75640000Y-66220000D03*
%TD*%
D17*
%TO.P,J1,1*%
%TO.N,+3.3V*%
X68620000Y-47087500D03*
D18*
%TO.P,J1,2*%
%TO.N,GND*%
X66080000Y-48357500D03*
%TO.P,J1,3*%
%TO.N,SDA*%
X68620000Y-49627500D03*
%TO.P,J1,4*%
%TO.N,SCL*%
X66080000Y-50897500D03*
%TO.P,J1,5*%
%TO.N,Botones*%
X68620000Y-52167500D03*
%TO.P,J1,6*%
%TO.N,Led_Verde*%
X66080000Y-53437500D03*
%TO.P,J1,7*%
%TO.N,Buzzer*%
X68620000Y-54707500D03*
%TO.P,J1,8*%
%TO.N,unconnected-(J1-Pad8)*%
X66080000Y-55977500D03*
%TD*%
D19*
%TO.P,Q4,1,C*%
%TO.N,Net-(BZ1-Pad2)*%
X46842000Y-57150000D03*
D20*
%TO.P,Q4,2,B*%
%TO.N,Net-(Q4-Pad2)*%
X46842000Y-58420000D03*
%TO.P,Q4,3,E*%
%TO.N,GND*%
X46842000Y-59690000D03*
%TD*%
%TA.AperFunction,Conductor*%
%TO.N,GND*%
G36*
X79073621Y-35608502D02*
G01*
X79120114Y-35662158D01*
X79131500Y-35714500D01*
X79131500Y-69545500D01*
X79111498Y-69613621D01*
X79057842Y-69660114D01*
X79005500Y-69671500D01*
X37394500Y-69671500D01*
X37326379Y-69651498D01*
X37279886Y-69597842D01*
X37268500Y-69545500D01*
X37268500Y-66210000D01*
X38346738Y-66210000D01*
X38365767Y-66512462D01*
X38422555Y-66810154D01*
X38516206Y-67098381D01*
X38517893Y-67101967D01*
X38517895Y-67101971D01*
X38522601Y-67111971D01*
X38645242Y-67372598D01*
X38807630Y-67628480D01*
X38810149Y-67631525D01*
X38810152Y-67631529D01*
X38818425Y-67641529D01*
X39000808Y-67861992D01*
X39221729Y-68069450D01*
X39466910Y-68247584D01*
X39470379Y-68249491D01*
X39470382Y-68249493D01*
X39488572Y-68259493D01*
X39732483Y-68393585D01*
X39736152Y-68395038D01*
X39736157Y-68395040D01*
X40010591Y-68503696D01*
X40014261Y-68505149D01*
X40307800Y-68580516D01*
X40608470Y-68618500D01*
X40911530Y-68618500D01*
X41212200Y-68580516D01*
X41505739Y-68505149D01*
X41509409Y-68503696D01*
X41783843Y-68395040D01*
X41783848Y-68395038D01*
X41787517Y-68393585D01*
X42031428Y-68259493D01*
X42049618Y-68249493D01*
X42049621Y-68249491D01*
X42053090Y-68247584D01*
X42298271Y-68069450D01*
X42519192Y-67861992D01*
X42701575Y-67641529D01*
X42709848Y-67631529D01*
X42709851Y-67631525D01*
X42712370Y-67628480D01*
X42874758Y-67372598D01*
X42997399Y-67111971D01*
X43002105Y-67101971D01*
X43002107Y-67101967D01*
X43003794Y-67098381D01*
X43097445Y-66810154D01*
X43154233Y-66512462D01*
X43172633Y-66220000D01*
X73226738Y-66220000D01*
X73245767Y-66522462D01*
X73302555Y-66820154D01*
X73396206Y-67108381D01*
X73525242Y-67382598D01*
X73687630Y-67638480D01*
X73880808Y-67871992D01*
X74101729Y-68079450D01*
X74346910Y-68257584D01*
X74612483Y-68403585D01*
X74616152Y-68405038D01*
X74616157Y-68405040D01*
X74890591Y-68513696D01*
X74894261Y-68515149D01*
X75187800Y-68590516D01*
X75488470Y-68628500D01*
X75791530Y-68628500D01*
X76092200Y-68590516D01*
X76385739Y-68515149D01*
X76389409Y-68513696D01*
X76663843Y-68405040D01*
X76663848Y-68405038D01*
X76667517Y-68403585D01*
X76933090Y-68257584D01*
X77178271Y-68079450D01*
X77399192Y-67871992D01*
X77592370Y-67638480D01*
X77754758Y-67382598D01*
X77883794Y-67108381D01*
X77977445Y-66820154D01*
X78034233Y-66522462D01*
X78053262Y-66220000D01*
X78034233Y-65917538D01*
X77977445Y-65619846D01*
X77883794Y-65331619D01*
X77879089Y-65321619D01*
X77756445Y-65060988D01*
X77754758Y-65057402D01*
X77592370Y-64801520D01*
X77584098Y-64791520D01*
X77533930Y-64730879D01*
X77399192Y-64568008D01*
X77178271Y-64360550D01*
X76933090Y-64182416D01*
X76914901Y-64172416D01*
X76670986Y-64038322D01*
X76670985Y-64038321D01*
X76667517Y-64036415D01*
X76663848Y-64034962D01*
X76663843Y-64034960D01*
X76389409Y-63926304D01*
X76389408Y-63926304D01*
X76385739Y-63924851D01*
X76092200Y-63849484D01*
X75791530Y-63811500D01*
X75488470Y-63811500D01*
X75187800Y-63849484D01*
X74894261Y-63924851D01*
X74890592Y-63926304D01*
X74890591Y-63926304D01*
X74616157Y-64034960D01*
X74616152Y-64034962D01*
X74612483Y-64036415D01*
X74609015Y-64038321D01*
X74609014Y-64038322D01*
X74365100Y-64172416D01*
X74346910Y-64182416D01*
X74101729Y-64360550D01*
X73880808Y-64568008D01*
X73746070Y-64730879D01*
X73695903Y-64791520D01*
X73687630Y-64801520D01*
X73525242Y-65057402D01*
X73523555Y-65060988D01*
X73400912Y-65321619D01*
X73396206Y-65331619D01*
X73302555Y-65619846D01*
X73245767Y-65917538D01*
X73226738Y-66220000D01*
X43172633Y-66220000D01*
X43173262Y-66210000D01*
X43154233Y-65907538D01*
X43097445Y-65609846D01*
X43003794Y-65321619D01*
X42874758Y-65047402D01*
X42712370Y-64791520D01*
X42519192Y-64558008D01*
X42298271Y-64350550D01*
X42053090Y-64172416D01*
X42018088Y-64153173D01*
X41790986Y-64028322D01*
X41790985Y-64028321D01*
X41787517Y-64026415D01*
X41783848Y-64024962D01*
X41783843Y-64024960D01*
X41509409Y-63916304D01*
X41509408Y-63916304D01*
X41505739Y-63914851D01*
X41362734Y-63878134D01*
X58585500Y-63878134D01*
X58592255Y-63940316D01*
X58643385Y-64076705D01*
X58730739Y-64193261D01*
X58847295Y-64280615D01*
X58983684Y-64331745D01*
X59045866Y-64338500D01*
X60842134Y-64338500D01*
X60904316Y-64331745D01*
X61040705Y-64280615D01*
X61157261Y-64193261D01*
X61244615Y-64076705D01*
X61263468Y-64026415D01*
X61288598Y-63959382D01*
X61331240Y-63902618D01*
X61397802Y-63877918D01*
X61467150Y-63893126D01*
X61501817Y-63921114D01*
X61530250Y-63953938D01*
X61702126Y-64096632D01*
X61895000Y-64209338D01*
X62103692Y-64289030D01*
X62108760Y-64290061D01*
X62108763Y-64290062D01*
X62203862Y-64309410D01*
X62322597Y-64333567D01*
X62327772Y-64333757D01*
X62327774Y-64333757D01*
X62540673Y-64341564D01*
X62540677Y-64341564D01*
X62545837Y-64341753D01*
X62550957Y-64341097D01*
X62550959Y-64341097D01*
X62762288Y-64314025D01*
X62762289Y-64314025D01*
X62767416Y-64313368D01*
X62772366Y-64311883D01*
X62976429Y-64250661D01*
X62976434Y-64250659D01*
X62981384Y-64249174D01*
X63181994Y-64150896D01*
X63363860Y-64021173D01*
X63522096Y-63863489D01*
X63538638Y-63840469D01*
X63652453Y-63682077D01*
X63653640Y-63682930D01*
X63700960Y-63639362D01*
X63770897Y-63627145D01*
X63836338Y-63654678D01*
X63864166Y-63686511D01*
X63921694Y-63780388D01*
X63927777Y-63788699D01*
X64067213Y-63949667D01*
X64074580Y-63956883D01*
X64238434Y-64092916D01*
X64246881Y-64098831D01*
X64430756Y-64206279D01*
X64440042Y-64210729D01*
X64639001Y-64286703D01*
X64648899Y-64289579D01*
X64752250Y-64310606D01*
X64766299Y-64309410D01*
X64770000Y-64299065D01*
X64770000Y-64298517D01*
X65278000Y-64298517D01*
X65282064Y-64312359D01*
X65295478Y-64314393D01*
X65302184Y-64313534D01*
X65312262Y-64311392D01*
X65516255Y-64250191D01*
X65525842Y-64246433D01*
X65717095Y-64152739D01*
X65725945Y-64147464D01*
X65899328Y-64023792D01*
X65907200Y-64017139D01*
X66058052Y-63866812D01*
X66064730Y-63858965D01*
X66189003Y-63686020D01*
X66194313Y-63677183D01*
X66288670Y-63486267D01*
X66292469Y-63476672D01*
X66354377Y-63272910D01*
X66356555Y-63262837D01*
X66357986Y-63251962D01*
X66355775Y-63237778D01*
X66342617Y-63234000D01*
X65296115Y-63234000D01*
X65280876Y-63238475D01*
X65279671Y-63239865D01*
X65278000Y-63247548D01*
X65278000Y-64298517D01*
X64770000Y-64298517D01*
X64770000Y-62707885D01*
X65278000Y-62707885D01*
X65282475Y-62723124D01*
X65283865Y-62724329D01*
X65291548Y-62726000D01*
X66342344Y-62726000D01*
X66355875Y-62722027D01*
X66357180Y-62712947D01*
X66315214Y-62545875D01*
X66311894Y-62536124D01*
X66226972Y-62340814D01*
X66222105Y-62331739D01*
X66106426Y-62152926D01*
X66100136Y-62144757D01*
X65956806Y-61987240D01*
X65949273Y-61980215D01*
X65782139Y-61848222D01*
X65773552Y-61842517D01*
X65587117Y-61739599D01*
X65577705Y-61735369D01*
X65376959Y-61664280D01*
X65366988Y-61661646D01*
X65295837Y-61648972D01*
X65282540Y-61650432D01*
X65278000Y-61664989D01*
X65278000Y-62707885D01*
X64770000Y-62707885D01*
X64770000Y-61663102D01*
X64766082Y-61649758D01*
X64751806Y-61647771D01*
X64713324Y-61653660D01*
X64703288Y-61656051D01*
X64500868Y-61722212D01*
X64491359Y-61726209D01*
X64302463Y-61824542D01*
X64293738Y-61830036D01*
X64123433Y-61957905D01*
X64115726Y-61964748D01*
X63968590Y-62118717D01*
X63962109Y-62126722D01*
X63857498Y-62280074D01*
X63802587Y-62325076D01*
X63732062Y-62333247D01*
X63668315Y-62301993D01*
X63647618Y-62277509D01*
X63566822Y-62152617D01*
X63566820Y-62152614D01*
X63564014Y-62148277D01*
X63413670Y-61983051D01*
X63409619Y-61979852D01*
X63409615Y-61979848D01*
X63242414Y-61847800D01*
X63242410Y-61847798D01*
X63238359Y-61844598D01*
X63202028Y-61824542D01*
X63186136Y-61815769D01*
X63042789Y-61736638D01*
X63037920Y-61734914D01*
X63037916Y-61734912D01*
X62837087Y-61663795D01*
X62837083Y-61663794D01*
X62832212Y-61662069D01*
X62827119Y-61661162D01*
X62827116Y-61661161D01*
X62617373Y-61623800D01*
X62617367Y-61623799D01*
X62612284Y-61622894D01*
X62538452Y-61621992D01*
X62394081Y-61620228D01*
X62394079Y-61620228D01*
X62388911Y-61620165D01*
X62168091Y-61653955D01*
X61955756Y-61723357D01*
X61757607Y-61826507D01*
X61753474Y-61829610D01*
X61753471Y-61829612D01*
X61583100Y-61957530D01*
X61578965Y-61960635D01*
X61522537Y-62019684D01*
X61498283Y-62045064D01*
X61436759Y-62080494D01*
X61365846Y-62077037D01*
X61308060Y-62035791D01*
X61289207Y-62002243D01*
X61247767Y-61891703D01*
X61244615Y-61883295D01*
X61157261Y-61766739D01*
X61040705Y-61679385D01*
X60904316Y-61628255D01*
X60842134Y-61621500D01*
X59045866Y-61621500D01*
X58983684Y-61628255D01*
X58847295Y-61679385D01*
X58730739Y-61766739D01*
X58643385Y-61883295D01*
X58592255Y-62019684D01*
X58585500Y-62081866D01*
X58585500Y-63878134D01*
X41362734Y-63878134D01*
X41212200Y-63839484D01*
X40911530Y-63801500D01*
X40608470Y-63801500D01*
X40307800Y-63839484D01*
X40014261Y-63914851D01*
X40010592Y-63916304D01*
X40010591Y-63916304D01*
X39736157Y-64024960D01*
X39736152Y-64024962D01*
X39732483Y-64026415D01*
X39729015Y-64028321D01*
X39729014Y-64028322D01*
X39501913Y-64153173D01*
X39466910Y-64172416D01*
X39221729Y-64350550D01*
X39000808Y-64558008D01*
X38807630Y-64791520D01*
X38645242Y-65047402D01*
X38516206Y-65321619D01*
X38422555Y-65609846D01*
X38365767Y-65907538D01*
X38346738Y-66210000D01*
X37268500Y-66210000D01*
X37268500Y-59955768D01*
X45618363Y-59955768D01*
X45652846Y-60072932D01*
X45657439Y-60084300D01*
X45745586Y-60252911D01*
X45752302Y-60263173D01*
X45871515Y-60411443D01*
X45880103Y-60420213D01*
X46025838Y-60542499D01*
X46035969Y-60549437D01*
X46202692Y-60641094D01*
X46213962Y-60645924D01*
X46395315Y-60703452D01*
X46407309Y-60706002D01*
X46555350Y-60722607D01*
X46562374Y-60723000D01*
X46569885Y-60723000D01*
X46585124Y-60718525D01*
X46586329Y-60717135D01*
X46588000Y-60709452D01*
X46588000Y-60704885D01*
X47096000Y-60704885D01*
X47100475Y-60720124D01*
X47101865Y-60721329D01*
X47109548Y-60723000D01*
X47114890Y-60723000D01*
X47121035Y-60722700D01*
X47262481Y-60708830D01*
X47274519Y-60706447D01*
X47456651Y-60651458D01*
X47467993Y-60646783D01*
X47635977Y-60557465D01*
X47646193Y-60550678D01*
X47793634Y-60430428D01*
X47802338Y-60421784D01*
X47923610Y-60275191D01*
X47930470Y-60265020D01*
X48020962Y-60097658D01*
X48025714Y-60086353D01*
X48064422Y-59961308D01*
X48064628Y-59947205D01*
X48057873Y-59944000D01*
X47114115Y-59944000D01*
X47098876Y-59948475D01*
X47097671Y-59949865D01*
X47096000Y-59957548D01*
X47096000Y-60704885D01*
X46588000Y-60704885D01*
X46588000Y-59962115D01*
X46583525Y-59946876D01*
X46582135Y-59945671D01*
X46574452Y-59944000D01*
X45633014Y-59944000D01*
X45619483Y-59947973D01*
X45618363Y-59955768D01*
X37268500Y-59955768D01*
X37268500Y-58412750D01*
X45578524Y-58412750D01*
X45596894Y-58614596D01*
X45598632Y-58620502D01*
X45598633Y-58620506D01*
X45621194Y-58697161D01*
X45654119Y-58809029D01*
X45656972Y-58814486D01*
X45656973Y-58814489D01*
X45745162Y-58983181D01*
X45745165Y-58983185D01*
X45748019Y-58988645D01*
X45748221Y-58988897D01*
X45768201Y-59054912D01*
X45753041Y-59115885D01*
X45663038Y-59282342D01*
X45658286Y-59293647D01*
X45619578Y-59418692D01*
X45619372Y-59432795D01*
X45626127Y-59436000D01*
X46395758Y-59436000D01*
X46409803Y-59436785D01*
X46558817Y-59453500D01*
X47118004Y-59453500D01*
X47268713Y-59438723D01*
X47271002Y-59438032D01*
X47291724Y-59436000D01*
X48050986Y-59436000D01*
X48064517Y-59432027D01*
X48065637Y-59424232D01*
X48031154Y-59307068D01*
X48026561Y-59295700D01*
X47938416Y-59127093D01*
X47936403Y-59124017D01*
X47935846Y-59122178D01*
X47935560Y-59121630D01*
X47935664Y-59121576D01*
X47915839Y-59056064D01*
X47930999Y-58995094D01*
X47937440Y-58983181D01*
X48024356Y-58822435D01*
X48064039Y-58694240D01*
X48082468Y-58634707D01*
X48082469Y-58634704D01*
X48084290Y-58628820D01*
X48088536Y-58588428D01*
X48104832Y-58433378D01*
X48104832Y-58433377D01*
X48105476Y-58427250D01*
X48087106Y-58225404D01*
X48082768Y-58210663D01*
X48057988Y-58126469D01*
X60055095Y-58126469D01*
X60055392Y-58131622D01*
X60055392Y-58131625D01*
X60061153Y-58231543D01*
X60068427Y-58357697D01*
X60069564Y-58362743D01*
X60069565Y-58362749D01*
X60094134Y-58471768D01*
X60119346Y-58583642D01*
X60121288Y-58588424D01*
X60121289Y-58588428D01*
X60162907Y-58690921D01*
X60206484Y-58798237D01*
X60327501Y-58995719D01*
X60479147Y-59170784D01*
X60657349Y-59318730D01*
X60857322Y-59435584D01*
X61073694Y-59518209D01*
X61078760Y-59519240D01*
X61078761Y-59519240D01*
X61131846Y-59530040D01*
X61300656Y-59564385D01*
X61431324Y-59569176D01*
X61526949Y-59572683D01*
X61526953Y-59572683D01*
X61532113Y-59572872D01*
X61537233Y-59572216D01*
X61537235Y-59572216D01*
X61610270Y-59562860D01*
X61761847Y-59543442D01*
X61766795Y-59541957D01*
X61766802Y-59541956D01*
X61978747Y-59478369D01*
X61983690Y-59476886D01*
X62031427Y-59453500D01*
X62187049Y-59377262D01*
X62187052Y-59377260D01*
X62191684Y-59374991D01*
X62380243Y-59240494D01*
X62544303Y-59077005D01*
X62560179Y-59054912D01*
X62607796Y-58988645D01*
X62679458Y-58888917D01*
X62712316Y-58822435D01*
X62779784Y-58685922D01*
X62779785Y-58685920D01*
X62782078Y-58681280D01*
X62849408Y-58459671D01*
X62879640Y-58230041D01*
X62880101Y-58211180D01*
X62881245Y-58164365D01*
X62881245Y-58164361D01*
X62881327Y-58161000D01*
X62875032Y-58084434D01*
X62862773Y-57935318D01*
X62862772Y-57935312D01*
X62862349Y-57930167D01*
X62823992Y-57777460D01*
X62807184Y-57710544D01*
X62807183Y-57710540D01*
X62805925Y-57705533D01*
X62795979Y-57682659D01*
X62715630Y-57497868D01*
X62715628Y-57497865D01*
X62713570Y-57493131D01*
X62640513Y-57380203D01*
X72860743Y-57380203D01*
X72898268Y-57665234D01*
X72899401Y-57669374D01*
X72899401Y-57669376D01*
X72910663Y-57710544D01*
X72974129Y-57942536D01*
X72975813Y-57946484D01*
X73068748Y-58164365D01*
X73086923Y-58206976D01*
X73100727Y-58230041D01*
X73215080Y-58421110D01*
X73234561Y-58453661D01*
X73414313Y-58678028D01*
X73622851Y-58875923D01*
X73856317Y-59043686D01*
X73860112Y-59045695D01*
X73860113Y-59045696D01*
X73879695Y-59056064D01*
X74110392Y-59178212D01*
X74134699Y-59187107D01*
X74280586Y-59240494D01*
X74380373Y-59277011D01*
X74661264Y-59338255D01*
X74689841Y-59340504D01*
X74884282Y-59355807D01*
X74884291Y-59355807D01*
X74886739Y-59356000D01*
X75042271Y-59356000D01*
X75044407Y-59355854D01*
X75044418Y-59355854D01*
X75252548Y-59341665D01*
X75252554Y-59341664D01*
X75256825Y-59341373D01*
X75261020Y-59340504D01*
X75261022Y-59340504D01*
X75397583Y-59312224D01*
X75538342Y-59283074D01*
X75809343Y-59187107D01*
X75936307Y-59121576D01*
X76061005Y-59057215D01*
X76061006Y-59057215D01*
X76064812Y-59055250D01*
X76068313Y-59052789D01*
X76068317Y-59052787D01*
X76295505Y-58893116D01*
X76300023Y-58889941D01*
X76510622Y-58694240D01*
X76692713Y-58471768D01*
X76842927Y-58226642D01*
X76958483Y-57963398D01*
X77037244Y-57686906D01*
X77077751Y-57402284D01*
X77077845Y-57384451D01*
X77079235Y-57119083D01*
X77079235Y-57119076D01*
X77079257Y-57114797D01*
X77072768Y-57065504D01*
X77056936Y-56945249D01*
X77041732Y-56829766D01*
X76965871Y-56552464D01*
X76902658Y-56404265D01*
X76854763Y-56291976D01*
X76854761Y-56291972D01*
X76853077Y-56288024D01*
X76705439Y-56041339D01*
X76525687Y-55816972D01*
X76376342Y-55675249D01*
X76320258Y-55622027D01*
X76320255Y-55622025D01*
X76317149Y-55619077D01*
X76083683Y-55451314D01*
X76061843Y-55439750D01*
X76038654Y-55427472D01*
X75829608Y-55316788D01*
X75559627Y-55217989D01*
X75278736Y-55156745D01*
X75247685Y-55154301D01*
X75055718Y-55139193D01*
X75055709Y-55139193D01*
X75053261Y-55139000D01*
X74897729Y-55139000D01*
X74895593Y-55139146D01*
X74895582Y-55139146D01*
X74687452Y-55153335D01*
X74687446Y-55153336D01*
X74683175Y-55153627D01*
X74678980Y-55154496D01*
X74678978Y-55154496D01*
X74542417Y-55182776D01*
X74401658Y-55211926D01*
X74130657Y-55307893D01*
X73875188Y-55439750D01*
X73871687Y-55442211D01*
X73871683Y-55442213D01*
X73861594Y-55449304D01*
X73639977Y-55605059D01*
X73624892Y-55619077D01*
X73480969Y-55752819D01*
X73429378Y-55800760D01*
X73247287Y-56023232D01*
X73097073Y-56268358D01*
X72981517Y-56531602D01*
X72980342Y-56535729D01*
X72980341Y-56535730D01*
X72955350Y-56623460D01*
X72902756Y-56808094D01*
X72879484Y-56971615D01*
X72864930Y-57073881D01*
X72862249Y-57092716D01*
X72862227Y-57097005D01*
X72862226Y-57097012D01*
X72861190Y-57294838D01*
X72860743Y-57380203D01*
X62640513Y-57380203D01*
X62587764Y-57298665D01*
X62559704Y-57267827D01*
X62497848Y-57199848D01*
X62466796Y-57136002D01*
X62475192Y-57065504D01*
X62520369Y-57010736D01*
X62546812Y-56997067D01*
X62606297Y-56974767D01*
X62614705Y-56971615D01*
X62731261Y-56884261D01*
X62818615Y-56767705D01*
X62869745Y-56631316D01*
X62876500Y-56569134D01*
X62876500Y-55977500D01*
X64816693Y-55977500D01*
X64835885Y-56196871D01*
X64892880Y-56409576D01*
X64895205Y-56414561D01*
X64983618Y-56604166D01*
X64983621Y-56604171D01*
X64985944Y-56609153D01*
X64989100Y-56613660D01*
X64989101Y-56613662D01*
X65006644Y-56638715D01*
X65112251Y-56789538D01*
X65267962Y-56945249D01*
X65448346Y-57071556D01*
X65647924Y-57164620D01*
X65860629Y-57221615D01*
X66080000Y-57240807D01*
X66299371Y-57221615D01*
X66512076Y-57164620D01*
X66711654Y-57071556D01*
X66892038Y-56945249D01*
X67047749Y-56789538D01*
X67153357Y-56638715D01*
X67170899Y-56613662D01*
X67170900Y-56613660D01*
X67174056Y-56609153D01*
X67176379Y-56604171D01*
X67176382Y-56604166D01*
X67264795Y-56414561D01*
X67267120Y-56409576D01*
X67324115Y-56196871D01*
X67343307Y-55977500D01*
X67324115Y-55758129D01*
X67267120Y-55545424D01*
X67216927Y-55437785D01*
X67176382Y-55350834D01*
X67176379Y-55350829D01*
X67174056Y-55345847D01*
X67148857Y-55309859D01*
X67050908Y-55169973D01*
X67050906Y-55169970D01*
X67047749Y-55165462D01*
X66892038Y-55009751D01*
X66711654Y-54883444D01*
X66706672Y-54881121D01*
X66706667Y-54881118D01*
X66579232Y-54821695D01*
X66525947Y-54774778D01*
X66506486Y-54706501D01*
X66527028Y-54638541D01*
X66579232Y-54593305D01*
X66706667Y-54533882D01*
X66706672Y-54533879D01*
X66711654Y-54531556D01*
X66892038Y-54405249D01*
X67047749Y-54249538D01*
X67068954Y-54219255D01*
X67170899Y-54073662D01*
X67170900Y-54073660D01*
X67174056Y-54069153D01*
X67176379Y-54064171D01*
X67176382Y-54064166D01*
X67223585Y-53962938D01*
X67267120Y-53869576D01*
X67324115Y-53656871D01*
X67343307Y-53437500D01*
X67324115Y-53218129D01*
X67267120Y-53005424D01*
X67223585Y-52912062D01*
X67176382Y-52810834D01*
X67176379Y-52810829D01*
X67174056Y-52805847D01*
X67047749Y-52625462D01*
X66892038Y-52469751D01*
X66711654Y-52343444D01*
X66706672Y-52341121D01*
X66706667Y-52341118D01*
X66579232Y-52281695D01*
X66525947Y-52234778D01*
X66506486Y-52166501D01*
X66527028Y-52098541D01*
X66579232Y-52053305D01*
X66706667Y-51993882D01*
X66706672Y-51993879D01*
X66711654Y-51991556D01*
X66892038Y-51865249D01*
X67047749Y-51709538D01*
X67174056Y-51529153D01*
X67176379Y-51524171D01*
X67176382Y-51524166D01*
X67223585Y-51422938D01*
X67267120Y-51329576D01*
X67324115Y-51116871D01*
X67343307Y-50897500D01*
X67324115Y-50678129D01*
X67267120Y-50465424D01*
X67223585Y-50372062D01*
X67176382Y-50270834D01*
X67176379Y-50270829D01*
X67174056Y-50265847D01*
X67047749Y-50085462D01*
X66892038Y-49929751D01*
X66711654Y-49803444D01*
X66706672Y-49801121D01*
X66706667Y-49801118D01*
X66578641Y-49741419D01*
X66525356Y-49694502D01*
X66505895Y-49626224D01*
X66526437Y-49558264D01*
X66578641Y-49513029D01*
X66706416Y-49453447D01*
X66715912Y-49447964D01*
X66757148Y-49419090D01*
X66765523Y-49408612D01*
X66758457Y-49395168D01*
X66092811Y-48729521D01*
X66078868Y-48721908D01*
X66077034Y-48722039D01*
X66070420Y-48726290D01*
X65400820Y-49395891D01*
X65394393Y-49407661D01*
X65403687Y-49419675D01*
X65444088Y-49447964D01*
X65453584Y-49453447D01*
X65581359Y-49513029D01*
X65634644Y-49559946D01*
X65654105Y-49628224D01*
X65633563Y-49696184D01*
X65581359Y-49741419D01*
X65453334Y-49801118D01*
X65453329Y-49801121D01*
X65448347Y-49803444D01*
X65443840Y-49806600D01*
X65443838Y-49806601D01*
X65272473Y-49926592D01*
X65272470Y-49926594D01*
X65267962Y-49929751D01*
X65112251Y-50085462D01*
X64985944Y-50265847D01*
X64983621Y-50270829D01*
X64983618Y-50270834D01*
X64936415Y-50372062D01*
X64892880Y-50465424D01*
X64835885Y-50678129D01*
X64816693Y-50897500D01*
X64835885Y-51116871D01*
X64892880Y-51329576D01*
X64936415Y-51422938D01*
X64983618Y-51524166D01*
X64983621Y-51524171D01*
X64985944Y-51529153D01*
X65112251Y-51709538D01*
X65267962Y-51865249D01*
X65448346Y-51991556D01*
X65453328Y-51993879D01*
X65453333Y-51993882D01*
X65580768Y-52053305D01*
X65634053Y-52100222D01*
X65653514Y-52168499D01*
X65632972Y-52236459D01*
X65580768Y-52281695D01*
X65453334Y-52341118D01*
X65453329Y-52341121D01*
X65448347Y-52343444D01*
X65443840Y-52346600D01*
X65443838Y-52346601D01*
X65272473Y-52466592D01*
X65272470Y-52466594D01*
X65267962Y-52469751D01*
X65112251Y-52625462D01*
X64985944Y-52805847D01*
X64983621Y-52810829D01*
X64983618Y-52810834D01*
X64936415Y-52912062D01*
X64892880Y-53005424D01*
X64835885Y-53218129D01*
X64816693Y-53437500D01*
X64835885Y-53656871D01*
X64892880Y-53869576D01*
X64936415Y-53962938D01*
X64983618Y-54064166D01*
X64983621Y-54064171D01*
X64985944Y-54069153D01*
X64989100Y-54073660D01*
X64989101Y-54073662D01*
X65091047Y-54219255D01*
X65112251Y-54249538D01*
X65267962Y-54405249D01*
X65448346Y-54531556D01*
X65453328Y-54533879D01*
X65453333Y-54533882D01*
X65580768Y-54593305D01*
X65634053Y-54640222D01*
X65653514Y-54708499D01*
X65632972Y-54776459D01*
X65580768Y-54821695D01*
X65453334Y-54881118D01*
X65453329Y-54881121D01*
X65448347Y-54883444D01*
X65443840Y-54886600D01*
X65443838Y-54886601D01*
X65272473Y-55006592D01*
X65272470Y-55006594D01*
X65267962Y-55009751D01*
X65112251Y-55165462D01*
X65109094Y-55169970D01*
X65109092Y-55169973D01*
X65011143Y-55309859D01*
X64985944Y-55345847D01*
X64983621Y-55350829D01*
X64983618Y-55350834D01*
X64943073Y-55437785D01*
X64892880Y-55545424D01*
X64835885Y-55758129D01*
X64816693Y-55977500D01*
X62876500Y-55977500D01*
X62876500Y-54672866D01*
X62869745Y-54610684D01*
X62818615Y-54474295D01*
X62731261Y-54357739D01*
X62614705Y-54270385D01*
X62478316Y-54219255D01*
X62416134Y-54212500D01*
X60519866Y-54212500D01*
X60457684Y-54219255D01*
X60321295Y-54270385D01*
X60204739Y-54357739D01*
X60117385Y-54474295D01*
X60066255Y-54610684D01*
X60059500Y-54672866D01*
X60059500Y-56569134D01*
X60066255Y-56631316D01*
X60117385Y-56767705D01*
X60204739Y-56884261D01*
X60321295Y-56971615D01*
X60329704Y-56974767D01*
X60329705Y-56974768D01*
X60389164Y-56997058D01*
X60445929Y-57039699D01*
X60470629Y-57106261D01*
X60455422Y-57175609D01*
X60436029Y-57202091D01*
X60369639Y-57271564D01*
X60366725Y-57275836D01*
X60366724Y-57275837D01*
X60351152Y-57298665D01*
X60239119Y-57462899D01*
X60141602Y-57672981D01*
X60079707Y-57896169D01*
X60055095Y-58126469D01*
X48057988Y-58126469D01*
X48031620Y-58036879D01*
X48031619Y-58036877D01*
X48029881Y-58030971D01*
X48030740Y-58030718D01*
X48024286Y-57965338D01*
X48037452Y-57928594D01*
X48042615Y-57921705D01*
X48045768Y-57913296D01*
X48090971Y-57792715D01*
X48093745Y-57785316D01*
X48100500Y-57723134D01*
X48100500Y-56576866D01*
X48093745Y-56514684D01*
X48042615Y-56378295D01*
X47955261Y-56261739D01*
X47838705Y-56174385D01*
X47702316Y-56123255D01*
X47640134Y-56116500D01*
X46043866Y-56116500D01*
X45981684Y-56123255D01*
X45845295Y-56174385D01*
X45728739Y-56261739D01*
X45641385Y-56378295D01*
X45590255Y-56514684D01*
X45583500Y-56576866D01*
X45583500Y-57723134D01*
X45590255Y-57785316D01*
X45593029Y-57792715D01*
X45638232Y-57913296D01*
X45638234Y-57913299D01*
X45641385Y-57921705D01*
X45646773Y-57928894D01*
X45646906Y-57929137D01*
X45662076Y-57998494D01*
X45656752Y-58026907D01*
X45599710Y-58211180D01*
X45599066Y-58217305D01*
X45599066Y-58217306D01*
X45584310Y-58357697D01*
X45578524Y-58412750D01*
X37268500Y-58412750D01*
X37268500Y-48292134D01*
X37617500Y-48292134D01*
X37624255Y-48354316D01*
X37675385Y-48490705D01*
X37762739Y-48607261D01*
X37879295Y-48694615D01*
X38015684Y-48745745D01*
X38077866Y-48752500D01*
X40174134Y-48752500D01*
X40236316Y-48745745D01*
X40372705Y-48694615D01*
X40489261Y-48607261D01*
X40576615Y-48490705D01*
X40627745Y-48354316D01*
X40634500Y-48292134D01*
X40634500Y-47244000D01*
X45212835Y-47244000D01*
X45231465Y-47480711D01*
X45232619Y-47485518D01*
X45232620Y-47485524D01*
X45263389Y-47613686D01*
X45286895Y-47711594D01*
X45288788Y-47716165D01*
X45288789Y-47716167D01*
X45375644Y-47925854D01*
X45377760Y-47930963D01*
X45380346Y-47935183D01*
X45499241Y-48129202D01*
X45499245Y-48129208D01*
X45501824Y-48133416D01*
X45656031Y-48313969D01*
X45836584Y-48468176D01*
X45840792Y-48470755D01*
X45840798Y-48470759D01*
X46022488Y-48582099D01*
X46039037Y-48592240D01*
X46043607Y-48594133D01*
X46043611Y-48594135D01*
X46211432Y-48663648D01*
X46258406Y-48683105D01*
X46306349Y-48694615D01*
X46484476Y-48737380D01*
X46484482Y-48737381D01*
X46489289Y-48738535D01*
X46726000Y-48757165D01*
X46962711Y-48738535D01*
X46967518Y-48737381D01*
X46967524Y-48737380D01*
X47145651Y-48694615D01*
X47193594Y-48683105D01*
X47240568Y-48663648D01*
X47408389Y-48594135D01*
X47408393Y-48594133D01*
X47412963Y-48592240D01*
X47429512Y-48582099D01*
X47611202Y-48470759D01*
X47611208Y-48470755D01*
X47615416Y-48468176D01*
X47738590Y-48362975D01*
X64817674Y-48362975D01*
X64835901Y-48571304D01*
X64837804Y-48582099D01*
X64891928Y-48784095D01*
X64895674Y-48794387D01*
X64984054Y-48983917D01*
X64989534Y-48993407D01*
X65018411Y-49034649D01*
X65028887Y-49043023D01*
X65042334Y-49035955D01*
X65707979Y-48370311D01*
X65714356Y-48358632D01*
X66444408Y-48358632D01*
X66444539Y-48360466D01*
X66448790Y-48367080D01*
X67118391Y-49036680D01*
X67130161Y-49043107D01*
X67142176Y-49033811D01*
X67170466Y-48993407D01*
X67175946Y-48983917D01*
X67264326Y-48794387D01*
X67268072Y-48784095D01*
X67322196Y-48582099D01*
X67324099Y-48571304D01*
X67342326Y-48362975D01*
X67342326Y-48352015D01*
X67341206Y-48339215D01*
X67355194Y-48269610D01*
X67404593Y-48218617D01*
X67473718Y-48202426D01*
X67542291Y-48227406D01*
X67598604Y-48269610D01*
X67623295Y-48288115D01*
X67759684Y-48339245D01*
X67821866Y-48346000D01*
X67856424Y-48346000D01*
X67924545Y-48366002D01*
X67971038Y-48419658D01*
X67981142Y-48489932D01*
X67951648Y-48554512D01*
X67928696Y-48575212D01*
X67908071Y-48589654D01*
X67812473Y-48656592D01*
X67812470Y-48656594D01*
X67807962Y-48659751D01*
X67652251Y-48815462D01*
X67525944Y-48995847D01*
X67523621Y-49000829D01*
X67523618Y-49000834D01*
X67503906Y-49043107D01*
X67432880Y-49195424D01*
X67375885Y-49408129D01*
X67356693Y-49627500D01*
X67375885Y-49846871D01*
X67432880Y-50059576D01*
X67476415Y-50152938D01*
X67523618Y-50254166D01*
X67523621Y-50254171D01*
X67525944Y-50259153D01*
X67652251Y-50439538D01*
X67807962Y-50595249D01*
X67988346Y-50721556D01*
X67993328Y-50723879D01*
X67993333Y-50723882D01*
X68120768Y-50783305D01*
X68174053Y-50830222D01*
X68193514Y-50898499D01*
X68172972Y-50966459D01*
X68120768Y-51011695D01*
X67993334Y-51071118D01*
X67993329Y-51071121D01*
X67988347Y-51073444D01*
X67983840Y-51076600D01*
X67983838Y-51076601D01*
X67812473Y-51196592D01*
X67812470Y-51196594D01*
X67807962Y-51199751D01*
X67652251Y-51355462D01*
X67525944Y-51535847D01*
X67523621Y-51540829D01*
X67523618Y-51540834D01*
X67476415Y-51642062D01*
X67432880Y-51735424D01*
X67375885Y-51948129D01*
X67356693Y-52167500D01*
X67375885Y-52386871D01*
X67432880Y-52599576D01*
X67476415Y-52692938D01*
X67523618Y-52794166D01*
X67523621Y-52794171D01*
X67525944Y-52799153D01*
X67652251Y-52979538D01*
X67807962Y-53135249D01*
X67988346Y-53261556D01*
X67993328Y-53263879D01*
X67993333Y-53263882D01*
X68120768Y-53323305D01*
X68174053Y-53370222D01*
X68193514Y-53438499D01*
X68172972Y-53506459D01*
X68120768Y-53551695D01*
X67993334Y-53611118D01*
X67993329Y-53611121D01*
X67988347Y-53613444D01*
X67983840Y-53616600D01*
X67983838Y-53616601D01*
X67812473Y-53736592D01*
X67812470Y-53736594D01*
X67807962Y-53739751D01*
X67652251Y-53895462D01*
X67525944Y-54075847D01*
X67523621Y-54080829D01*
X67523618Y-54080834D01*
X67476415Y-54182062D01*
X67432880Y-54275424D01*
X67375885Y-54488129D01*
X67356693Y-54707500D01*
X67375885Y-54926871D01*
X67432880Y-55139576D01*
X67470132Y-55219464D01*
X67523618Y-55334166D01*
X67523621Y-55334171D01*
X67525944Y-55339153D01*
X67529100Y-55343660D01*
X67529101Y-55343662D01*
X67603073Y-55449304D01*
X67652251Y-55519538D01*
X67807962Y-55675249D01*
X67988346Y-55801556D01*
X68187924Y-55894620D01*
X68400629Y-55951615D01*
X68620000Y-55970807D01*
X68839371Y-55951615D01*
X69052076Y-55894620D01*
X69251654Y-55801556D01*
X69432038Y-55675249D01*
X69587749Y-55519538D01*
X69636928Y-55449304D01*
X69710899Y-55343662D01*
X69710900Y-55343660D01*
X69714056Y-55339153D01*
X69716379Y-55334171D01*
X69716382Y-55334166D01*
X69769868Y-55219464D01*
X69807120Y-55139576D01*
X69864115Y-54926871D01*
X69883307Y-54707500D01*
X69864115Y-54488129D01*
X69807120Y-54275424D01*
X69763585Y-54182062D01*
X69716382Y-54080834D01*
X69716379Y-54080829D01*
X69714056Y-54075847D01*
X69587749Y-53895462D01*
X69432038Y-53739751D01*
X69251654Y-53613444D01*
X69246672Y-53611121D01*
X69246667Y-53611118D01*
X69119232Y-53551695D01*
X69065947Y-53504778D01*
X69046486Y-53436501D01*
X69067028Y-53368541D01*
X69119232Y-53323305D01*
X69246667Y-53263882D01*
X69246672Y-53263879D01*
X69251654Y-53261556D01*
X69432038Y-53135249D01*
X69587749Y-52979538D01*
X69714056Y-52799153D01*
X69716379Y-52794171D01*
X69716382Y-52794166D01*
X69763585Y-52692938D01*
X69807120Y-52599576D01*
X69864115Y-52386871D01*
X69883307Y-52167500D01*
X69864115Y-51948129D01*
X69807120Y-51735424D01*
X69763585Y-51642062D01*
X69716382Y-51540834D01*
X69716379Y-51540829D01*
X69714056Y-51535847D01*
X69587749Y-51355462D01*
X69432038Y-51199751D01*
X69251654Y-51073444D01*
X69246672Y-51071121D01*
X69246667Y-51071118D01*
X69119232Y-51011695D01*
X69065947Y-50964778D01*
X69046486Y-50896501D01*
X69067028Y-50828541D01*
X69119232Y-50783305D01*
X69246667Y-50723882D01*
X69246672Y-50723879D01*
X69251654Y-50721556D01*
X69432038Y-50595249D01*
X69587749Y-50439538D01*
X69714056Y-50259153D01*
X69716379Y-50254171D01*
X69716382Y-50254166D01*
X69763585Y-50152938D01*
X69807120Y-50059576D01*
X69864115Y-49846871D01*
X69883307Y-49627500D01*
X69864115Y-49408129D01*
X69807120Y-49195424D01*
X69736094Y-49043107D01*
X69716382Y-49000834D01*
X69716379Y-49000829D01*
X69714056Y-48995847D01*
X69587749Y-48815462D01*
X69432038Y-48659751D01*
X69311306Y-48575213D01*
X69266978Y-48519756D01*
X69259669Y-48449136D01*
X69291700Y-48385776D01*
X69352901Y-48349791D01*
X69383577Y-48346000D01*
X69418134Y-48346000D01*
X69480316Y-48339245D01*
X69616705Y-48288115D01*
X69733261Y-48200761D01*
X69820615Y-48084205D01*
X69871745Y-47947816D01*
X69878500Y-47885634D01*
X69878500Y-46289366D01*
X69871745Y-46227184D01*
X69820615Y-46090795D01*
X69733261Y-45974239D01*
X69701190Y-45950203D01*
X72860743Y-45950203D01*
X72861302Y-45954447D01*
X72861302Y-45954451D01*
X72871067Y-46028623D01*
X72898268Y-46235234D01*
X72899401Y-46239374D01*
X72899401Y-46239376D01*
X72910663Y-46280544D01*
X72974129Y-46512536D01*
X72975813Y-46516484D01*
X73068748Y-46734365D01*
X73086923Y-46776976D01*
X73100727Y-46800041D01*
X73224763Y-47007289D01*
X73234561Y-47023661D01*
X73414313Y-47248028D01*
X73622851Y-47445923D01*
X73856317Y-47613686D01*
X73860112Y-47615695D01*
X73860113Y-47615696D01*
X73881869Y-47627215D01*
X74110392Y-47748212D01*
X74134699Y-47757107D01*
X74280586Y-47810494D01*
X74380373Y-47847011D01*
X74661264Y-47908255D01*
X74689841Y-47910504D01*
X74884282Y-47925807D01*
X74884291Y-47925807D01*
X74886739Y-47926000D01*
X75042271Y-47926000D01*
X75044407Y-47925854D01*
X75044418Y-47925854D01*
X75252548Y-47911665D01*
X75252554Y-47911664D01*
X75256825Y-47911373D01*
X75261020Y-47910504D01*
X75261022Y-47910504D01*
X75397615Y-47882217D01*
X75538342Y-47853074D01*
X75809343Y-47757107D01*
X75960586Y-47679045D01*
X76061005Y-47627215D01*
X76061006Y-47627215D01*
X76064812Y-47625250D01*
X76068313Y-47622789D01*
X76068317Y-47622787D01*
X76270470Y-47480711D01*
X76300023Y-47459941D01*
X76510622Y-47264240D01*
X76692713Y-47041768D01*
X76842927Y-46796642D01*
X76958483Y-46533398D01*
X77037244Y-46256906D01*
X77072995Y-46005703D01*
X77077146Y-45976536D01*
X77077146Y-45976534D01*
X77077751Y-45972284D01*
X77077845Y-45954451D01*
X77079235Y-45689083D01*
X77079235Y-45689076D01*
X77079257Y-45684797D01*
X77078082Y-45675868D01*
X77042292Y-45404022D01*
X77041732Y-45399766D01*
X76965871Y-45122464D01*
X76853077Y-44858024D01*
X76705439Y-44611339D01*
X76525687Y-44386972D01*
X76317149Y-44189077D01*
X76083683Y-44021314D01*
X76061843Y-44009750D01*
X76038654Y-43997472D01*
X75829608Y-43886788D01*
X75559627Y-43787989D01*
X75278736Y-43726745D01*
X75247685Y-43724301D01*
X75055718Y-43709193D01*
X75055709Y-43709193D01*
X75053261Y-43709000D01*
X74897729Y-43709000D01*
X74895593Y-43709146D01*
X74895582Y-43709146D01*
X74687452Y-43723335D01*
X74687446Y-43723336D01*
X74683175Y-43723627D01*
X74678980Y-43724496D01*
X74678978Y-43724496D01*
X74542417Y-43752776D01*
X74401658Y-43781926D01*
X74130657Y-43877893D01*
X73875188Y-44009750D01*
X73871687Y-44012211D01*
X73871683Y-44012213D01*
X73861594Y-44019304D01*
X73639977Y-44175059D01*
X73429378Y-44370760D01*
X73247287Y-44593232D01*
X73097073Y-44838358D01*
X72981517Y-45101602D01*
X72902756Y-45378094D01*
X72862249Y-45662716D01*
X72862227Y-45667005D01*
X72862226Y-45667012D01*
X72860765Y-45945917D01*
X72860743Y-45950203D01*
X69701190Y-45950203D01*
X69616705Y-45886885D01*
X69480316Y-45835755D01*
X69418134Y-45829000D01*
X67821866Y-45829000D01*
X67759684Y-45835755D01*
X67623295Y-45886885D01*
X67506739Y-45974239D01*
X67419385Y-46090795D01*
X67368255Y-46227184D01*
X67361500Y-46289366D01*
X67361500Y-47594794D01*
X67341498Y-47662915D01*
X67287842Y-47709408D01*
X67217568Y-47719512D01*
X67155968Y-47691379D01*
X67155741Y-47691663D01*
X67154610Y-47690759D01*
X67152988Y-47690018D01*
X67151192Y-47688027D01*
X67131113Y-47671977D01*
X67117666Y-47679045D01*
X66452021Y-48344689D01*
X66444408Y-48358632D01*
X65714356Y-48358632D01*
X65715592Y-48356368D01*
X65715461Y-48354534D01*
X65711210Y-48347920D01*
X65041609Y-47678320D01*
X65029839Y-47671893D01*
X65017824Y-47681189D01*
X64989534Y-47721593D01*
X64984054Y-47731083D01*
X64895674Y-47920613D01*
X64891928Y-47930905D01*
X64837804Y-48132901D01*
X64835901Y-48143696D01*
X64817674Y-48352025D01*
X64817674Y-48362975D01*
X47738590Y-48362975D01*
X47795969Y-48313969D01*
X47950176Y-48133416D01*
X47952755Y-48129208D01*
X47952759Y-48129202D01*
X48071654Y-47935183D01*
X48074240Y-47930963D01*
X48076357Y-47925854D01*
X48163211Y-47716167D01*
X48163212Y-47716165D01*
X48165105Y-47711594D01*
X48188611Y-47613686D01*
X48219380Y-47485524D01*
X48219381Y-47485518D01*
X48220535Y-47480711D01*
X48239165Y-47244000D01*
X48220535Y-47007289D01*
X48165105Y-46776406D01*
X48147691Y-46734365D01*
X48131994Y-46696469D01*
X60055095Y-46696469D01*
X60055392Y-46701622D01*
X60055392Y-46701625D01*
X60061258Y-46803359D01*
X60068427Y-46927697D01*
X60069564Y-46932743D01*
X60069565Y-46932749D01*
X60094134Y-47041768D01*
X60119346Y-47153642D01*
X60121288Y-47158424D01*
X60121289Y-47158428D01*
X60204540Y-47363450D01*
X60206484Y-47368237D01*
X60327501Y-47565719D01*
X60479147Y-47740784D01*
X60657349Y-47888730D01*
X60857322Y-48005584D01*
X61073694Y-48088209D01*
X61078760Y-48089240D01*
X61078761Y-48089240D01*
X61089334Y-48091391D01*
X61300656Y-48134385D01*
X61431324Y-48139176D01*
X61526949Y-48142683D01*
X61526953Y-48142683D01*
X61532113Y-48142872D01*
X61537233Y-48142216D01*
X61537235Y-48142216D01*
X61610270Y-48132860D01*
X61761847Y-48113442D01*
X61766795Y-48111957D01*
X61766802Y-48111956D01*
X61978747Y-48048369D01*
X61983690Y-48046886D01*
X62064236Y-48007427D01*
X62187049Y-47947262D01*
X62187052Y-47947260D01*
X62191684Y-47944991D01*
X62380243Y-47810494D01*
X62544303Y-47647005D01*
X62679458Y-47458917D01*
X62726641Y-47363450D01*
X62754843Y-47306387D01*
X65394477Y-47306387D01*
X65401545Y-47319834D01*
X66067189Y-47985479D01*
X66081132Y-47993092D01*
X66082966Y-47992961D01*
X66089580Y-47988710D01*
X66759180Y-47319109D01*
X66765607Y-47307339D01*
X66756313Y-47295325D01*
X66715912Y-47267036D01*
X66706416Y-47261553D01*
X66516887Y-47173174D01*
X66506595Y-47169428D01*
X66304599Y-47115304D01*
X66293804Y-47113401D01*
X66085475Y-47095174D01*
X66074525Y-47095174D01*
X65866196Y-47113401D01*
X65855401Y-47115304D01*
X65653405Y-47169428D01*
X65643113Y-47173174D01*
X65453583Y-47261554D01*
X65444093Y-47267034D01*
X65402851Y-47295911D01*
X65394477Y-47306387D01*
X62754843Y-47306387D01*
X62779784Y-47255922D01*
X62779785Y-47255920D01*
X62782078Y-47251280D01*
X62849408Y-47029671D01*
X62879640Y-46800041D01*
X62880100Y-46781218D01*
X62881245Y-46734365D01*
X62881245Y-46734361D01*
X62881327Y-46731000D01*
X62866678Y-46552817D01*
X62862773Y-46505318D01*
X62862772Y-46505312D01*
X62862349Y-46500167D01*
X62809400Y-46289366D01*
X62807184Y-46280544D01*
X62807183Y-46280540D01*
X62805925Y-46275533D01*
X62795979Y-46252659D01*
X62715630Y-46067868D01*
X62715628Y-46067865D01*
X62713570Y-46063131D01*
X62587764Y-45868665D01*
X62560343Y-45838529D01*
X62528687Y-45803740D01*
X62497486Y-45769450D01*
X62466434Y-45705605D01*
X62474829Y-45635106D01*
X62520005Y-45580338D01*
X62546449Y-45566669D01*
X62606054Y-45544324D01*
X62621649Y-45535786D01*
X62723724Y-45459285D01*
X62736285Y-45446724D01*
X62812786Y-45344649D01*
X62821324Y-45329054D01*
X62866478Y-45208606D01*
X62870105Y-45193351D01*
X62875631Y-45142486D01*
X62876000Y-45135672D01*
X62876000Y-44463115D01*
X62871525Y-44447876D01*
X62870135Y-44446671D01*
X62862452Y-44445000D01*
X60078116Y-44445000D01*
X60062877Y-44449475D01*
X60061672Y-44450865D01*
X60060001Y-44458548D01*
X60060001Y-45135669D01*
X60060371Y-45142490D01*
X60065895Y-45193352D01*
X60069521Y-45208604D01*
X60114676Y-45329054D01*
X60123214Y-45344649D01*
X60199715Y-45446724D01*
X60212276Y-45459285D01*
X60314351Y-45535786D01*
X60329946Y-45544324D01*
X60389540Y-45566665D01*
X60446304Y-45609307D01*
X60471004Y-45675868D01*
X60455796Y-45745217D01*
X60436404Y-45771698D01*
X60369639Y-45841564D01*
X60366725Y-45845836D01*
X60366724Y-45845837D01*
X60340873Y-45883733D01*
X60239119Y-46032899D01*
X60141602Y-46242981D01*
X60079707Y-46466169D01*
X60055095Y-46696469D01*
X48131994Y-46696469D01*
X48076135Y-46561611D01*
X48076133Y-46561607D01*
X48074240Y-46557037D01*
X48071654Y-46552817D01*
X47952759Y-46358798D01*
X47952755Y-46358792D01*
X47950176Y-46354584D01*
X47795969Y-46174031D01*
X47615416Y-46019824D01*
X47611208Y-46017245D01*
X47611202Y-46017241D01*
X47417183Y-45898346D01*
X47412963Y-45895760D01*
X47408393Y-45893867D01*
X47408389Y-45893865D01*
X47198167Y-45806789D01*
X47198165Y-45806788D01*
X47193594Y-45804895D01*
X47113391Y-45785640D01*
X46967524Y-45750620D01*
X46967518Y-45750619D01*
X46962711Y-45749465D01*
X46726000Y-45730835D01*
X46489289Y-45749465D01*
X46484482Y-45750619D01*
X46484476Y-45750620D01*
X46338609Y-45785640D01*
X46258406Y-45804895D01*
X46253835Y-45806788D01*
X46253833Y-45806789D01*
X46043611Y-45893865D01*
X46043607Y-45893867D01*
X46039037Y-45895760D01*
X46034817Y-45898346D01*
X45840798Y-46017241D01*
X45840792Y-46017245D01*
X45836584Y-46019824D01*
X45656031Y-46174031D01*
X45501824Y-46354584D01*
X45499245Y-46358792D01*
X45499241Y-46358798D01*
X45380346Y-46552817D01*
X45377760Y-46557037D01*
X45375867Y-46561607D01*
X45375865Y-46561611D01*
X45304309Y-46734365D01*
X45286895Y-46776406D01*
X45231465Y-47007289D01*
X45212835Y-47244000D01*
X40634500Y-47244000D01*
X40634500Y-46195866D01*
X40627745Y-46133684D01*
X40576615Y-45997295D01*
X40489261Y-45880739D01*
X40372705Y-45793385D01*
X40236316Y-45742255D01*
X40174134Y-45735500D01*
X38077866Y-45735500D01*
X38015684Y-45742255D01*
X37879295Y-45793385D01*
X37762739Y-45880739D01*
X37675385Y-45997295D01*
X37624255Y-46133684D01*
X37617500Y-46195866D01*
X37617500Y-48292134D01*
X37268500Y-48292134D01*
X37268500Y-43918885D01*
X60060000Y-43918885D01*
X60064475Y-43934124D01*
X60065865Y-43935329D01*
X60073548Y-43937000D01*
X61195885Y-43937000D01*
X61211124Y-43932525D01*
X61212329Y-43931135D01*
X61214000Y-43923452D01*
X61214000Y-43918885D01*
X61722000Y-43918885D01*
X61726475Y-43934124D01*
X61727865Y-43935329D01*
X61735548Y-43937000D01*
X62857884Y-43937000D01*
X62873123Y-43932525D01*
X62874328Y-43931135D01*
X62875999Y-43923452D01*
X62875999Y-43246331D01*
X62875629Y-43239510D01*
X62870105Y-43188648D01*
X62866479Y-43173396D01*
X62821324Y-43052946D01*
X62812786Y-43037351D01*
X62736285Y-42935276D01*
X62723724Y-42922715D01*
X62621649Y-42846214D01*
X62606054Y-42837676D01*
X62485606Y-42792522D01*
X62470351Y-42788895D01*
X62419486Y-42783369D01*
X62412672Y-42783000D01*
X61740115Y-42783000D01*
X61724876Y-42787475D01*
X61723671Y-42788865D01*
X61722000Y-42796548D01*
X61722000Y-43918885D01*
X61214000Y-43918885D01*
X61214000Y-42801116D01*
X61209525Y-42785877D01*
X61208135Y-42784672D01*
X61200452Y-42783001D01*
X60523331Y-42783001D01*
X60516510Y-42783371D01*
X60465648Y-42788895D01*
X60450396Y-42792521D01*
X60329946Y-42837676D01*
X60314351Y-42846214D01*
X60212276Y-42922715D01*
X60199715Y-42935276D01*
X60123214Y-43037351D01*
X60114676Y-43052946D01*
X60069522Y-43173394D01*
X60065895Y-43188649D01*
X60060369Y-43239514D01*
X60060000Y-43246328D01*
X60060000Y-43918885D01*
X37268500Y-43918885D01*
X37268500Y-39184046D01*
X37288502Y-39115925D01*
X37342158Y-39069432D01*
X37412432Y-39059328D01*
X37470064Y-39083220D01*
X37521295Y-39121615D01*
X37657684Y-39172745D01*
X37719866Y-39179500D01*
X39516134Y-39179500D01*
X39578316Y-39172745D01*
X39714705Y-39121615D01*
X39831261Y-39034261D01*
X39918615Y-38917705D01*
X39962798Y-38799848D01*
X40005440Y-38743084D01*
X40072001Y-38718384D01*
X40141350Y-38733592D01*
X40176017Y-38761580D01*
X40201218Y-38790673D01*
X40208580Y-38797883D01*
X40372434Y-38933916D01*
X40380881Y-38939831D01*
X40564756Y-39047279D01*
X40574042Y-39051729D01*
X40773001Y-39127703D01*
X40782899Y-39130579D01*
X40886250Y-39151606D01*
X40900299Y-39150410D01*
X40904000Y-39140065D01*
X40904000Y-39139517D01*
X41412000Y-39139517D01*
X41416064Y-39153359D01*
X41429478Y-39155393D01*
X41436184Y-39154534D01*
X41446262Y-39152392D01*
X41650255Y-39091191D01*
X41659842Y-39087433D01*
X41851095Y-38993739D01*
X41859945Y-38988464D01*
X42033328Y-38864792D01*
X42041200Y-38858139D01*
X42192052Y-38707812D01*
X42198730Y-38699965D01*
X42326022Y-38522819D01*
X42327279Y-38523722D01*
X42374373Y-38480362D01*
X42444311Y-38468145D01*
X42509751Y-38495678D01*
X42537579Y-38527511D01*
X42597987Y-38626088D01*
X42744250Y-38794938D01*
X42916126Y-38937632D01*
X43109000Y-39050338D01*
X43113825Y-39052180D01*
X43113826Y-39052181D01*
X43170854Y-39073958D01*
X43317692Y-39130030D01*
X43322760Y-39131061D01*
X43322763Y-39131062D01*
X43417862Y-39150410D01*
X43536597Y-39174567D01*
X43541772Y-39174757D01*
X43541774Y-39174757D01*
X43754673Y-39182564D01*
X43754677Y-39182564D01*
X43759837Y-39182753D01*
X43764957Y-39182097D01*
X43764959Y-39182097D01*
X43976288Y-39155025D01*
X43976289Y-39155025D01*
X43981416Y-39154368D01*
X43986366Y-39152883D01*
X44190429Y-39091661D01*
X44190434Y-39091659D01*
X44195384Y-39090174D01*
X44395994Y-38991896D01*
X44577860Y-38862173D01*
X44736096Y-38704489D01*
X44866453Y-38523077D01*
X44867776Y-38524028D01*
X44914645Y-38480857D01*
X44984580Y-38468625D01*
X45050026Y-38496144D01*
X45077875Y-38527994D01*
X45137987Y-38626088D01*
X45284250Y-38794938D01*
X45456126Y-38937632D01*
X45649000Y-39050338D01*
X45653825Y-39052180D01*
X45653826Y-39052181D01*
X45710854Y-39073958D01*
X45857692Y-39130030D01*
X45862760Y-39131061D01*
X45862763Y-39131062D01*
X45957862Y-39150410D01*
X46076597Y-39174567D01*
X46081772Y-39174757D01*
X46081774Y-39174757D01*
X46294673Y-39182564D01*
X46294677Y-39182564D01*
X46299837Y-39182753D01*
X46304957Y-39182097D01*
X46304959Y-39182097D01*
X46516288Y-39155025D01*
X46516289Y-39155025D01*
X46521416Y-39154368D01*
X46526366Y-39152883D01*
X46730429Y-39091661D01*
X46730434Y-39091659D01*
X46735384Y-39090174D01*
X46776564Y-39070000D01*
X73216738Y-39070000D01*
X73235767Y-39372462D01*
X73292555Y-39670154D01*
X73386206Y-39958381D01*
X73515242Y-40232598D01*
X73677630Y-40488480D01*
X73870808Y-40721992D01*
X74091729Y-40929450D01*
X74336910Y-41107584D01*
X74602483Y-41253585D01*
X74606152Y-41255038D01*
X74606157Y-41255040D01*
X74880591Y-41363696D01*
X74884261Y-41365149D01*
X75177800Y-41440516D01*
X75478470Y-41478500D01*
X75781530Y-41478500D01*
X76082200Y-41440516D01*
X76375739Y-41365149D01*
X76379409Y-41363696D01*
X76653843Y-41255040D01*
X76653848Y-41255038D01*
X76657517Y-41253585D01*
X76923090Y-41107584D01*
X77168271Y-40929450D01*
X77389192Y-40721992D01*
X77582370Y-40488480D01*
X77744758Y-40232598D01*
X77873794Y-39958381D01*
X77967445Y-39670154D01*
X78024233Y-39372462D01*
X78043262Y-39070000D01*
X78024233Y-38767538D01*
X77967445Y-38469846D01*
X77873794Y-38181619D01*
X77744758Y-37907402D01*
X77582370Y-37651520D01*
X77389192Y-37418008D01*
X77168271Y-37210550D01*
X76923090Y-37032416D01*
X76853078Y-36993926D01*
X76660986Y-36888322D01*
X76660985Y-36888321D01*
X76657517Y-36886415D01*
X76653848Y-36884962D01*
X76653843Y-36884960D01*
X76379409Y-36776304D01*
X76379408Y-36776304D01*
X76375739Y-36774851D01*
X76082200Y-36699484D01*
X75781530Y-36661500D01*
X75478470Y-36661500D01*
X75177800Y-36699484D01*
X74884261Y-36774851D01*
X74880592Y-36776304D01*
X74880591Y-36776304D01*
X74606157Y-36884960D01*
X74606152Y-36884962D01*
X74602483Y-36886415D01*
X74599015Y-36888321D01*
X74599014Y-36888322D01*
X74406923Y-36993926D01*
X74336910Y-37032416D01*
X74091729Y-37210550D01*
X73870808Y-37418008D01*
X73677630Y-37651520D01*
X73515242Y-37907402D01*
X73386206Y-38181619D01*
X73292555Y-38469846D01*
X73235767Y-38767538D01*
X73216738Y-39070000D01*
X46776564Y-39070000D01*
X46935994Y-38991896D01*
X47117860Y-38862173D01*
X47276096Y-38704489D01*
X47406453Y-38523077D01*
X47419995Y-38495678D01*
X47503136Y-38327453D01*
X47503137Y-38327451D01*
X47505430Y-38322811D01*
X47570370Y-38109069D01*
X47599529Y-37887590D01*
X47601156Y-37821000D01*
X47582852Y-37598361D01*
X47528431Y-37381702D01*
X47439354Y-37176840D01*
X47399906Y-37115862D01*
X47320822Y-36993617D01*
X47320820Y-36993614D01*
X47318014Y-36989277D01*
X47167670Y-36824051D01*
X47163619Y-36820852D01*
X47163615Y-36820848D01*
X46996414Y-36688800D01*
X46996410Y-36688798D01*
X46992359Y-36685598D01*
X46956028Y-36665542D01*
X46940136Y-36656769D01*
X46796789Y-36577638D01*
X46791920Y-36575914D01*
X46791916Y-36575912D01*
X46591087Y-36504795D01*
X46591083Y-36504794D01*
X46586212Y-36503069D01*
X46581119Y-36502162D01*
X46581116Y-36502161D01*
X46371373Y-36464800D01*
X46371367Y-36464799D01*
X46366284Y-36463894D01*
X46292452Y-36462992D01*
X46148081Y-36461228D01*
X46148079Y-36461228D01*
X46142911Y-36461165D01*
X45922091Y-36494955D01*
X45709756Y-36564357D01*
X45672737Y-36583628D01*
X45522192Y-36661997D01*
X45511607Y-36667507D01*
X45507474Y-36670610D01*
X45507471Y-36670612D01*
X45337100Y-36798530D01*
X45332965Y-36801635D01*
X45178629Y-36963138D01*
X45071201Y-37120621D01*
X45016293Y-37165621D01*
X44945768Y-37173792D01*
X44882021Y-37142538D01*
X44861324Y-37118054D01*
X44780822Y-36993617D01*
X44780820Y-36993614D01*
X44778014Y-36989277D01*
X44627670Y-36824051D01*
X44623619Y-36820852D01*
X44623615Y-36820848D01*
X44456414Y-36688800D01*
X44456410Y-36688798D01*
X44452359Y-36685598D01*
X44416028Y-36665542D01*
X44400136Y-36656769D01*
X44256789Y-36577638D01*
X44251920Y-36575914D01*
X44251916Y-36575912D01*
X44051087Y-36504795D01*
X44051083Y-36504794D01*
X44046212Y-36503069D01*
X44041119Y-36502162D01*
X44041116Y-36502161D01*
X43831373Y-36464800D01*
X43831367Y-36464799D01*
X43826284Y-36463894D01*
X43752452Y-36462992D01*
X43608081Y-36461228D01*
X43608079Y-36461228D01*
X43602911Y-36461165D01*
X43382091Y-36494955D01*
X43169756Y-36564357D01*
X43132737Y-36583628D01*
X42982192Y-36661997D01*
X42971607Y-36667507D01*
X42967474Y-36670610D01*
X42967471Y-36670612D01*
X42797100Y-36798530D01*
X42792965Y-36801635D01*
X42638629Y-36963138D01*
X42531204Y-37120618D01*
X42530898Y-37121066D01*
X42475987Y-37166069D01*
X42405462Y-37174240D01*
X42341715Y-37142986D01*
X42321018Y-37118502D01*
X42240426Y-36993926D01*
X42234136Y-36985757D01*
X42090806Y-36828240D01*
X42083273Y-36821215D01*
X41916139Y-36689222D01*
X41907552Y-36683517D01*
X41721117Y-36580599D01*
X41711705Y-36576369D01*
X41510959Y-36505280D01*
X41500988Y-36502646D01*
X41429837Y-36489972D01*
X41416540Y-36491432D01*
X41412000Y-36505989D01*
X41412000Y-39139517D01*
X40904000Y-39139517D01*
X40904000Y-36504102D01*
X40900082Y-36490758D01*
X40885806Y-36488771D01*
X40847324Y-36494660D01*
X40837288Y-36497051D01*
X40634868Y-36563212D01*
X40625359Y-36567209D01*
X40436463Y-36665542D01*
X40427738Y-36671036D01*
X40257433Y-36798905D01*
X40249726Y-36805748D01*
X40172478Y-36886584D01*
X40110954Y-36922014D01*
X40040042Y-36918557D01*
X39982255Y-36877311D01*
X39963402Y-36843763D01*
X39921767Y-36732703D01*
X39918615Y-36724295D01*
X39831261Y-36607739D01*
X39714705Y-36520385D01*
X39578316Y-36469255D01*
X39516134Y-36462500D01*
X37719866Y-36462500D01*
X37657684Y-36469255D01*
X37521295Y-36520385D01*
X37470065Y-36558780D01*
X37403559Y-36583628D01*
X37334176Y-36568575D01*
X37283946Y-36518401D01*
X37268500Y-36457954D01*
X37268500Y-35714500D01*
X37288502Y-35646379D01*
X37342158Y-35599886D01*
X37394500Y-35588500D01*
X79005500Y-35588500D01*
X79073621Y-35608502D01*
G37*
%TD.AperFunction*%
%TD*%
M02*
