%TF.GenerationSoftware,KiCad,Pcbnew,(6.0.8)*%
%TF.CreationDate,2022-11-06T10:20:19-05:00*%
%TF.ProjectId,SE,53452e6b-6963-4616-945f-706362585858,rev?*%
%TF.SameCoordinates,Original*%
%TF.FileFunction,Legend,Bot*%
%TF.FilePolarity,Positive*%
%FSLAX46Y46*%
G04 Gerber Fmt 4.6, Leading zero omitted, Abs format (unit mm)*
G04 Created by KiCad (PCBNEW (6.0.8)) date 2022-11-06 10:20:19*
%MOMM*%
%LPD*%
G01*
G04 APERTURE LIST*
%ADD10C,0.150000*%
%ADD11C,0.120000*%
G04 APERTURE END LIST*
D10*
%TO.C,J1*%
X63072380Y-51199166D02*
X63786666Y-51199166D01*
X63929523Y-51151547D01*
X64024761Y-51056309D01*
X64072380Y-50913452D01*
X64072380Y-50818214D01*
X64072380Y-52199166D02*
X64072380Y-51627738D01*
X64072380Y-51913452D02*
X63072380Y-51913452D01*
X63215238Y-51818214D01*
X63310476Y-51722976D01*
X63358095Y-51627738D01*
%TO.C,Q4*%
X51347619Y-58578761D02*
X51300000Y-58483523D01*
X51204761Y-58388285D01*
X51061904Y-58245428D01*
X51014285Y-58150190D01*
X51014285Y-58054952D01*
X51252380Y-58102571D02*
X51204761Y-58007333D01*
X51109523Y-57912095D01*
X50919047Y-57864476D01*
X50585714Y-57864476D01*
X50395238Y-57912095D01*
X50300000Y-58007333D01*
X50252380Y-58102571D01*
X50252380Y-58293047D01*
X50300000Y-58388285D01*
X50395238Y-58483523D01*
X50585714Y-58531142D01*
X50919047Y-58531142D01*
X51109523Y-58483523D01*
X51204761Y-58388285D01*
X51252380Y-58293047D01*
X51252380Y-58102571D01*
X50585714Y-59388285D02*
X51252380Y-59388285D01*
X50204761Y-59150190D02*
X50919047Y-58912095D01*
X50919047Y-59531142D01*
D11*
%TO.C,J1*%
X64740000Y-43772500D02*
X82700000Y-43772500D01*
X64740000Y-59292500D02*
X64740000Y-43772500D01*
X82700000Y-43772500D02*
X82700000Y-59292500D01*
X69120000Y-43087500D02*
X68620000Y-43587500D01*
X68120000Y-43087500D02*
X69120000Y-43087500D01*
X64740000Y-59292500D02*
X82700000Y-59292500D01*
X68620000Y-43587500D02*
X68120000Y-43087500D01*
%TO.C,Q4*%
X48692000Y-56620000D02*
X48692000Y-60220000D01*
X44241999Y-58420000D02*
G75*
G03*
X48680478Y-60258478I2600001J0D01*
G01*
X48680478Y-56581522D02*
G75*
G03*
X44242000Y-58420000I-1838478J-1838478D01*
G01*
%TD*%
M02*
