%TF.GenerationSoftware,KiCad,Pcbnew,(6.0.8)*%
%TF.CreationDate,2022-10-29T21:58:50-05:00*%
%TF.ProjectId,SE,53452e6b-6963-4616-945f-706362585858,rev?*%
%TF.SameCoordinates,Original*%
%TF.FileFunction,Profile,NP*%
%FSLAX46Y46*%
G04 Gerber Fmt 4.6, Leading zero omitted, Abs format (unit mm)*
G04 Created by KiCad (PCBNEW (6.0.8)) date 2022-10-29 21:58:50*
%MOMM*%
%LPD*%
G01*
G04 APERTURE LIST*
%TA.AperFunction,Profile*%
%ADD10C,0.100000*%
%TD*%
%ADD11C,0.150000*%
G04 APERTURE END LIST*
D10*
X36760000Y-35080000D02*
X79640000Y-35080000D01*
X79640000Y-35080000D02*
X79640000Y-70180000D01*
X79640000Y-70180000D02*
X36760000Y-70180000D01*
X36760000Y-70180000D02*
X36760000Y-35080000D01*
D11*
X28732380Y-72375476D02*
X28732380Y-71756428D01*
X29113333Y-72089761D01*
X29113333Y-71946904D01*
X29160952Y-71851666D01*
X29208571Y-71804047D01*
X29303809Y-71756428D01*
X29541904Y-71756428D01*
X29637142Y-71804047D01*
X29684761Y-71851666D01*
X29732380Y-71946904D01*
X29732380Y-72232619D01*
X29684761Y-72327857D01*
X29637142Y-72375476D01*
X29684761Y-71280238D02*
X29732380Y-71280238D01*
X29827619Y-71327857D01*
X29875238Y-71375476D01*
X29732380Y-70804047D02*
X29732380Y-70613571D01*
X29684761Y-70518333D01*
X29637142Y-70470714D01*
X29494285Y-70375476D01*
X29303809Y-70327857D01*
X28922857Y-70327857D01*
X28827619Y-70375476D01*
X28780000Y-70423095D01*
X28732380Y-70518333D01*
X28732380Y-70708809D01*
X28780000Y-70804047D01*
X28827619Y-70851666D01*
X28922857Y-70899285D01*
X29160952Y-70899285D01*
X29256190Y-70851666D01*
X29303809Y-70804047D01*
X29351428Y-70708809D01*
X29351428Y-70518333D01*
X29303809Y-70423095D01*
X29256190Y-70375476D01*
X29160952Y-70327857D01*
X29732380Y-69851666D02*
X29732380Y-69661190D01*
X29684761Y-69565952D01*
X29637142Y-69518333D01*
X29494285Y-69423095D01*
X29303809Y-69375476D01*
X28922857Y-69375476D01*
X28827619Y-69423095D01*
X28780000Y-69470714D01*
X28732380Y-69565952D01*
X28732380Y-69756428D01*
X28780000Y-69851666D01*
X28827619Y-69899285D01*
X28922857Y-69946904D01*
X29160952Y-69946904D01*
X29256190Y-69899285D01*
X29303809Y-69851666D01*
X29351428Y-69756428D01*
X29351428Y-69565952D01*
X29303809Y-69470714D01*
X29256190Y-69423095D01*
X29160952Y-69375476D01*
X28732380Y-68756428D02*
X28732380Y-68661190D01*
X28780000Y-68565952D01*
X28827619Y-68518333D01*
X28922857Y-68470714D01*
X29113333Y-68423095D01*
X29351428Y-68423095D01*
X29541904Y-68470714D01*
X29637142Y-68518333D01*
X29684761Y-68565952D01*
X29732380Y-68661190D01*
X29732380Y-68756428D01*
X29684761Y-68851666D01*
X29637142Y-68899285D01*
X29541904Y-68946904D01*
X29351428Y-68994523D01*
X29113333Y-68994523D01*
X28922857Y-68946904D01*
X28827619Y-68899285D01*
X28780000Y-68851666D01*
X28732380Y-68756428D01*
X28732380Y-67804047D02*
X28732380Y-67708809D01*
X28780000Y-67613571D01*
X28827619Y-67565952D01*
X28922857Y-67518333D01*
X29113333Y-67470714D01*
X29351428Y-67470714D01*
X29541904Y-67518333D01*
X29637142Y-67565952D01*
X29684761Y-67613571D01*
X29732380Y-67708809D01*
X29732380Y-67804047D01*
X29684761Y-67899285D01*
X29637142Y-67946904D01*
X29541904Y-67994523D01*
X29351428Y-68042142D01*
X29113333Y-68042142D01*
X28922857Y-67994523D01*
X28827619Y-67946904D01*
X28780000Y-67899285D01*
X28732380Y-67804047D01*
X29732380Y-66280238D02*
X29065714Y-66280238D01*
X29160952Y-66280238D02*
X29113333Y-66232619D01*
X29065714Y-66137380D01*
X29065714Y-65994523D01*
X29113333Y-65899285D01*
X29208571Y-65851666D01*
X29732380Y-65851666D01*
X29208571Y-65851666D02*
X29113333Y-65804047D01*
X29065714Y-65708809D01*
X29065714Y-65565952D01*
X29113333Y-65470714D01*
X29208571Y-65423095D01*
X29732380Y-65423095D01*
X29732380Y-64946904D02*
X29065714Y-64946904D01*
X29160952Y-64946904D02*
X29113333Y-64899285D01*
X29065714Y-64804047D01*
X29065714Y-64661190D01*
X29113333Y-64565952D01*
X29208571Y-64518333D01*
X29732380Y-64518333D01*
X29208571Y-64518333D02*
X29113333Y-64470714D01*
X29065714Y-64375476D01*
X29065714Y-64232619D01*
X29113333Y-64137380D01*
X29208571Y-64089761D01*
X29732380Y-64089761D01*
D10*
X36260000Y-70180000D02*
X29843580Y-70180000D01*
X36260000Y-66190000D02*
X29843580Y-66190000D01*
X30430000Y-70180000D02*
X30430000Y-66190000D01*
X30430000Y-70180000D02*
X30430000Y-66190000D01*
X30430000Y-70180000D02*
X31016421Y-69053496D01*
X30430000Y-70180000D02*
X29843579Y-69053496D01*
X30430000Y-66190000D02*
X29843579Y-67316504D01*
X30430000Y-66190000D02*
X31016421Y-67316504D01*
D11*
X73973333Y-70975714D02*
X73973333Y-71642380D01*
X73735238Y-70594761D02*
X73497142Y-71309047D01*
X74116190Y-71309047D01*
X74544761Y-71594761D02*
X74544761Y-71642380D01*
X74497142Y-71737619D01*
X74449523Y-71785238D01*
X75163809Y-70642380D02*
X75259047Y-70642380D01*
X75354285Y-70690000D01*
X75401904Y-70737619D01*
X75449523Y-70832857D01*
X75497142Y-71023333D01*
X75497142Y-71261428D01*
X75449523Y-71451904D01*
X75401904Y-71547142D01*
X75354285Y-71594761D01*
X75259047Y-71642380D01*
X75163809Y-71642380D01*
X75068571Y-71594761D01*
X75020952Y-71547142D01*
X74973333Y-71451904D01*
X74925714Y-71261428D01*
X74925714Y-71023333D01*
X74973333Y-70832857D01*
X75020952Y-70737619D01*
X75068571Y-70690000D01*
X75163809Y-70642380D01*
X76116190Y-70642380D02*
X76211428Y-70642380D01*
X76306666Y-70690000D01*
X76354285Y-70737619D01*
X76401904Y-70832857D01*
X76449523Y-71023333D01*
X76449523Y-71261428D01*
X76401904Y-71451904D01*
X76354285Y-71547142D01*
X76306666Y-71594761D01*
X76211428Y-71642380D01*
X76116190Y-71642380D01*
X76020952Y-71594761D01*
X75973333Y-71547142D01*
X75925714Y-71451904D01*
X75878095Y-71261428D01*
X75878095Y-71023333D01*
X75925714Y-70832857D01*
X75973333Y-70737619D01*
X76020952Y-70690000D01*
X76116190Y-70642380D01*
X77068571Y-70642380D02*
X77163809Y-70642380D01*
X77259047Y-70690000D01*
X77306666Y-70737619D01*
X77354285Y-70832857D01*
X77401904Y-71023333D01*
X77401904Y-71261428D01*
X77354285Y-71451904D01*
X77306666Y-71547142D01*
X77259047Y-71594761D01*
X77163809Y-71642380D01*
X77068571Y-71642380D01*
X76973333Y-71594761D01*
X76925714Y-71547142D01*
X76878095Y-71451904D01*
X76830476Y-71261428D01*
X76830476Y-71023333D01*
X76878095Y-70832857D01*
X76925714Y-70737619D01*
X76973333Y-70690000D01*
X77068571Y-70642380D01*
X78020952Y-70642380D02*
X78116190Y-70642380D01*
X78211428Y-70690000D01*
X78259047Y-70737619D01*
X78306666Y-70832857D01*
X78354285Y-71023333D01*
X78354285Y-71261428D01*
X78306666Y-71451904D01*
X78259047Y-71547142D01*
X78211428Y-71594761D01*
X78116190Y-71642380D01*
X78020952Y-71642380D01*
X77925714Y-71594761D01*
X77878095Y-71547142D01*
X77830476Y-71451904D01*
X77782857Y-71261428D01*
X77782857Y-71023333D01*
X77830476Y-70832857D01*
X77878095Y-70737619D01*
X77925714Y-70690000D01*
X78020952Y-70642380D01*
X79544761Y-71642380D02*
X79544761Y-70975714D01*
X79544761Y-71070952D02*
X79592380Y-71023333D01*
X79687619Y-70975714D01*
X79830476Y-70975714D01*
X79925714Y-71023333D01*
X79973333Y-71118571D01*
X79973333Y-71642380D01*
X79973333Y-71118571D02*
X80020952Y-71023333D01*
X80116190Y-70975714D01*
X80259047Y-70975714D01*
X80354285Y-71023333D01*
X80401904Y-71118571D01*
X80401904Y-71642380D01*
X80878095Y-71642380D02*
X80878095Y-70975714D01*
X80878095Y-71070952D02*
X80925714Y-71023333D01*
X81020952Y-70975714D01*
X81163809Y-70975714D01*
X81259047Y-71023333D01*
X81306666Y-71118571D01*
X81306666Y-71642380D01*
X81306666Y-71118571D02*
X81354285Y-71023333D01*
X81449523Y-70975714D01*
X81592380Y-70975714D01*
X81687619Y-71023333D01*
X81735238Y-71118571D01*
X81735238Y-71642380D01*
D10*
X79640000Y-70680000D02*
X79640000Y-72926420D01*
X75640000Y-70680000D02*
X75640000Y-72926420D01*
X79640000Y-72340000D02*
X75640000Y-72340000D01*
X79640000Y-72340000D02*
X75640000Y-72340000D01*
X79640000Y-72340000D02*
X78513496Y-71753579D01*
X79640000Y-72340000D02*
X78513496Y-72926421D01*
X75640000Y-72340000D02*
X76766504Y-72926421D01*
X75640000Y-72340000D02*
X76766504Y-71753579D01*
D11*
X29205714Y-40866666D02*
X29872380Y-40866666D01*
X28824761Y-41104761D02*
X29539047Y-41342857D01*
X29539047Y-40723809D01*
X29824761Y-40295238D02*
X29872380Y-40295238D01*
X29967619Y-40342857D01*
X30015238Y-40390476D01*
X28872380Y-39676190D02*
X28872380Y-39580952D01*
X28920000Y-39485714D01*
X28967619Y-39438095D01*
X29062857Y-39390476D01*
X29253333Y-39342857D01*
X29491428Y-39342857D01*
X29681904Y-39390476D01*
X29777142Y-39438095D01*
X29824761Y-39485714D01*
X29872380Y-39580952D01*
X29872380Y-39676190D01*
X29824761Y-39771428D01*
X29777142Y-39819047D01*
X29681904Y-39866666D01*
X29491428Y-39914285D01*
X29253333Y-39914285D01*
X29062857Y-39866666D01*
X28967619Y-39819047D01*
X28920000Y-39771428D01*
X28872380Y-39676190D01*
X28872380Y-38723809D02*
X28872380Y-38628571D01*
X28920000Y-38533333D01*
X28967619Y-38485714D01*
X29062857Y-38438095D01*
X29253333Y-38390476D01*
X29491428Y-38390476D01*
X29681904Y-38438095D01*
X29777142Y-38485714D01*
X29824761Y-38533333D01*
X29872380Y-38628571D01*
X29872380Y-38723809D01*
X29824761Y-38819047D01*
X29777142Y-38866666D01*
X29681904Y-38914285D01*
X29491428Y-38961904D01*
X29253333Y-38961904D01*
X29062857Y-38914285D01*
X28967619Y-38866666D01*
X28920000Y-38819047D01*
X28872380Y-38723809D01*
X28872380Y-37771428D02*
X28872380Y-37676190D01*
X28920000Y-37580952D01*
X28967619Y-37533333D01*
X29062857Y-37485714D01*
X29253333Y-37438095D01*
X29491428Y-37438095D01*
X29681904Y-37485714D01*
X29777142Y-37533333D01*
X29824761Y-37580952D01*
X29872380Y-37676190D01*
X29872380Y-37771428D01*
X29824761Y-37866666D01*
X29777142Y-37914285D01*
X29681904Y-37961904D01*
X29491428Y-38009523D01*
X29253333Y-38009523D01*
X29062857Y-37961904D01*
X28967619Y-37914285D01*
X28920000Y-37866666D01*
X28872380Y-37771428D01*
X28872380Y-36819047D02*
X28872380Y-36723809D01*
X28920000Y-36628571D01*
X28967619Y-36580952D01*
X29062857Y-36533333D01*
X29253333Y-36485714D01*
X29491428Y-36485714D01*
X29681904Y-36533333D01*
X29777142Y-36580952D01*
X29824761Y-36628571D01*
X29872380Y-36723809D01*
X29872380Y-36819047D01*
X29824761Y-36914285D01*
X29777142Y-36961904D01*
X29681904Y-37009523D01*
X29491428Y-37057142D01*
X29253333Y-37057142D01*
X29062857Y-37009523D01*
X28967619Y-36961904D01*
X28920000Y-36914285D01*
X28872380Y-36819047D01*
X29872380Y-35295238D02*
X29205714Y-35295238D01*
X29300952Y-35295238D02*
X29253333Y-35247619D01*
X29205714Y-35152380D01*
X29205714Y-35009523D01*
X29253333Y-34914285D01*
X29348571Y-34866666D01*
X29872380Y-34866666D01*
X29348571Y-34866666D02*
X29253333Y-34819047D01*
X29205714Y-34723809D01*
X29205714Y-34580952D01*
X29253333Y-34485714D01*
X29348571Y-34438095D01*
X29872380Y-34438095D01*
X29872380Y-33961904D02*
X29205714Y-33961904D01*
X29300952Y-33961904D02*
X29253333Y-33914285D01*
X29205714Y-33819047D01*
X29205714Y-33676190D01*
X29253333Y-33580952D01*
X29348571Y-33533333D01*
X29872380Y-33533333D01*
X29348571Y-33533333D02*
X29253333Y-33485714D01*
X29205714Y-33390476D01*
X29205714Y-33247619D01*
X29253333Y-33152380D01*
X29348571Y-33104761D01*
X29872380Y-33104761D01*
D10*
X36250000Y-35200000D02*
X29983580Y-35200000D01*
X36250000Y-39200000D02*
X29983580Y-39200000D01*
X30570000Y-35200000D02*
X30570000Y-39200000D01*
X30570000Y-35200000D02*
X30570000Y-39200000D01*
X30570000Y-35200000D02*
X29983579Y-36326504D01*
X30570000Y-35200000D02*
X31156421Y-36326504D01*
X30570000Y-39200000D02*
X31156421Y-38073496D01*
X30570000Y-39200000D02*
X29983579Y-38073496D01*
D11*
X35083333Y-27585714D02*
X35083333Y-28252380D01*
X34845238Y-27204761D02*
X34607142Y-27919047D01*
X35226190Y-27919047D01*
X35654761Y-28204761D02*
X35654761Y-28252380D01*
X35607142Y-28347619D01*
X35559523Y-28395238D01*
X36273809Y-27252380D02*
X36369047Y-27252380D01*
X36464285Y-27300000D01*
X36511904Y-27347619D01*
X36559523Y-27442857D01*
X36607142Y-27633333D01*
X36607142Y-27871428D01*
X36559523Y-28061904D01*
X36511904Y-28157142D01*
X36464285Y-28204761D01*
X36369047Y-28252380D01*
X36273809Y-28252380D01*
X36178571Y-28204761D01*
X36130952Y-28157142D01*
X36083333Y-28061904D01*
X36035714Y-27871428D01*
X36035714Y-27633333D01*
X36083333Y-27442857D01*
X36130952Y-27347619D01*
X36178571Y-27300000D01*
X36273809Y-27252380D01*
X37226190Y-27252380D02*
X37321428Y-27252380D01*
X37416666Y-27300000D01*
X37464285Y-27347619D01*
X37511904Y-27442857D01*
X37559523Y-27633333D01*
X37559523Y-27871428D01*
X37511904Y-28061904D01*
X37464285Y-28157142D01*
X37416666Y-28204761D01*
X37321428Y-28252380D01*
X37226190Y-28252380D01*
X37130952Y-28204761D01*
X37083333Y-28157142D01*
X37035714Y-28061904D01*
X36988095Y-27871428D01*
X36988095Y-27633333D01*
X37035714Y-27442857D01*
X37083333Y-27347619D01*
X37130952Y-27300000D01*
X37226190Y-27252380D01*
X38178571Y-27252380D02*
X38273809Y-27252380D01*
X38369047Y-27300000D01*
X38416666Y-27347619D01*
X38464285Y-27442857D01*
X38511904Y-27633333D01*
X38511904Y-27871428D01*
X38464285Y-28061904D01*
X38416666Y-28157142D01*
X38369047Y-28204761D01*
X38273809Y-28252380D01*
X38178571Y-28252380D01*
X38083333Y-28204761D01*
X38035714Y-28157142D01*
X37988095Y-28061904D01*
X37940476Y-27871428D01*
X37940476Y-27633333D01*
X37988095Y-27442857D01*
X38035714Y-27347619D01*
X38083333Y-27300000D01*
X38178571Y-27252380D01*
X39130952Y-27252380D02*
X39226190Y-27252380D01*
X39321428Y-27300000D01*
X39369047Y-27347619D01*
X39416666Y-27442857D01*
X39464285Y-27633333D01*
X39464285Y-27871428D01*
X39416666Y-28061904D01*
X39369047Y-28157142D01*
X39321428Y-28204761D01*
X39226190Y-28252380D01*
X39130952Y-28252380D01*
X39035714Y-28204761D01*
X38988095Y-28157142D01*
X38940476Y-28061904D01*
X38892857Y-27871428D01*
X38892857Y-27633333D01*
X38940476Y-27442857D01*
X38988095Y-27347619D01*
X39035714Y-27300000D01*
X39130952Y-27252380D01*
X40654761Y-28252380D02*
X40654761Y-27585714D01*
X40654761Y-27680952D02*
X40702380Y-27633333D01*
X40797619Y-27585714D01*
X40940476Y-27585714D01*
X41035714Y-27633333D01*
X41083333Y-27728571D01*
X41083333Y-28252380D01*
X41083333Y-27728571D02*
X41130952Y-27633333D01*
X41226190Y-27585714D01*
X41369047Y-27585714D01*
X41464285Y-27633333D01*
X41511904Y-27728571D01*
X41511904Y-28252380D01*
X41988095Y-28252380D02*
X41988095Y-27585714D01*
X41988095Y-27680952D02*
X42035714Y-27633333D01*
X42130952Y-27585714D01*
X42273809Y-27585714D01*
X42369047Y-27633333D01*
X42416666Y-27728571D01*
X42416666Y-28252380D01*
X42416666Y-27728571D02*
X42464285Y-27633333D01*
X42559523Y-27585714D01*
X42702380Y-27585714D01*
X42797619Y-27633333D01*
X42845238Y-27728571D01*
X42845238Y-28252380D01*
D10*
X36750000Y-34660000D02*
X36750000Y-28363580D01*
X40750000Y-34660000D02*
X40750000Y-28363580D01*
X36750000Y-28950000D02*
X40750000Y-28950000D01*
X36750000Y-28950000D02*
X40750000Y-28950000D01*
X36750000Y-28950000D02*
X37876504Y-29536421D01*
X36750000Y-28950000D02*
X37876504Y-28363579D01*
X40750000Y-28950000D02*
X39623496Y-28363579D01*
X40750000Y-28950000D02*
X39623496Y-29536421D01*
D11*
X54079275Y-31043576D02*
X54079740Y-31710242D01*
X53840913Y-30662790D02*
X53603317Y-31377242D01*
X54222365Y-31376809D01*
X54555299Y-30805148D02*
X54602884Y-30757496D01*
X54698089Y-30709810D01*
X54936184Y-30709644D01*
X55031456Y-30757196D01*
X55079108Y-30804782D01*
X55126794Y-30899987D01*
X55126860Y-30995225D01*
X55079341Y-31138115D01*
X54508312Y-31709943D01*
X55127359Y-31709510D01*
X55603516Y-31661559D02*
X55603550Y-31709178D01*
X55555997Y-31804449D01*
X55508411Y-31852101D01*
X56079740Y-31708845D02*
X56270216Y-31708712D01*
X56365421Y-31661026D01*
X56413007Y-31613374D01*
X56508145Y-31470450D01*
X56555631Y-31279941D01*
X56555365Y-30898988D01*
X56507679Y-30803784D01*
X56460027Y-30756198D01*
X56364755Y-30708645D01*
X56174279Y-30708778D01*
X56079074Y-30756464D01*
X56031489Y-30804116D01*
X55983936Y-30899388D01*
X55984103Y-31137483D01*
X56031788Y-31232688D01*
X56079441Y-31280273D01*
X56174712Y-31327826D01*
X56365188Y-31327693D01*
X56460393Y-31280007D01*
X56507979Y-31232355D01*
X56555531Y-31137084D01*
X56888565Y-30708279D02*
X57507612Y-30707847D01*
X57174545Y-31089032D01*
X57317402Y-31088932D01*
X57412674Y-31136485D01*
X57460326Y-31184070D01*
X57508012Y-31279275D01*
X57508178Y-31517370D01*
X57460625Y-31612642D01*
X57413040Y-31660294D01*
X57317835Y-31707980D01*
X57032121Y-31708179D01*
X56936849Y-31660627D01*
X56889197Y-31613041D01*
X58126660Y-30707414D02*
X58221898Y-30707348D01*
X58317169Y-30754900D01*
X58364821Y-30802486D01*
X58412507Y-30897691D01*
X58460259Y-31088133D01*
X58460426Y-31326229D01*
X58412940Y-31516738D01*
X58365387Y-31612009D01*
X58317801Y-31659662D01*
X58222597Y-31707347D01*
X58127359Y-31707414D01*
X58032087Y-31659861D01*
X57984435Y-31612276D01*
X57936749Y-31517071D01*
X57888997Y-31326628D01*
X57888831Y-31088533D01*
X57936317Y-30898023D01*
X57983869Y-30802752D01*
X58031455Y-30755100D01*
X58126660Y-30707414D01*
X59079040Y-30706749D02*
X59174279Y-30706682D01*
X59269550Y-30754235D01*
X59317202Y-30801820D01*
X59364888Y-30897025D01*
X59412640Y-31087468D01*
X59412806Y-31325563D01*
X59365320Y-31516073D01*
X59317768Y-31611344D01*
X59270182Y-31658996D01*
X59174977Y-31706682D01*
X59079739Y-31706748D01*
X58984468Y-31659196D01*
X58936816Y-31611610D01*
X58889130Y-31516405D01*
X58841378Y-31325962D01*
X58841211Y-31087867D01*
X58888697Y-30897358D01*
X58936250Y-30802087D01*
X58983836Y-30754434D01*
X59079040Y-30706749D01*
X60603548Y-31705684D02*
X60603083Y-31039017D01*
X60603149Y-31134255D02*
X60650735Y-31086603D01*
X60745940Y-31038917D01*
X60888797Y-31038817D01*
X60984068Y-31086370D01*
X61031754Y-31181575D01*
X61032120Y-31705384D01*
X61031754Y-31181575D02*
X61079306Y-31086303D01*
X61174511Y-31038618D01*
X61317368Y-31038518D01*
X61412639Y-31086070D01*
X61460325Y-31181275D01*
X61460691Y-31705085D01*
X61936881Y-31704752D02*
X61936416Y-31038085D01*
X61936482Y-31133323D02*
X61984068Y-31085671D01*
X62079273Y-31037985D01*
X62222130Y-31037886D01*
X62317401Y-31085438D01*
X62365087Y-31180643D01*
X62365453Y-31704452D01*
X62365087Y-31180643D02*
X62412639Y-31085372D01*
X62507844Y-31037686D01*
X62650701Y-31037586D01*
X62745972Y-31085139D01*
X62793658Y-31180343D01*
X62794024Y-31704153D01*
D10*
X36759651Y-34660000D02*
X36757676Y-31833547D01*
X79689651Y-34630000D02*
X79687676Y-31803547D01*
X36758085Y-32419967D02*
X79688085Y-32389967D01*
X36758085Y-32419967D02*
X79688085Y-32389967D01*
X36758085Y-32419967D02*
X37884998Y-33005600D01*
X36758085Y-32419967D02*
X37884179Y-31832759D01*
X79688085Y-32389967D02*
X78561172Y-31804334D01*
X79688085Y-32389967D02*
X78561991Y-32977175D01*
D11*
X31492380Y-57336666D02*
X31492380Y-56717619D01*
X31873333Y-57050952D01*
X31873333Y-56908095D01*
X31920952Y-56812857D01*
X31968571Y-56765238D01*
X32063809Y-56717619D01*
X32301904Y-56717619D01*
X32397142Y-56765238D01*
X32444761Y-56812857D01*
X32492380Y-56908095D01*
X32492380Y-57193809D01*
X32444761Y-57289047D01*
X32397142Y-57336666D01*
X31492380Y-55812857D02*
X31492380Y-56289047D01*
X31968571Y-56336666D01*
X31920952Y-56289047D01*
X31873333Y-56193809D01*
X31873333Y-55955714D01*
X31920952Y-55860476D01*
X31968571Y-55812857D01*
X32063809Y-55765238D01*
X32301904Y-55765238D01*
X32397142Y-55812857D01*
X32444761Y-55860476D01*
X32492380Y-55955714D01*
X32492380Y-56193809D01*
X32444761Y-56289047D01*
X32397142Y-56336666D01*
X32444761Y-55289047D02*
X32492380Y-55289047D01*
X32587619Y-55336666D01*
X32635238Y-55384285D01*
X31492380Y-54670000D02*
X31492380Y-54574761D01*
X31540000Y-54479523D01*
X31587619Y-54431904D01*
X31682857Y-54384285D01*
X31873333Y-54336666D01*
X32111428Y-54336666D01*
X32301904Y-54384285D01*
X32397142Y-54431904D01*
X32444761Y-54479523D01*
X32492380Y-54574761D01*
X32492380Y-54670000D01*
X32444761Y-54765238D01*
X32397142Y-54812857D01*
X32301904Y-54860476D01*
X32111428Y-54908095D01*
X31873333Y-54908095D01*
X31682857Y-54860476D01*
X31587619Y-54812857D01*
X31540000Y-54765238D01*
X31492380Y-54670000D01*
X31587619Y-53955714D02*
X31540000Y-53908095D01*
X31492380Y-53812857D01*
X31492380Y-53574761D01*
X31540000Y-53479523D01*
X31587619Y-53431904D01*
X31682857Y-53384285D01*
X31778095Y-53384285D01*
X31920952Y-53431904D01*
X32492380Y-54003333D01*
X32492380Y-53384285D01*
X31492380Y-52765238D02*
X31492380Y-52670000D01*
X31540000Y-52574761D01*
X31587619Y-52527142D01*
X31682857Y-52479523D01*
X31873333Y-52431904D01*
X32111428Y-52431904D01*
X32301904Y-52479523D01*
X32397142Y-52527142D01*
X32444761Y-52574761D01*
X32492380Y-52670000D01*
X32492380Y-52765238D01*
X32444761Y-52860476D01*
X32397142Y-52908095D01*
X32301904Y-52955714D01*
X32111428Y-53003333D01*
X31873333Y-53003333D01*
X31682857Y-52955714D01*
X31587619Y-52908095D01*
X31540000Y-52860476D01*
X31492380Y-52765238D01*
X31492380Y-51812857D02*
X31492380Y-51717619D01*
X31540000Y-51622380D01*
X31587619Y-51574761D01*
X31682857Y-51527142D01*
X31873333Y-51479523D01*
X32111428Y-51479523D01*
X32301904Y-51527142D01*
X32397142Y-51574761D01*
X32444761Y-51622380D01*
X32492380Y-51717619D01*
X32492380Y-51812857D01*
X32444761Y-51908095D01*
X32397142Y-51955714D01*
X32301904Y-52003333D01*
X32111428Y-52050952D01*
X31873333Y-52050952D01*
X31682857Y-52003333D01*
X31587619Y-51955714D01*
X31540000Y-51908095D01*
X31492380Y-51812857D01*
X32492380Y-50289047D02*
X31825714Y-50289047D01*
X31920952Y-50289047D02*
X31873333Y-50241428D01*
X31825714Y-50146190D01*
X31825714Y-50003333D01*
X31873333Y-49908095D01*
X31968571Y-49860476D01*
X32492380Y-49860476D01*
X31968571Y-49860476D02*
X31873333Y-49812857D01*
X31825714Y-49717619D01*
X31825714Y-49574761D01*
X31873333Y-49479523D01*
X31968571Y-49431904D01*
X32492380Y-49431904D01*
X32492380Y-48955714D02*
X31825714Y-48955714D01*
X31920952Y-48955714D02*
X31873333Y-48908095D01*
X31825714Y-48812857D01*
X31825714Y-48670000D01*
X31873333Y-48574761D01*
X31968571Y-48527142D01*
X32492380Y-48527142D01*
X31968571Y-48527142D02*
X31873333Y-48479523D01*
X31825714Y-48384285D01*
X31825714Y-48241428D01*
X31873333Y-48146190D01*
X31968571Y-48098571D01*
X32492380Y-48098571D01*
D10*
X36260000Y-35160000D02*
X32603580Y-35160000D01*
X36260000Y-70180000D02*
X32603580Y-70180000D01*
X33190000Y-35160000D02*
X33190000Y-70180000D01*
X33190000Y-35160000D02*
X33190000Y-70180000D01*
X33190000Y-35160000D02*
X32603579Y-36286504D01*
X33190000Y-35160000D02*
X33776421Y-36286504D01*
X33190000Y-70180000D02*
X33776421Y-69053496D01*
X33190000Y-70180000D02*
X32603579Y-69053496D01*
D11*
X57480547Y-26499203D02*
X58099594Y-26500087D01*
X57765717Y-26880563D01*
X57908574Y-26880767D01*
X58003744Y-26928522D01*
X58051295Y-26976209D01*
X58098778Y-27071515D01*
X58098438Y-27309610D01*
X58050683Y-27404780D01*
X58002996Y-27452331D01*
X57907690Y-27499814D01*
X57621976Y-27499406D01*
X57526806Y-27451651D01*
X57479255Y-27403964D01*
X59004355Y-26501380D02*
X58528165Y-26500699D01*
X58479866Y-26976821D01*
X58527553Y-26929270D01*
X58622859Y-26881787D01*
X58860954Y-26882127D01*
X58956124Y-26929882D01*
X59003675Y-26977569D01*
X59051158Y-27072875D01*
X59050818Y-27310970D01*
X59003063Y-27406140D01*
X58955375Y-27453691D01*
X58860069Y-27501174D01*
X58621974Y-27500834D01*
X58526805Y-27453079D01*
X58479254Y-27405392D01*
X59526803Y-27454508D02*
X59526735Y-27502127D01*
X59478980Y-27597297D01*
X59431293Y-27644848D01*
X60147211Y-26503012D02*
X60242449Y-26503148D01*
X60337619Y-26550903D01*
X60385170Y-26598590D01*
X60432653Y-26693896D01*
X60480000Y-26884440D01*
X60479660Y-27122535D01*
X60431768Y-27312943D01*
X60384013Y-27408113D01*
X60336326Y-27455664D01*
X60241020Y-27503147D01*
X60145782Y-27503011D01*
X60050612Y-27455256D01*
X60003061Y-27407569D01*
X59955579Y-27312263D01*
X59908232Y-27121719D01*
X59908572Y-26883624D01*
X59956463Y-26693216D01*
X60004218Y-26598046D01*
X60051905Y-26550495D01*
X60147211Y-26503012D01*
X61431495Y-27504847D02*
X60860067Y-27504031D01*
X61145781Y-27504439D02*
X61147210Y-26504440D01*
X61051768Y-26647161D01*
X60956394Y-26742263D01*
X60861088Y-26789746D01*
X62051971Y-26505732D02*
X62147209Y-26505868D01*
X62242379Y-26553623D01*
X62289930Y-26601310D01*
X62337413Y-26696616D01*
X62384760Y-26887160D01*
X62384419Y-27125255D01*
X62336528Y-27315663D01*
X62288773Y-27410833D01*
X62241086Y-27458384D01*
X62145780Y-27505867D01*
X62050542Y-27505731D01*
X61955372Y-27457976D01*
X61907821Y-27410289D01*
X61860338Y-27314983D01*
X61812991Y-27124439D01*
X61813332Y-26886344D01*
X61861223Y-26695936D01*
X61908978Y-26600766D01*
X61956665Y-26553215D01*
X62051971Y-26505732D01*
X63004351Y-26507092D02*
X63099589Y-26507228D01*
X63194759Y-26554983D01*
X63242310Y-26602670D01*
X63289793Y-26697976D01*
X63337140Y-26888520D01*
X63336799Y-27126615D01*
X63288908Y-27317023D01*
X63241153Y-27412193D01*
X63193466Y-27459744D01*
X63098160Y-27507227D01*
X63002922Y-27507091D01*
X62907752Y-27459336D01*
X62860201Y-27411649D01*
X62812718Y-27316343D01*
X62765371Y-27125799D01*
X62765712Y-26887704D01*
X62813603Y-26697296D01*
X62861358Y-26602126D01*
X62909045Y-26554575D01*
X63004351Y-26507092D01*
X64526730Y-27509267D02*
X64527682Y-26842601D01*
X64527546Y-26937839D02*
X64575233Y-26890288D01*
X64670539Y-26842805D01*
X64813396Y-26843009D01*
X64908566Y-26890764D01*
X64956049Y-26986070D01*
X64955301Y-27509879D01*
X64956049Y-26986070D02*
X65003804Y-26890900D01*
X65099110Y-26843417D01*
X65241967Y-26843622D01*
X65337137Y-26891377D01*
X65384620Y-26986683D01*
X65383872Y-27510492D01*
X65860062Y-27511172D02*
X65861014Y-26844506D01*
X65860878Y-26939744D02*
X65908565Y-26892193D01*
X66003871Y-26844710D01*
X66146728Y-26844914D01*
X66241898Y-26892669D01*
X66289381Y-26987975D01*
X66288633Y-27511784D01*
X66289381Y-26987975D02*
X66337136Y-26892805D01*
X66432442Y-26845322D01*
X66575299Y-26845526D01*
X66670469Y-26893281D01*
X66717952Y-26988587D01*
X66717204Y-27512396D01*
D10*
X79640714Y-34580001D02*
X79650623Y-27642067D01*
X44630714Y-34530001D02*
X44640623Y-27592067D01*
X79649785Y-28228486D02*
X44639785Y-28178486D01*
X79649785Y-28228486D02*
X44639785Y-28178486D01*
X79649785Y-28228486D02*
X78524120Y-27640457D01*
X79649785Y-28228486D02*
X78522445Y-28813297D01*
X44639785Y-28178486D02*
X45765450Y-28766515D01*
X44639785Y-28178486D02*
X45767125Y-27593675D01*
D11*
X82555714Y-71876666D02*
X83222380Y-71876666D01*
X82174761Y-72114761D02*
X82889047Y-72352857D01*
X82889047Y-71733809D01*
X83174761Y-71305238D02*
X83222380Y-71305238D01*
X83317619Y-71352857D01*
X83365238Y-71400476D01*
X82222380Y-70686190D02*
X82222380Y-70590952D01*
X82270000Y-70495714D01*
X82317619Y-70448095D01*
X82412857Y-70400476D01*
X82603333Y-70352857D01*
X82841428Y-70352857D01*
X83031904Y-70400476D01*
X83127142Y-70448095D01*
X83174761Y-70495714D01*
X83222380Y-70590952D01*
X83222380Y-70686190D01*
X83174761Y-70781428D01*
X83127142Y-70829047D01*
X83031904Y-70876666D01*
X82841428Y-70924285D01*
X82603333Y-70924285D01*
X82412857Y-70876666D01*
X82317619Y-70829047D01*
X82270000Y-70781428D01*
X82222380Y-70686190D01*
X82222380Y-69733809D02*
X82222380Y-69638571D01*
X82270000Y-69543333D01*
X82317619Y-69495714D01*
X82412857Y-69448095D01*
X82603333Y-69400476D01*
X82841428Y-69400476D01*
X83031904Y-69448095D01*
X83127142Y-69495714D01*
X83174761Y-69543333D01*
X83222380Y-69638571D01*
X83222380Y-69733809D01*
X83174761Y-69829047D01*
X83127142Y-69876666D01*
X83031904Y-69924285D01*
X82841428Y-69971904D01*
X82603333Y-69971904D01*
X82412857Y-69924285D01*
X82317619Y-69876666D01*
X82270000Y-69829047D01*
X82222380Y-69733809D01*
X82222380Y-68781428D02*
X82222380Y-68686190D01*
X82270000Y-68590952D01*
X82317619Y-68543333D01*
X82412857Y-68495714D01*
X82603333Y-68448095D01*
X82841428Y-68448095D01*
X83031904Y-68495714D01*
X83127142Y-68543333D01*
X83174761Y-68590952D01*
X83222380Y-68686190D01*
X83222380Y-68781428D01*
X83174761Y-68876666D01*
X83127142Y-68924285D01*
X83031904Y-68971904D01*
X82841428Y-69019523D01*
X82603333Y-69019523D01*
X82412857Y-68971904D01*
X82317619Y-68924285D01*
X82270000Y-68876666D01*
X82222380Y-68781428D01*
X82222380Y-67829047D02*
X82222380Y-67733809D01*
X82270000Y-67638571D01*
X82317619Y-67590952D01*
X82412857Y-67543333D01*
X82603333Y-67495714D01*
X82841428Y-67495714D01*
X83031904Y-67543333D01*
X83127142Y-67590952D01*
X83174761Y-67638571D01*
X83222380Y-67733809D01*
X83222380Y-67829047D01*
X83174761Y-67924285D01*
X83127142Y-67971904D01*
X83031904Y-68019523D01*
X82841428Y-68067142D01*
X82603333Y-68067142D01*
X82412857Y-68019523D01*
X82317619Y-67971904D01*
X82270000Y-67924285D01*
X82222380Y-67829047D01*
X83222380Y-66305238D02*
X82555714Y-66305238D01*
X82650952Y-66305238D02*
X82603333Y-66257619D01*
X82555714Y-66162380D01*
X82555714Y-66019523D01*
X82603333Y-65924285D01*
X82698571Y-65876666D01*
X83222380Y-65876666D01*
X82698571Y-65876666D02*
X82603333Y-65829047D01*
X82555714Y-65733809D01*
X82555714Y-65590952D01*
X82603333Y-65495714D01*
X82698571Y-65448095D01*
X83222380Y-65448095D01*
X83222380Y-64971904D02*
X82555714Y-64971904D01*
X82650952Y-64971904D02*
X82603333Y-64924285D01*
X82555714Y-64829047D01*
X82555714Y-64686190D01*
X82603333Y-64590952D01*
X82698571Y-64543333D01*
X83222380Y-64543333D01*
X82698571Y-64543333D02*
X82603333Y-64495714D01*
X82555714Y-64400476D01*
X82555714Y-64257619D01*
X82603333Y-64162380D01*
X82698571Y-64114761D01*
X83222380Y-64114761D01*
D10*
X80150000Y-70210000D02*
X84506420Y-70210000D01*
X80150000Y-66210000D02*
X84506420Y-66210000D01*
X83920000Y-70210000D02*
X83920000Y-66210000D01*
X83920000Y-70210000D02*
X83920000Y-66210000D01*
X83920000Y-70210000D02*
X84506421Y-69083496D01*
X83920000Y-70210000D02*
X83333579Y-69083496D01*
X83920000Y-66210000D02*
X83333579Y-67336504D01*
X83920000Y-66210000D02*
X84506421Y-67336504D01*
D11*
X85481010Y-33398732D02*
X84814345Y-33400398D01*
X85861366Y-33159685D02*
X85146487Y-32923376D01*
X85148035Y-33542422D01*
X84863393Y-33971706D02*
X84815774Y-33971825D01*
X84720417Y-33924444D01*
X84672679Y-33876944D01*
X85817318Y-34588371D02*
X85817556Y-34683609D01*
X85770176Y-34778965D01*
X85722676Y-34826703D01*
X85627557Y-34874560D01*
X85437201Y-34922655D01*
X85199106Y-34923251D01*
X85008511Y-34876108D01*
X84913155Y-34828727D01*
X84865417Y-34781227D01*
X84817560Y-34686109D01*
X84817322Y-34590871D01*
X84864702Y-34495514D01*
X84912202Y-34447776D01*
X85007321Y-34399919D01*
X85197677Y-34351824D01*
X85435772Y-34351229D01*
X85626367Y-34398371D01*
X85721723Y-34445752D01*
X85769461Y-34493252D01*
X85817318Y-34588371D01*
X85819699Y-35540749D02*
X85819937Y-35635986D01*
X85772557Y-35731343D01*
X85725057Y-35779081D01*
X85629938Y-35826938D01*
X85439581Y-35875033D01*
X85201487Y-35875629D01*
X85010892Y-35828486D01*
X84915535Y-35781105D01*
X84867798Y-35733605D01*
X84819941Y-35638486D01*
X84819702Y-35543249D01*
X84867083Y-35447892D01*
X84914583Y-35400154D01*
X85009702Y-35352297D01*
X85200058Y-35304202D01*
X85438153Y-35303607D01*
X85628748Y-35350749D01*
X85724104Y-35398130D01*
X85771842Y-35445630D01*
X85819699Y-35540749D01*
X85822080Y-36493127D02*
X85822318Y-36588364D01*
X85774938Y-36683721D01*
X85727438Y-36731459D01*
X85632319Y-36779316D01*
X85441962Y-36827411D01*
X85203868Y-36828007D01*
X85013273Y-36780864D01*
X84917916Y-36733483D01*
X84870178Y-36685983D01*
X84822321Y-36590864D01*
X84822083Y-36495627D01*
X84869464Y-36400270D01*
X84916964Y-36352532D01*
X85012083Y-36304675D01*
X85202439Y-36256580D01*
X85440534Y-36255985D01*
X85631128Y-36303127D01*
X85726485Y-36350508D01*
X85774223Y-36398008D01*
X85822080Y-36493127D01*
X85824461Y-37445505D02*
X85824699Y-37540742D01*
X85777319Y-37636099D01*
X85729819Y-37683837D01*
X85634700Y-37731694D01*
X85444343Y-37779789D01*
X85206249Y-37780385D01*
X85015654Y-37733242D01*
X84920297Y-37685861D01*
X84872559Y-37638361D01*
X84824702Y-37543242D01*
X84824464Y-37448005D01*
X84871845Y-37352648D01*
X84919345Y-37304910D01*
X85014464Y-37257053D01*
X85204820Y-37208958D01*
X85442915Y-37208363D01*
X85633509Y-37255505D01*
X85728866Y-37302886D01*
X85776604Y-37350386D01*
X85824461Y-37445505D01*
X84828274Y-38971809D02*
X85494938Y-38970143D01*
X85399701Y-38970381D02*
X85447439Y-39017881D01*
X85495296Y-39112999D01*
X85495653Y-39255856D01*
X85448272Y-39351213D01*
X85353153Y-39399070D01*
X84829345Y-39400379D01*
X85353153Y-39399070D02*
X85448510Y-39446451D01*
X85496367Y-39541570D01*
X85496724Y-39684426D01*
X85449343Y-39779783D01*
X85354225Y-39827640D01*
X84830417Y-39828950D01*
X84831607Y-40305139D02*
X85498272Y-40303472D01*
X85403034Y-40303710D02*
X85450772Y-40351210D01*
X85498629Y-40446329D01*
X85498986Y-40589185D01*
X85451605Y-40684542D01*
X85356486Y-40732399D01*
X84832679Y-40733709D01*
X85356486Y-40732399D02*
X85451843Y-40779780D01*
X85499700Y-40874899D01*
X85500057Y-41017755D01*
X85452677Y-41113112D01*
X85357558Y-41160969D01*
X84833750Y-41162279D01*
D10*
X80139998Y-35078750D02*
X84707314Y-35067332D01*
X80149998Y-39078750D02*
X84717314Y-39067332D01*
X84120896Y-35068798D02*
X84130896Y-39068798D01*
X84120896Y-35068798D02*
X84130896Y-39068798D01*
X84120896Y-35068798D02*
X83537293Y-36196764D01*
X84120896Y-35068798D02*
X84710131Y-36193832D01*
X84130896Y-39068798D02*
X84714499Y-37940832D01*
X84130896Y-39068798D02*
X83541661Y-37943764D01*
D11*
X35093333Y-70885714D02*
X35093333Y-71552380D01*
X34855238Y-70504761D02*
X34617142Y-71219047D01*
X35236190Y-71219047D01*
X35664761Y-71504761D02*
X35664761Y-71552380D01*
X35617142Y-71647619D01*
X35569523Y-71695238D01*
X36283809Y-70552380D02*
X36379047Y-70552380D01*
X36474285Y-70600000D01*
X36521904Y-70647619D01*
X36569523Y-70742857D01*
X36617142Y-70933333D01*
X36617142Y-71171428D01*
X36569523Y-71361904D01*
X36521904Y-71457142D01*
X36474285Y-71504761D01*
X36379047Y-71552380D01*
X36283809Y-71552380D01*
X36188571Y-71504761D01*
X36140952Y-71457142D01*
X36093333Y-71361904D01*
X36045714Y-71171428D01*
X36045714Y-70933333D01*
X36093333Y-70742857D01*
X36140952Y-70647619D01*
X36188571Y-70600000D01*
X36283809Y-70552380D01*
X37236190Y-70552380D02*
X37331428Y-70552380D01*
X37426666Y-70600000D01*
X37474285Y-70647619D01*
X37521904Y-70742857D01*
X37569523Y-70933333D01*
X37569523Y-71171428D01*
X37521904Y-71361904D01*
X37474285Y-71457142D01*
X37426666Y-71504761D01*
X37331428Y-71552380D01*
X37236190Y-71552380D01*
X37140952Y-71504761D01*
X37093333Y-71457142D01*
X37045714Y-71361904D01*
X36998095Y-71171428D01*
X36998095Y-70933333D01*
X37045714Y-70742857D01*
X37093333Y-70647619D01*
X37140952Y-70600000D01*
X37236190Y-70552380D01*
X38188571Y-70552380D02*
X38283809Y-70552380D01*
X38379047Y-70600000D01*
X38426666Y-70647619D01*
X38474285Y-70742857D01*
X38521904Y-70933333D01*
X38521904Y-71171428D01*
X38474285Y-71361904D01*
X38426666Y-71457142D01*
X38379047Y-71504761D01*
X38283809Y-71552380D01*
X38188571Y-71552380D01*
X38093333Y-71504761D01*
X38045714Y-71457142D01*
X37998095Y-71361904D01*
X37950476Y-71171428D01*
X37950476Y-70933333D01*
X37998095Y-70742857D01*
X38045714Y-70647619D01*
X38093333Y-70600000D01*
X38188571Y-70552380D01*
X39140952Y-70552380D02*
X39236190Y-70552380D01*
X39331428Y-70600000D01*
X39379047Y-70647619D01*
X39426666Y-70742857D01*
X39474285Y-70933333D01*
X39474285Y-71171428D01*
X39426666Y-71361904D01*
X39379047Y-71457142D01*
X39331428Y-71504761D01*
X39236190Y-71552380D01*
X39140952Y-71552380D01*
X39045714Y-71504761D01*
X38998095Y-71457142D01*
X38950476Y-71361904D01*
X38902857Y-71171428D01*
X38902857Y-70933333D01*
X38950476Y-70742857D01*
X38998095Y-70647619D01*
X39045714Y-70600000D01*
X39140952Y-70552380D01*
X40664761Y-71552380D02*
X40664761Y-70885714D01*
X40664761Y-70980952D02*
X40712380Y-70933333D01*
X40807619Y-70885714D01*
X40950476Y-70885714D01*
X41045714Y-70933333D01*
X41093333Y-71028571D01*
X41093333Y-71552380D01*
X41093333Y-71028571D02*
X41140952Y-70933333D01*
X41236190Y-70885714D01*
X41379047Y-70885714D01*
X41474285Y-70933333D01*
X41521904Y-71028571D01*
X41521904Y-71552380D01*
X41998095Y-71552380D02*
X41998095Y-70885714D01*
X41998095Y-70980952D02*
X42045714Y-70933333D01*
X42140952Y-70885714D01*
X42283809Y-70885714D01*
X42379047Y-70933333D01*
X42426666Y-71028571D01*
X42426666Y-71552380D01*
X42426666Y-71028571D02*
X42474285Y-70933333D01*
X42569523Y-70885714D01*
X42712380Y-70885714D01*
X42807619Y-70933333D01*
X42855238Y-71028571D01*
X42855238Y-71552380D01*
D10*
X36760000Y-70680000D02*
X36760000Y-72836420D01*
X40760000Y-70680000D02*
X40760000Y-72836420D01*
X36760000Y-72250000D02*
X40760000Y-72250000D01*
X36760000Y-72250000D02*
X40760000Y-72250000D01*
X36760000Y-72250000D02*
X37886504Y-72836421D01*
X36760000Y-72250000D02*
X37886504Y-71663579D01*
X40760000Y-72250000D02*
X39633496Y-71663579D01*
X40760000Y-72250000D02*
X39633496Y-72836421D01*
D11*
X73973333Y-28755714D02*
X73973333Y-29422380D01*
X73735238Y-28374761D02*
X73497142Y-29089047D01*
X74116190Y-29089047D01*
X74544761Y-29374761D02*
X74544761Y-29422380D01*
X74497142Y-29517619D01*
X74449523Y-29565238D01*
X75163809Y-28422380D02*
X75259047Y-28422380D01*
X75354285Y-28470000D01*
X75401904Y-28517619D01*
X75449523Y-28612857D01*
X75497142Y-28803333D01*
X75497142Y-29041428D01*
X75449523Y-29231904D01*
X75401904Y-29327142D01*
X75354285Y-29374761D01*
X75259047Y-29422380D01*
X75163809Y-29422380D01*
X75068571Y-29374761D01*
X75020952Y-29327142D01*
X74973333Y-29231904D01*
X74925714Y-29041428D01*
X74925714Y-28803333D01*
X74973333Y-28612857D01*
X75020952Y-28517619D01*
X75068571Y-28470000D01*
X75163809Y-28422380D01*
X76116190Y-28422380D02*
X76211428Y-28422380D01*
X76306666Y-28470000D01*
X76354285Y-28517619D01*
X76401904Y-28612857D01*
X76449523Y-28803333D01*
X76449523Y-29041428D01*
X76401904Y-29231904D01*
X76354285Y-29327142D01*
X76306666Y-29374761D01*
X76211428Y-29422380D01*
X76116190Y-29422380D01*
X76020952Y-29374761D01*
X75973333Y-29327142D01*
X75925714Y-29231904D01*
X75878095Y-29041428D01*
X75878095Y-28803333D01*
X75925714Y-28612857D01*
X75973333Y-28517619D01*
X76020952Y-28470000D01*
X76116190Y-28422380D01*
X77068571Y-28422380D02*
X77163809Y-28422380D01*
X77259047Y-28470000D01*
X77306666Y-28517619D01*
X77354285Y-28612857D01*
X77401904Y-28803333D01*
X77401904Y-29041428D01*
X77354285Y-29231904D01*
X77306666Y-29327142D01*
X77259047Y-29374761D01*
X77163809Y-29422380D01*
X77068571Y-29422380D01*
X76973333Y-29374761D01*
X76925714Y-29327142D01*
X76878095Y-29231904D01*
X76830476Y-29041428D01*
X76830476Y-28803333D01*
X76878095Y-28612857D01*
X76925714Y-28517619D01*
X76973333Y-28470000D01*
X77068571Y-28422380D01*
X78020952Y-28422380D02*
X78116190Y-28422380D01*
X78211428Y-28470000D01*
X78259047Y-28517619D01*
X78306666Y-28612857D01*
X78354285Y-28803333D01*
X78354285Y-29041428D01*
X78306666Y-29231904D01*
X78259047Y-29327142D01*
X78211428Y-29374761D01*
X78116190Y-29422380D01*
X78020952Y-29422380D01*
X77925714Y-29374761D01*
X77878095Y-29327142D01*
X77830476Y-29231904D01*
X77782857Y-29041428D01*
X77782857Y-28803333D01*
X77830476Y-28612857D01*
X77878095Y-28517619D01*
X77925714Y-28470000D01*
X78020952Y-28422380D01*
X79544761Y-29422380D02*
X79544761Y-28755714D01*
X79544761Y-28850952D02*
X79592380Y-28803333D01*
X79687619Y-28755714D01*
X79830476Y-28755714D01*
X79925714Y-28803333D01*
X79973333Y-28898571D01*
X79973333Y-29422380D01*
X79973333Y-28898571D02*
X80020952Y-28803333D01*
X80116190Y-28755714D01*
X80259047Y-28755714D01*
X80354285Y-28803333D01*
X80401904Y-28898571D01*
X80401904Y-29422380D01*
X80878095Y-29422380D02*
X80878095Y-28755714D01*
X80878095Y-28850952D02*
X80925714Y-28803333D01*
X81020952Y-28755714D01*
X81163809Y-28755714D01*
X81259047Y-28803333D01*
X81306666Y-28898571D01*
X81306666Y-29422380D01*
X81306666Y-28898571D02*
X81354285Y-28803333D01*
X81449523Y-28755714D01*
X81592380Y-28755714D01*
X81687619Y-28803333D01*
X81735238Y-28898571D01*
X81735238Y-29422380D01*
D10*
X79640000Y-34580000D02*
X79640000Y-29533580D01*
X75640000Y-34580000D02*
X75640000Y-29533580D01*
X79640000Y-30120000D02*
X75640000Y-30120000D01*
X79640000Y-30120000D02*
X75640000Y-30120000D01*
X79640000Y-30120000D02*
X78513496Y-29533579D01*
X79640000Y-30120000D02*
X78513496Y-30706421D01*
X75640000Y-30120000D02*
X76766504Y-30706421D01*
X75640000Y-30120000D02*
X76766504Y-29533579D01*
M02*
