%TF.GenerationSoftware,KiCad,Pcbnew,(6.0.8)*%
%TF.CreationDate,2022-10-29T21:58:50-05:00*%
%TF.ProjectId,SE,53452e6b-6963-4616-945f-706362585858,rev?*%
%TF.SameCoordinates,Original*%
%TF.FileFunction,Copper,L1,Top*%
%TF.FilePolarity,Positive*%
%FSLAX46Y46*%
G04 Gerber Fmt 4.6, Leading zero omitted, Abs format (unit mm)*
G04 Created by KiCad (PCBNEW (6.0.8)) date 2022-10-29 21:58:50*
%MOMM*%
%LPD*%
G01*
G04 APERTURE LIST*
G04 Aperture macros list*
%AMRoundRect*
0 Rectangle with rounded corners*
0 $1 Rounding radius*
0 $2 $3 $4 $5 $6 $7 $8 $9 X,Y pos of 4 corners*
0 Add a 4 corners polygon primitive as box body*
4,1,4,$2,$3,$4,$5,$6,$7,$8,$9,$2,$3,0*
0 Add four circle primitives for the rounded corners*
1,1,$1+$1,$2,$3*
1,1,$1+$1,$4,$5*
1,1,$1+$1,$6,$7*
1,1,$1+$1,$8,$9*
0 Add four rect primitives between the rounded corners*
20,1,$1+$1,$2,$3,$4,$5,0*
20,1,$1+$1,$4,$5,$6,$7,0*
20,1,$1+$1,$6,$7,$8,$9,0*
20,1,$1+$1,$8,$9,$2,$3,0*%
G04 Aperture macros list end*
%TA.AperFunction,SMDPad,CuDef*%
%ADD10R,0.900000X1.200000*%
%TD*%
%TA.AperFunction,SMDPad,CuDef*%
%ADD11RoundRect,0.237500X0.250000X0.237500X-0.250000X0.237500X-0.250000X-0.237500X0.250000X-0.237500X0*%
%TD*%
%TA.AperFunction,ComponentPad*%
%ADD12R,2.000000X2.000000*%
%TD*%
%TA.AperFunction,ComponentPad*%
%ADD13C,2.000000*%
%TD*%
%TA.AperFunction,ComponentPad*%
%ADD14R,1.700000X1.700000*%
%TD*%
%TA.AperFunction,ComponentPad*%
%ADD15O,1.700000X1.700000*%
%TD*%
%TA.AperFunction,SMDPad,CuDef*%
%ADD16RoundRect,0.237500X-0.250000X-0.237500X0.250000X-0.237500X0.250000X0.237500X-0.250000X0.237500X0*%
%TD*%
%TA.AperFunction,ComponentPad*%
%ADD17C,3.800000*%
%TD*%
%TA.AperFunction,ComponentPad*%
%ADD18R,1.800000X1.800000*%
%TD*%
%TA.AperFunction,ComponentPad*%
%ADD19C,1.800000*%
%TD*%
%TA.AperFunction,ComponentPad*%
%ADD20R,1.500000X1.500000*%
%TD*%
%TA.AperFunction,ComponentPad*%
%ADD21C,1.500000*%
%TD*%
%TA.AperFunction,ComponentPad*%
%ADD22R,1.050000X1.500000*%
%TD*%
%TA.AperFunction,ComponentPad*%
%ADD23O,1.050000X1.500000*%
%TD*%
%TA.AperFunction,Conductor*%
%ADD24C,0.250000*%
%TD*%
G04 APERTURE END LIST*
D10*
%TO.P,D5,1,K*%
%TO.N,+3.3V*%
X58710000Y-66340000D03*
%TO.P,D5,2,A*%
%TO.N,Net-(BZ1-Pad2)*%
X55410000Y-66340000D03*
%TD*%
D11*
%TO.P,R14,1*%
%TO.N,Buzzer*%
X50302500Y-57570000D03*
%TO.P,R14,2*%
%TO.N,Net-(Q4-Pad2)*%
X48477500Y-57570000D03*
%TD*%
D12*
%TO.P,BZ1,1,-*%
%TO.N,+3.3V*%
X50440000Y-41960000D03*
D13*
%TO.P,BZ1,2,+*%
%TO.N,Net-(BZ1-Pad2)*%
X50440000Y-49560000D03*
%TD*%
D14*
%TO.P,J3,1,Pin_1*%
%TO.N,Botones*%
X63505000Y-62980000D03*
D15*
%TO.P,J3,2,Pin_2*%
%TO.N,+3.3V*%
X66045000Y-62980000D03*
%TO.P,J3,3,Pin_3*%
%TO.N,GND*%
X68585000Y-62980000D03*
%TD*%
D16*
%TO.P,R19,1*%
%TO.N,Net-(Q4-Pad2)*%
X48620000Y-61610000D03*
%TO.P,R19,2*%
%TO.N,GND*%
X50445000Y-61610000D03*
%TD*%
D17*
%TO.P,REF\u002A\u002A,1*%
%TO.N,N/C*%
X40760000Y-66210000D03*
%TD*%
D11*
%TO.P,R18,1*%
%TO.N,Net-(D4-Pad2)*%
X60912500Y-61450000D03*
%TO.P,R18,2*%
%TO.N,+3.3V*%
X59087500Y-61450000D03*
%TD*%
D17*
%TO.P,REF\u002A\u002A,1*%
%TO.N,N/C*%
X40730000Y-39160000D03*
%TD*%
D16*
%TO.P,R1,1*%
%TO.N,Led_Verde*%
X58830000Y-51250000D03*
%TO.P,R1,2*%
%TO.N,Net-(D1-Pad2)*%
X60655000Y-51250000D03*
%TD*%
D18*
%TO.P,D1,1,K*%
%TO.N,GND*%
X58595000Y-45440000D03*
D19*
%TO.P,D1,2,A*%
%TO.N,Net-(D1-Pad2)*%
X61135000Y-45440000D03*
%TD*%
D17*
%TO.P,REF\u002A\u002A,1*%
%TO.N,N/C*%
X75630000Y-39070000D03*
%TD*%
D18*
%TO.P,D4,1,K*%
%TO.N,Net-(BZ1-Pad2)*%
X58485000Y-56950000D03*
D19*
%TO.P,D4,2,A*%
%TO.N,Net-(D4-Pad2)*%
X61025000Y-56950000D03*
%TD*%
D17*
%TO.P,REF\u002A\u002A,1*%
%TO.N,N/C*%
X75640000Y-66220000D03*
%TD*%
D20*
%TO.P,J1,1*%
%TO.N,+3.3V*%
X68620000Y-47087500D03*
D21*
%TO.P,J1,2*%
%TO.N,GND*%
X66080000Y-48357500D03*
%TO.P,J1,3*%
%TO.N,SDA*%
X68620000Y-49627500D03*
%TO.P,J1,4*%
%TO.N,SCL*%
X66080000Y-50897500D03*
%TO.P,J1,5*%
%TO.N,Botones*%
X68620000Y-52167500D03*
%TO.P,J1,6*%
%TO.N,Led_Verde*%
X66080000Y-53437500D03*
%TO.P,J1,7*%
%TO.N,Buzzer*%
X68620000Y-54707500D03*
%TO.P,J1,8*%
%TO.N,unconnected-(J1-Pad8)*%
X66080000Y-55977500D03*
%TD*%
D22*
%TO.P,Q4,1,C*%
%TO.N,Net-(BZ1-Pad2)*%
X48440000Y-65770000D03*
D23*
%TO.P,Q4,2,B*%
%TO.N,Net-(Q4-Pad2)*%
X49710000Y-65770000D03*
%TO.P,Q4,3,E*%
%TO.N,GND*%
X50980000Y-65770000D03*
%TD*%
D14*
%TO.P,J2,1,Pin_1*%
%TO.N,+3.3V*%
X67240000Y-38810000D03*
D15*
%TO.P,J2,2,Pin_2*%
%TO.N,GND*%
X64700000Y-38810000D03*
%TO.P,J2,3,Pin_3*%
%TO.N,SCL*%
X62160000Y-38810000D03*
%TO.P,J2,4,Pin_4*%
%TO.N,SDA*%
X59620000Y-38810000D03*
%TD*%
D24*
%TO.N,+3.3V*%
X46980000Y-45420000D02*
X50440000Y-41960000D01*
X67240000Y-38810000D02*
X67240000Y-44170000D01*
X65100000Y-66340000D02*
X66045000Y-65395000D01*
X54530000Y-35910000D02*
X64340000Y-35910000D01*
X46980000Y-67200000D02*
X46980000Y-45420000D01*
X64340000Y-35910000D02*
X67240000Y-38810000D01*
X58710000Y-61827500D02*
X58710000Y-66340000D01*
X50440000Y-40000000D02*
X54530000Y-35910000D01*
X58710000Y-66340000D02*
X65100000Y-66340000D01*
X56630000Y-68420000D02*
X48200000Y-68420000D01*
X68620000Y-45550000D02*
X68620000Y-47087500D01*
X66045000Y-65395000D02*
X66045000Y-62980000D01*
X48200000Y-68420000D02*
X46980000Y-67200000D01*
X58710000Y-66340000D02*
X56630000Y-68420000D01*
X67240000Y-44170000D02*
X68620000Y-45550000D01*
X59087500Y-61450000D02*
X58710000Y-61827500D01*
X50440000Y-41960000D02*
X50440000Y-40000000D01*
%TO.N,Net-(BZ1-Pad2)*%
X54300000Y-67450000D02*
X49080000Y-67450000D01*
X54790000Y-66340000D02*
X55410000Y-66340000D01*
X58485000Y-56950000D02*
X57540000Y-56950000D01*
X54310000Y-65860000D02*
X54790000Y-66340000D01*
X48440000Y-66810000D02*
X48440000Y-65770000D01*
X50440000Y-49560000D02*
X57830000Y-56950000D01*
X49080000Y-67450000D02*
X48440000Y-66810000D01*
X54310000Y-60180000D02*
X54310000Y-65860000D01*
X57540000Y-56950000D02*
X54310000Y-60180000D01*
X55410000Y-66340000D02*
X54300000Y-67450000D01*
X57830000Y-56950000D02*
X58485000Y-56950000D01*
%TO.N,Botones*%
X63505000Y-62565000D02*
X70340000Y-55730000D01*
X63505000Y-62980000D02*
X63505000Y-62565000D01*
X70340000Y-53887500D02*
X68620000Y-52167500D01*
X70340000Y-55730000D02*
X70340000Y-53887500D01*
%TO.N,Led_Verde*%
X66080000Y-53437500D02*
X61017500Y-53437500D01*
X61017500Y-53437500D02*
X58830000Y-51250000D01*
%TO.N,Buzzer*%
X47710000Y-47450000D02*
X48460000Y-46700000D01*
X50302500Y-57570000D02*
X50302500Y-54702500D01*
X60127500Y-54707500D02*
X68620000Y-54707500D01*
X50302500Y-54702500D02*
X47710000Y-52110000D01*
X52120000Y-46700000D02*
X60127500Y-54707500D01*
X47710000Y-52110000D02*
X47710000Y-47450000D01*
X48460000Y-46700000D02*
X52120000Y-46700000D01*
%TO.N,Net-(D4-Pad2)*%
X60912500Y-61450000D02*
X61025000Y-61337500D01*
X61025000Y-61337500D02*
X61025000Y-56950000D01*
%TO.N,Net-(D1-Pad2)*%
X61135000Y-50770000D02*
X61135000Y-45440000D01*
X60655000Y-51250000D02*
X61135000Y-50770000D01*
%TO.N,SCL*%
X62160000Y-37380000D02*
X61470000Y-36690000D01*
X63800000Y-46150000D02*
X63800000Y-50440000D01*
X63800000Y-50440000D02*
X64257500Y-50897500D01*
X58780000Y-36690000D02*
X57900000Y-37570000D01*
X64257500Y-50897500D02*
X66080000Y-50897500D01*
X57900000Y-37570000D02*
X57900000Y-40250000D01*
X62160000Y-38810000D02*
X62160000Y-37380000D01*
X61470000Y-36690000D02*
X58780000Y-36690000D01*
X57900000Y-40250000D02*
X63800000Y-46150000D01*
%TO.N,SDA*%
X68620000Y-49270000D02*
X68620000Y-49627500D01*
X59620000Y-40270000D02*
X68620000Y-49270000D01*
X59620000Y-38810000D02*
X59620000Y-40270000D01*
%TO.N,Net-(Q4-Pad2)*%
X48477500Y-57570000D02*
X48620000Y-57712500D01*
X48620000Y-62490000D02*
X48620000Y-61610000D01*
X48620000Y-57712500D02*
X48620000Y-61610000D01*
X49710000Y-65770000D02*
X49710000Y-63580000D01*
X49710000Y-63580000D02*
X48620000Y-62490000D01*
%TD*%
%TA.AperFunction,Conductor*%
%TO.N,GND*%
G36*
X53719526Y-35608502D02*
G01*
X53766019Y-35662158D01*
X53776123Y-35732432D01*
X53746629Y-35797012D01*
X53740500Y-35803595D01*
X50047747Y-39496348D01*
X50039461Y-39503888D01*
X50032982Y-39508000D01*
X50027557Y-39513777D01*
X49986357Y-39557651D01*
X49983602Y-39560493D01*
X49963865Y-39580230D01*
X49961385Y-39583427D01*
X49953682Y-39592447D01*
X49923414Y-39624679D01*
X49919595Y-39631625D01*
X49919593Y-39631628D01*
X49913652Y-39642434D01*
X49902801Y-39658953D01*
X49890386Y-39674959D01*
X49887241Y-39682228D01*
X49887238Y-39682232D01*
X49872826Y-39715537D01*
X49867609Y-39726187D01*
X49846305Y-39764940D01*
X49844334Y-39772615D01*
X49844334Y-39772616D01*
X49841267Y-39784562D01*
X49834863Y-39803266D01*
X49826819Y-39821855D01*
X49825580Y-39829678D01*
X49825577Y-39829688D01*
X49819901Y-39865524D01*
X49817495Y-39877144D01*
X49806500Y-39919970D01*
X49806500Y-39940224D01*
X49804949Y-39959934D01*
X49801780Y-39979943D01*
X49802526Y-39987835D01*
X49805941Y-40023961D01*
X49806500Y-40035819D01*
X49806500Y-40325500D01*
X49786498Y-40393621D01*
X49732842Y-40440114D01*
X49680500Y-40451500D01*
X49391866Y-40451500D01*
X49329684Y-40458255D01*
X49193295Y-40509385D01*
X49076739Y-40596739D01*
X48989385Y-40713295D01*
X48938255Y-40849684D01*
X48931500Y-40911866D01*
X48931500Y-42520406D01*
X48911498Y-42588527D01*
X48894595Y-42609501D01*
X46587747Y-44916348D01*
X46579461Y-44923888D01*
X46572982Y-44928000D01*
X46567557Y-44933777D01*
X46526357Y-44977651D01*
X46523602Y-44980493D01*
X46503865Y-45000230D01*
X46501385Y-45003427D01*
X46493682Y-45012447D01*
X46463414Y-45044679D01*
X46459595Y-45051625D01*
X46459593Y-45051628D01*
X46453652Y-45062434D01*
X46442801Y-45078953D01*
X46430386Y-45094959D01*
X46427241Y-45102228D01*
X46427238Y-45102232D01*
X46412826Y-45135537D01*
X46407609Y-45146187D01*
X46386305Y-45184940D01*
X46384334Y-45192615D01*
X46384334Y-45192616D01*
X46381267Y-45204562D01*
X46374863Y-45223266D01*
X46366819Y-45241855D01*
X46365580Y-45249678D01*
X46365577Y-45249688D01*
X46359901Y-45285524D01*
X46357495Y-45297144D01*
X46348472Y-45332289D01*
X46346500Y-45339970D01*
X46346500Y-45360224D01*
X46344949Y-45379934D01*
X46341780Y-45399943D01*
X46342526Y-45407835D01*
X46345941Y-45443961D01*
X46346500Y-45455819D01*
X46346500Y-67121233D01*
X46345973Y-67132416D01*
X46344298Y-67139909D01*
X46344547Y-67147835D01*
X46344547Y-67147836D01*
X46346438Y-67207986D01*
X46346500Y-67211945D01*
X46346500Y-67239856D01*
X46346997Y-67243790D01*
X46346997Y-67243791D01*
X46347005Y-67243856D01*
X46347938Y-67255693D01*
X46349327Y-67299889D01*
X46354978Y-67319339D01*
X46358987Y-67338700D01*
X46361526Y-67358797D01*
X46364445Y-67366168D01*
X46364445Y-67366170D01*
X46377804Y-67399912D01*
X46381649Y-67411142D01*
X46393982Y-67453593D01*
X46398015Y-67460412D01*
X46398017Y-67460417D01*
X46404293Y-67471028D01*
X46412988Y-67488776D01*
X46420448Y-67507617D01*
X46425110Y-67514033D01*
X46425110Y-67514034D01*
X46446436Y-67543387D01*
X46452952Y-67553307D01*
X46467549Y-67577988D01*
X46475458Y-67591362D01*
X46489779Y-67605683D01*
X46502619Y-67620716D01*
X46514528Y-67637107D01*
X46548605Y-67665298D01*
X46557384Y-67673288D01*
X47696343Y-68812247D01*
X47703887Y-68820537D01*
X47708000Y-68827018D01*
X47713777Y-68832443D01*
X47757667Y-68873658D01*
X47760509Y-68876413D01*
X47780231Y-68896135D01*
X47783355Y-68898558D01*
X47783359Y-68898562D01*
X47783424Y-68898612D01*
X47792445Y-68906317D01*
X47824679Y-68936586D01*
X47831627Y-68940405D01*
X47831629Y-68940407D01*
X47842432Y-68946346D01*
X47858959Y-68957202D01*
X47868698Y-68964757D01*
X47868700Y-68964758D01*
X47874960Y-68969614D01*
X47915540Y-68987174D01*
X47926188Y-68992391D01*
X47950976Y-69006018D01*
X47964940Y-69013695D01*
X47972616Y-69015666D01*
X47972619Y-69015667D01*
X47984562Y-69018733D01*
X48003267Y-69025137D01*
X48021855Y-69033181D01*
X48029678Y-69034420D01*
X48029688Y-69034423D01*
X48065524Y-69040099D01*
X48077144Y-69042505D01*
X48108959Y-69050673D01*
X48119970Y-69053500D01*
X48140224Y-69053500D01*
X48159934Y-69055051D01*
X48179943Y-69058220D01*
X48187835Y-69057474D01*
X48206580Y-69055702D01*
X48223962Y-69054059D01*
X48235819Y-69053500D01*
X56551233Y-69053500D01*
X56562416Y-69054027D01*
X56569909Y-69055702D01*
X56577835Y-69055453D01*
X56577836Y-69055453D01*
X56637986Y-69053562D01*
X56641945Y-69053500D01*
X56669856Y-69053500D01*
X56673791Y-69053003D01*
X56673856Y-69052995D01*
X56685693Y-69052062D01*
X56717951Y-69051048D01*
X56721970Y-69050922D01*
X56729889Y-69050673D01*
X56749343Y-69045021D01*
X56768700Y-69041013D01*
X56780930Y-69039468D01*
X56780931Y-69039468D01*
X56788797Y-69038474D01*
X56796168Y-69035555D01*
X56796170Y-69035555D01*
X56829912Y-69022196D01*
X56841142Y-69018351D01*
X56875983Y-69008229D01*
X56875984Y-69008229D01*
X56883593Y-69006018D01*
X56890412Y-69001985D01*
X56890417Y-69001983D01*
X56901028Y-68995707D01*
X56918776Y-68987012D01*
X56937617Y-68979552D01*
X56973387Y-68953564D01*
X56983307Y-68947048D01*
X57014535Y-68928580D01*
X57014538Y-68928578D01*
X57021362Y-68924542D01*
X57035683Y-68910221D01*
X57050717Y-68897380D01*
X57052431Y-68896135D01*
X57067107Y-68885472D01*
X57095298Y-68851395D01*
X57103288Y-68842616D01*
X58460499Y-67485405D01*
X58522811Y-67451379D01*
X58549594Y-67448500D01*
X59208134Y-67448500D01*
X59270316Y-67441745D01*
X59406705Y-67390615D01*
X59523261Y-67303261D01*
X59610615Y-67186705D01*
X59659888Y-67055270D01*
X59702530Y-66998506D01*
X59769091Y-66973806D01*
X59777870Y-66973500D01*
X65021233Y-66973500D01*
X65032416Y-66974027D01*
X65039909Y-66975702D01*
X65047835Y-66975453D01*
X65047836Y-66975453D01*
X65107986Y-66973562D01*
X65111945Y-66973500D01*
X65139856Y-66973500D01*
X65143791Y-66973003D01*
X65143856Y-66972995D01*
X65155693Y-66972062D01*
X65187951Y-66971048D01*
X65191970Y-66970922D01*
X65199889Y-66970673D01*
X65219343Y-66965021D01*
X65238700Y-66961013D01*
X65250930Y-66959468D01*
X65250931Y-66959468D01*
X65258797Y-66958474D01*
X65266168Y-66955555D01*
X65266170Y-66955555D01*
X65299912Y-66942196D01*
X65311142Y-66938351D01*
X65345983Y-66928229D01*
X65345984Y-66928229D01*
X65353593Y-66926018D01*
X65360412Y-66921985D01*
X65360417Y-66921983D01*
X65371028Y-66915707D01*
X65388776Y-66907012D01*
X65407617Y-66899552D01*
X65443387Y-66873564D01*
X65453307Y-66867048D01*
X65484535Y-66848580D01*
X65484538Y-66848578D01*
X65491362Y-66844542D01*
X65505683Y-66830221D01*
X65520717Y-66817380D01*
X65522268Y-66816253D01*
X65537107Y-66805472D01*
X65542158Y-66799367D01*
X65542163Y-66799362D01*
X65565299Y-66771396D01*
X65573287Y-66762618D01*
X66115905Y-66220000D01*
X73226738Y-66220000D01*
X73245767Y-66522462D01*
X73302555Y-66820154D01*
X73396206Y-67108381D01*
X73397893Y-67111967D01*
X73397895Y-67111971D01*
X73411042Y-67139909D01*
X73525242Y-67382598D01*
X73687630Y-67638480D01*
X73690149Y-67641525D01*
X73690152Y-67641529D01*
X73691012Y-67642568D01*
X73880808Y-67871992D01*
X74101729Y-68079450D01*
X74346910Y-68257584D01*
X74612483Y-68403585D01*
X74616152Y-68405038D01*
X74616157Y-68405040D01*
X74890591Y-68513696D01*
X74894261Y-68515149D01*
X75187800Y-68590516D01*
X75488470Y-68628500D01*
X75791530Y-68628500D01*
X76092200Y-68590516D01*
X76385739Y-68515149D01*
X76389409Y-68513696D01*
X76663843Y-68405040D01*
X76663848Y-68405038D01*
X76667517Y-68403585D01*
X76933090Y-68257584D01*
X77178271Y-68079450D01*
X77399192Y-67871992D01*
X77588988Y-67642568D01*
X77589848Y-67641529D01*
X77589851Y-67641525D01*
X77592370Y-67638480D01*
X77754758Y-67382598D01*
X77868958Y-67139909D01*
X77882105Y-67111971D01*
X77882107Y-67111967D01*
X77883794Y-67108381D01*
X77977445Y-66820154D01*
X78034233Y-66522462D01*
X78053262Y-66220000D01*
X78034233Y-65917538D01*
X77977445Y-65619846D01*
X77910905Y-65415057D01*
X77885020Y-65335392D01*
X77885020Y-65335391D01*
X77883794Y-65331619D01*
X77879089Y-65321619D01*
X77756445Y-65060988D01*
X77754758Y-65057402D01*
X77592370Y-64801520D01*
X77584098Y-64791520D01*
X77531306Y-64727706D01*
X77399192Y-64568008D01*
X77178271Y-64360550D01*
X76933090Y-64182416D01*
X76914901Y-64172416D01*
X76670986Y-64038322D01*
X76670985Y-64038321D01*
X76667517Y-64036415D01*
X76663848Y-64034962D01*
X76663843Y-64034960D01*
X76389409Y-63926304D01*
X76389408Y-63926304D01*
X76385739Y-63924851D01*
X76092200Y-63849484D01*
X75791530Y-63811500D01*
X75488470Y-63811500D01*
X75187800Y-63849484D01*
X74894261Y-63924851D01*
X74890592Y-63926304D01*
X74890591Y-63926304D01*
X74616157Y-64034960D01*
X74616152Y-64034962D01*
X74612483Y-64036415D01*
X74609015Y-64038321D01*
X74609014Y-64038322D01*
X74365100Y-64172416D01*
X74346910Y-64182416D01*
X74101729Y-64360550D01*
X73880808Y-64568008D01*
X73748694Y-64727706D01*
X73695903Y-64791520D01*
X73687630Y-64801520D01*
X73525242Y-65057402D01*
X73523555Y-65060988D01*
X73400912Y-65321619D01*
X73396206Y-65331619D01*
X73394980Y-65335391D01*
X73394980Y-65335392D01*
X73369095Y-65415057D01*
X73302555Y-65619846D01*
X73245767Y-65917538D01*
X73226738Y-66220000D01*
X66115905Y-66220000D01*
X66437253Y-65898652D01*
X66445539Y-65891112D01*
X66452018Y-65887000D01*
X66466156Y-65871945D01*
X66498643Y-65837349D01*
X66501398Y-65834507D01*
X66521135Y-65814770D01*
X66523615Y-65811573D01*
X66531320Y-65802551D01*
X66556159Y-65776100D01*
X66561586Y-65770321D01*
X66565405Y-65763375D01*
X66565407Y-65763372D01*
X66571348Y-65752566D01*
X66582199Y-65736047D01*
X66589758Y-65726301D01*
X66594614Y-65720041D01*
X66597759Y-65712772D01*
X66597762Y-65712768D01*
X66612174Y-65679463D01*
X66617391Y-65668813D01*
X66638695Y-65630060D01*
X66643733Y-65610437D01*
X66650137Y-65591734D01*
X66655033Y-65580420D01*
X66655033Y-65580419D01*
X66658181Y-65573145D01*
X66659420Y-65565322D01*
X66659423Y-65565312D01*
X66665099Y-65529476D01*
X66667505Y-65517856D01*
X66676528Y-65482711D01*
X66676528Y-65482710D01*
X66678500Y-65475030D01*
X66678500Y-65454776D01*
X66680051Y-65435065D01*
X66681980Y-65422886D01*
X66683220Y-65415057D01*
X66679059Y-65371038D01*
X66678500Y-65359181D01*
X66678500Y-64260427D01*
X66698502Y-64192306D01*
X66739618Y-64152550D01*
X66742994Y-64150896D01*
X66924860Y-64021173D01*
X67083096Y-63863489D01*
X67099638Y-63840469D01*
X67213453Y-63682077D01*
X67214640Y-63682930D01*
X67261960Y-63639362D01*
X67331897Y-63627145D01*
X67397338Y-63654678D01*
X67425166Y-63686511D01*
X67482694Y-63780388D01*
X67488777Y-63788699D01*
X67628213Y-63949667D01*
X67635580Y-63956883D01*
X67799434Y-64092916D01*
X67807881Y-64098831D01*
X67991756Y-64206279D01*
X68001042Y-64210729D01*
X68200001Y-64286703D01*
X68209899Y-64289579D01*
X68313250Y-64310606D01*
X68327299Y-64309410D01*
X68331000Y-64299065D01*
X68331000Y-64298517D01*
X68839000Y-64298517D01*
X68843064Y-64312359D01*
X68856478Y-64314393D01*
X68863184Y-64313534D01*
X68873262Y-64311392D01*
X69077255Y-64250191D01*
X69086842Y-64246433D01*
X69278095Y-64152739D01*
X69286945Y-64147464D01*
X69460328Y-64023792D01*
X69468200Y-64017139D01*
X69619052Y-63866812D01*
X69625730Y-63858965D01*
X69750003Y-63686020D01*
X69755313Y-63677183D01*
X69849670Y-63486267D01*
X69853469Y-63476672D01*
X69915377Y-63272910D01*
X69917555Y-63262837D01*
X69918986Y-63251962D01*
X69916775Y-63237778D01*
X69903617Y-63234000D01*
X68857115Y-63234000D01*
X68841876Y-63238475D01*
X68840671Y-63239865D01*
X68839000Y-63247548D01*
X68839000Y-64298517D01*
X68331000Y-64298517D01*
X68331000Y-62707885D01*
X68839000Y-62707885D01*
X68843475Y-62723124D01*
X68844865Y-62724329D01*
X68852548Y-62726000D01*
X69903344Y-62726000D01*
X69916875Y-62722027D01*
X69918180Y-62712947D01*
X69876214Y-62545875D01*
X69872894Y-62536124D01*
X69787972Y-62340814D01*
X69783105Y-62331739D01*
X69667426Y-62152926D01*
X69661136Y-62144757D01*
X69517806Y-61987240D01*
X69510273Y-61980215D01*
X69343139Y-61848222D01*
X69334552Y-61842517D01*
X69148117Y-61739599D01*
X69138705Y-61735369D01*
X68937959Y-61664280D01*
X68927988Y-61661646D01*
X68856837Y-61648972D01*
X68843540Y-61650432D01*
X68839000Y-61664989D01*
X68839000Y-62707885D01*
X68331000Y-62707885D01*
X68331000Y-61663102D01*
X68327082Y-61649758D01*
X68312806Y-61647771D01*
X68274324Y-61653660D01*
X68264288Y-61656051D01*
X68061868Y-61722212D01*
X68052359Y-61726209D01*
X67863463Y-61824542D01*
X67854738Y-61830036D01*
X67684433Y-61957905D01*
X67676726Y-61964748D01*
X67529590Y-62118717D01*
X67523109Y-62126722D01*
X67418498Y-62280074D01*
X67363587Y-62325076D01*
X67293062Y-62333247D01*
X67229315Y-62301993D01*
X67208618Y-62277509D01*
X67127822Y-62152617D01*
X67127820Y-62152614D01*
X67125014Y-62148277D01*
X66974670Y-61983051D01*
X66970619Y-61979852D01*
X66970615Y-61979848D01*
X66803414Y-61847800D01*
X66803410Y-61847798D01*
X66799359Y-61844598D01*
X66763028Y-61824542D01*
X66746349Y-61815335D01*
X66603789Y-61736638D01*
X66598920Y-61734914D01*
X66598916Y-61734912D01*
X66398087Y-61663795D01*
X66398083Y-61663794D01*
X66393212Y-61662069D01*
X66388119Y-61661162D01*
X66388116Y-61661161D01*
X66178373Y-61623800D01*
X66178367Y-61623799D01*
X66173284Y-61622894D01*
X66099452Y-61621992D01*
X65955081Y-61620228D01*
X65955079Y-61620228D01*
X65949911Y-61620165D01*
X65729091Y-61653955D01*
X65640421Y-61682937D01*
X65610184Y-61692820D01*
X65539220Y-61694971D01*
X65478359Y-61658415D01*
X65446922Y-61594758D01*
X65454892Y-61524210D01*
X65481944Y-61483960D01*
X69585701Y-57380203D01*
X72860743Y-57380203D01*
X72898268Y-57665234D01*
X72899401Y-57669374D01*
X72899401Y-57669376D01*
X72901738Y-57677917D01*
X72974129Y-57942536D01*
X72975813Y-57946484D01*
X73073185Y-58174767D01*
X73086923Y-58206976D01*
X73127055Y-58274031D01*
X73206251Y-58406358D01*
X73234561Y-58453661D01*
X73414313Y-58678028D01*
X73622851Y-58875923D01*
X73856317Y-59043686D01*
X73860112Y-59045695D01*
X73860113Y-59045696D01*
X73881869Y-59057215D01*
X74110392Y-59178212D01*
X74380373Y-59277011D01*
X74661264Y-59338255D01*
X74689841Y-59340504D01*
X74884282Y-59355807D01*
X74884291Y-59355807D01*
X74886739Y-59356000D01*
X75042271Y-59356000D01*
X75044407Y-59355854D01*
X75044418Y-59355854D01*
X75252548Y-59341665D01*
X75252554Y-59341664D01*
X75256825Y-59341373D01*
X75261020Y-59340504D01*
X75261022Y-59340504D01*
X75397583Y-59312224D01*
X75538342Y-59283074D01*
X75809343Y-59187107D01*
X76064812Y-59055250D01*
X76068313Y-59052789D01*
X76068317Y-59052787D01*
X76182417Y-58972596D01*
X76300023Y-58889941D01*
X76510622Y-58694240D01*
X76692713Y-58471768D01*
X76842927Y-58226642D01*
X76849685Y-58211248D01*
X76956757Y-57967330D01*
X76958483Y-57963398D01*
X77037244Y-57686906D01*
X77077751Y-57402284D01*
X77077845Y-57384451D01*
X77079235Y-57119083D01*
X77079235Y-57119076D01*
X77079257Y-57114797D01*
X77066888Y-57020841D01*
X77057351Y-56948408D01*
X77041732Y-56829766D01*
X76965871Y-56552464D01*
X76853077Y-56288024D01*
X76747189Y-56111098D01*
X76707643Y-56045021D01*
X76707640Y-56045017D01*
X76705439Y-56041339D01*
X76525687Y-55816972D01*
X76376342Y-55675249D01*
X76320258Y-55622027D01*
X76320255Y-55622025D01*
X76317149Y-55619077D01*
X76083683Y-55451314D01*
X76061843Y-55439750D01*
X76002755Y-55408465D01*
X75829608Y-55316788D01*
X75666541Y-55257114D01*
X75563658Y-55219464D01*
X75563656Y-55219463D01*
X75559627Y-55217989D01*
X75278736Y-55156745D01*
X75247685Y-55154301D01*
X75055718Y-55139193D01*
X75055709Y-55139193D01*
X75053261Y-55139000D01*
X74897729Y-55139000D01*
X74895593Y-55139146D01*
X74895582Y-55139146D01*
X74687452Y-55153335D01*
X74687446Y-55153336D01*
X74683175Y-55153627D01*
X74678980Y-55154496D01*
X74678978Y-55154496D01*
X74551811Y-55180831D01*
X74401658Y-55211926D01*
X74130657Y-55307893D01*
X73875188Y-55439750D01*
X73871687Y-55442211D01*
X73871683Y-55442213D01*
X73858734Y-55451314D01*
X73639977Y-55605059D01*
X73594729Y-55647106D01*
X73459456Y-55772810D01*
X73429378Y-55800760D01*
X73247287Y-56023232D01*
X73097073Y-56268358D01*
X72981517Y-56531602D01*
X72980342Y-56535729D01*
X72980341Y-56535730D01*
X72955716Y-56622176D01*
X72902756Y-56808094D01*
X72882787Y-56948408D01*
X72864930Y-57073881D01*
X72862249Y-57092716D01*
X72862227Y-57097005D01*
X72862226Y-57097012D01*
X72861235Y-57286194D01*
X72860743Y-57380203D01*
X69585701Y-57380203D01*
X70732247Y-56233657D01*
X70740537Y-56226113D01*
X70747018Y-56222000D01*
X70793659Y-56172332D01*
X70796413Y-56169491D01*
X70816135Y-56149769D01*
X70818619Y-56146567D01*
X70826317Y-56137555D01*
X70851161Y-56111098D01*
X70856586Y-56105321D01*
X70866347Y-56087566D01*
X70877198Y-56071047D01*
X70889614Y-56055041D01*
X70893950Y-56045021D01*
X70907174Y-56014463D01*
X70912391Y-56003813D01*
X70933695Y-55965060D01*
X70938733Y-55945437D01*
X70945137Y-55926734D01*
X70950033Y-55915420D01*
X70950033Y-55915419D01*
X70953181Y-55908145D01*
X70954420Y-55900322D01*
X70954423Y-55900312D01*
X70960099Y-55864476D01*
X70962505Y-55852856D01*
X70971528Y-55817711D01*
X70971528Y-55817710D01*
X70973500Y-55810030D01*
X70973500Y-55789776D01*
X70975051Y-55770065D01*
X70976980Y-55757886D01*
X70978220Y-55750057D01*
X70974059Y-55706038D01*
X70973500Y-55694181D01*
X70973500Y-53966263D01*
X70974027Y-53955079D01*
X70975701Y-53947591D01*
X70973562Y-53879532D01*
X70973500Y-53875575D01*
X70973500Y-53847644D01*
X70972994Y-53843638D01*
X70972061Y-53831792D01*
X70970922Y-53795537D01*
X70970673Y-53787610D01*
X70965022Y-53768158D01*
X70961014Y-53748806D01*
X70959467Y-53736563D01*
X70958474Y-53728703D01*
X70955556Y-53721332D01*
X70942200Y-53687597D01*
X70938355Y-53676370D01*
X70937721Y-53674187D01*
X70926018Y-53633907D01*
X70921984Y-53627085D01*
X70921981Y-53627079D01*
X70915706Y-53616468D01*
X70907010Y-53598718D01*
X70902472Y-53587256D01*
X70902469Y-53587251D01*
X70899552Y-53579883D01*
X70886901Y-53562470D01*
X70873573Y-53544125D01*
X70867057Y-53534207D01*
X70848575Y-53502957D01*
X70844542Y-53496137D01*
X70830218Y-53481813D01*
X70817376Y-53466778D01*
X70814911Y-53463385D01*
X70805472Y-53450393D01*
X70771406Y-53422211D01*
X70762627Y-53414222D01*
X69888328Y-52539923D01*
X69854302Y-52477611D01*
X69855716Y-52418217D01*
X69862691Y-52392185D01*
X69862692Y-52392181D01*
X69864115Y-52386871D01*
X69883307Y-52167500D01*
X69864115Y-51948129D01*
X69807120Y-51735424D01*
X69721123Y-51551002D01*
X69716382Y-51540834D01*
X69716379Y-51540829D01*
X69714056Y-51535847D01*
X69709369Y-51529153D01*
X69590908Y-51359973D01*
X69590906Y-51359970D01*
X69587749Y-51355462D01*
X69432038Y-51199751D01*
X69251654Y-51073444D01*
X69246672Y-51071121D01*
X69246667Y-51071118D01*
X69119232Y-51011695D01*
X69065947Y-50964778D01*
X69046486Y-50896501D01*
X69067028Y-50828541D01*
X69119232Y-50783305D01*
X69246667Y-50723882D01*
X69246672Y-50723879D01*
X69251654Y-50721556D01*
X69387817Y-50626213D01*
X69427527Y-50598408D01*
X69427529Y-50598406D01*
X69432038Y-50595249D01*
X69587749Y-50439538D01*
X69599280Y-50423071D01*
X69710899Y-50263662D01*
X69710900Y-50263660D01*
X69714056Y-50259153D01*
X69716379Y-50254171D01*
X69716382Y-50254166D01*
X69776424Y-50125404D01*
X69807120Y-50059576D01*
X69864115Y-49846871D01*
X69883307Y-49627500D01*
X69864115Y-49408129D01*
X69807120Y-49195424D01*
X69736093Y-49043106D01*
X69716382Y-49000834D01*
X69716379Y-49000829D01*
X69714056Y-48995847D01*
X69658198Y-48916073D01*
X69590908Y-48819973D01*
X69590906Y-48819970D01*
X69587749Y-48815462D01*
X69432038Y-48659751D01*
X69311306Y-48575213D01*
X69266978Y-48519756D01*
X69259669Y-48449136D01*
X69291700Y-48385776D01*
X69352901Y-48349791D01*
X69383577Y-48346000D01*
X69418134Y-48346000D01*
X69480316Y-48339245D01*
X69616705Y-48288115D01*
X69733261Y-48200761D01*
X69820615Y-48084205D01*
X69871745Y-47947816D01*
X69878500Y-47885634D01*
X69878500Y-46289366D01*
X69871745Y-46227184D01*
X69820615Y-46090795D01*
X69733261Y-45974239D01*
X69701190Y-45950203D01*
X72860743Y-45950203D01*
X72861302Y-45954447D01*
X72861302Y-45954451D01*
X72866141Y-45991203D01*
X72898268Y-46235234D01*
X72974129Y-46512536D01*
X72975813Y-46516484D01*
X73057624Y-46708285D01*
X73086923Y-46776976D01*
X73234561Y-47023661D01*
X73414313Y-47248028D01*
X73622851Y-47445923D01*
X73856317Y-47613686D01*
X73860112Y-47615695D01*
X73860113Y-47615696D01*
X73881869Y-47627215D01*
X74110392Y-47748212D01*
X74380373Y-47847011D01*
X74661264Y-47908255D01*
X74689841Y-47910504D01*
X74884282Y-47925807D01*
X74884291Y-47925807D01*
X74886739Y-47926000D01*
X75042271Y-47926000D01*
X75044407Y-47925854D01*
X75044418Y-47925854D01*
X75252548Y-47911665D01*
X75252554Y-47911664D01*
X75256825Y-47911373D01*
X75261020Y-47910504D01*
X75261022Y-47910504D01*
X75397615Y-47882217D01*
X75538342Y-47853074D01*
X75809343Y-47757107D01*
X75956432Y-47681189D01*
X76061005Y-47627215D01*
X76061006Y-47627215D01*
X76064812Y-47625250D01*
X76068313Y-47622789D01*
X76068317Y-47622787D01*
X76182418Y-47542595D01*
X76300023Y-47459941D01*
X76432991Y-47336379D01*
X76507479Y-47267161D01*
X76507481Y-47267158D01*
X76510622Y-47264240D01*
X76692713Y-47041768D01*
X76842927Y-46796642D01*
X76848132Y-46784786D01*
X76956757Y-46537330D01*
X76958483Y-46533398D01*
X76976678Y-46469526D01*
X77011749Y-46346405D01*
X77037244Y-46256906D01*
X77070798Y-46021139D01*
X77077146Y-45976536D01*
X77077146Y-45976534D01*
X77077751Y-45972284D01*
X77077845Y-45954451D01*
X77079235Y-45689083D01*
X77079235Y-45689076D01*
X77079257Y-45684797D01*
X77074084Y-45645499D01*
X77056786Y-45514110D01*
X77041732Y-45399766D01*
X77039390Y-45391203D01*
X77013456Y-45296407D01*
X76965871Y-45122464D01*
X76946356Y-45076712D01*
X76854763Y-44861976D01*
X76854761Y-44861972D01*
X76853077Y-44858024D01*
X76705439Y-44611339D01*
X76525687Y-44386972D01*
X76339046Y-44209856D01*
X76320258Y-44192027D01*
X76320255Y-44192025D01*
X76317149Y-44189077D01*
X76099068Y-44032369D01*
X76087172Y-44023821D01*
X76087171Y-44023820D01*
X76083683Y-44021314D01*
X76061843Y-44009750D01*
X76004623Y-43979454D01*
X75829608Y-43886788D01*
X75559627Y-43787989D01*
X75278736Y-43726745D01*
X75247685Y-43724301D01*
X75055718Y-43709193D01*
X75055709Y-43709193D01*
X75053261Y-43709000D01*
X74897729Y-43709000D01*
X74895593Y-43709146D01*
X74895582Y-43709146D01*
X74687452Y-43723335D01*
X74687446Y-43723336D01*
X74683175Y-43723627D01*
X74678980Y-43724496D01*
X74678978Y-43724496D01*
X74542417Y-43752776D01*
X74401658Y-43781926D01*
X74130657Y-43877893D01*
X73875188Y-44009750D01*
X73871687Y-44012211D01*
X73871683Y-44012213D01*
X73817753Y-44050116D01*
X73639977Y-44175059D01*
X73598227Y-44213856D01*
X73442040Y-44358994D01*
X73429378Y-44370760D01*
X73247287Y-44593232D01*
X73097073Y-44838358D01*
X72981517Y-45101602D01*
X72980342Y-45105729D01*
X72980341Y-45105730D01*
X72952188Y-45204562D01*
X72902756Y-45378094D01*
X72862249Y-45662716D01*
X72862227Y-45667005D01*
X72862226Y-45667012D01*
X72860765Y-45945917D01*
X72860743Y-45950203D01*
X69701190Y-45950203D01*
X69616705Y-45886885D01*
X69480316Y-45835755D01*
X69418134Y-45829000D01*
X69379500Y-45829000D01*
X69311379Y-45808998D01*
X69264886Y-45755342D01*
X69253500Y-45703000D01*
X69253500Y-45628768D01*
X69254027Y-45617585D01*
X69255702Y-45610092D01*
X69253562Y-45542001D01*
X69253500Y-45538044D01*
X69253500Y-45510144D01*
X69252996Y-45506153D01*
X69252063Y-45494311D01*
X69250923Y-45458036D01*
X69250674Y-45450111D01*
X69248462Y-45442497D01*
X69248461Y-45442492D01*
X69245023Y-45430659D01*
X69241012Y-45411295D01*
X69239467Y-45399064D01*
X69238474Y-45391203D01*
X69235557Y-45383836D01*
X69235556Y-45383831D01*
X69222198Y-45350092D01*
X69218354Y-45338865D01*
X69208230Y-45304022D01*
X69206018Y-45296407D01*
X69195707Y-45278972D01*
X69187012Y-45261224D01*
X69179552Y-45242383D01*
X69159052Y-45214166D01*
X69153564Y-45206613D01*
X69147048Y-45196693D01*
X69128580Y-45165465D01*
X69128578Y-45165462D01*
X69124542Y-45158638D01*
X69110221Y-45144317D01*
X69097380Y-45129283D01*
X69090131Y-45119306D01*
X69085472Y-45112893D01*
X69051395Y-45084702D01*
X69042616Y-45076712D01*
X67910405Y-43944500D01*
X67876379Y-43882188D01*
X67873500Y-43855405D01*
X67873500Y-40294500D01*
X67893502Y-40226379D01*
X67947158Y-40179886D01*
X67999500Y-40168500D01*
X68138134Y-40168500D01*
X68200316Y-40161745D01*
X68336705Y-40110615D01*
X68453261Y-40023261D01*
X68540615Y-39906705D01*
X68591745Y-39770316D01*
X68598500Y-39708134D01*
X68598500Y-39070000D01*
X73216738Y-39070000D01*
X73235767Y-39372462D01*
X73292555Y-39670154D01*
X73386206Y-39958381D01*
X73387893Y-39961967D01*
X73387895Y-39961971D01*
X73430246Y-40051971D01*
X73515242Y-40232598D01*
X73517366Y-40235944D01*
X73517366Y-40235945D01*
X73545298Y-40279958D01*
X73677630Y-40488480D01*
X73680149Y-40491525D01*
X73680152Y-40491529D01*
X73728727Y-40550246D01*
X73870808Y-40721992D01*
X74091729Y-40929450D01*
X74336910Y-41107584D01*
X74340379Y-41109491D01*
X74340382Y-41109493D01*
X74599014Y-41251678D01*
X74602483Y-41253585D01*
X74606152Y-41255038D01*
X74606157Y-41255040D01*
X74880591Y-41363696D01*
X74884261Y-41365149D01*
X75177800Y-41440516D01*
X75478470Y-41478500D01*
X75781530Y-41478500D01*
X76082200Y-41440516D01*
X76375739Y-41365149D01*
X76379409Y-41363696D01*
X76653843Y-41255040D01*
X76653848Y-41255038D01*
X76657517Y-41253585D01*
X76660986Y-41251678D01*
X76919618Y-41109493D01*
X76919621Y-41109491D01*
X76923090Y-41107584D01*
X77168271Y-40929450D01*
X77389192Y-40721992D01*
X77531273Y-40550246D01*
X77579848Y-40491529D01*
X77579851Y-40491525D01*
X77582370Y-40488480D01*
X77714702Y-40279958D01*
X77742634Y-40235945D01*
X77742634Y-40235944D01*
X77744758Y-40232598D01*
X77829754Y-40051971D01*
X77872105Y-39961971D01*
X77872107Y-39961967D01*
X77873794Y-39958381D01*
X77967445Y-39670154D01*
X78024233Y-39372462D01*
X78043262Y-39070000D01*
X78024233Y-38767538D01*
X77967445Y-38469846D01*
X77873794Y-38181619D01*
X77852648Y-38136680D01*
X77788796Y-38000988D01*
X77744758Y-37907402D01*
X77582370Y-37651520D01*
X77389192Y-37418008D01*
X77168271Y-37210550D01*
X77146427Y-37194679D01*
X77062931Y-37134016D01*
X76923090Y-37032416D01*
X76912706Y-37026707D01*
X76660986Y-36888322D01*
X76660985Y-36888321D01*
X76657517Y-36886415D01*
X76653848Y-36884962D01*
X76653843Y-36884960D01*
X76379409Y-36776304D01*
X76379408Y-36776304D01*
X76375739Y-36774851D01*
X76082200Y-36699484D01*
X75781530Y-36661500D01*
X75478470Y-36661500D01*
X75177800Y-36699484D01*
X74884261Y-36774851D01*
X74880592Y-36776304D01*
X74880591Y-36776304D01*
X74606157Y-36884960D01*
X74606152Y-36884962D01*
X74602483Y-36886415D01*
X74599015Y-36888321D01*
X74599014Y-36888322D01*
X74347295Y-37026707D01*
X74336910Y-37032416D01*
X74197069Y-37134016D01*
X74113574Y-37194679D01*
X74091729Y-37210550D01*
X73870808Y-37418008D01*
X73677630Y-37651520D01*
X73515242Y-37907402D01*
X73471204Y-38000988D01*
X73407353Y-38136680D01*
X73386206Y-38181619D01*
X73292555Y-38469846D01*
X73235767Y-38767538D01*
X73216738Y-39070000D01*
X68598500Y-39070000D01*
X68598500Y-37911866D01*
X68591745Y-37849684D01*
X68540615Y-37713295D01*
X68453261Y-37596739D01*
X68336705Y-37509385D01*
X68200316Y-37458255D01*
X68138134Y-37451500D01*
X66829595Y-37451500D01*
X66761474Y-37431498D01*
X66740500Y-37414595D01*
X65129500Y-35803595D01*
X65095474Y-35741283D01*
X65100539Y-35670468D01*
X65143086Y-35613632D01*
X65209606Y-35588821D01*
X65218595Y-35588500D01*
X79005500Y-35588500D01*
X79073621Y-35608502D01*
X79120114Y-35662158D01*
X79131500Y-35714500D01*
X79131500Y-69545500D01*
X79111498Y-69613621D01*
X79057842Y-69660114D01*
X79005500Y-69671500D01*
X37394500Y-69671500D01*
X37326379Y-69651498D01*
X37279886Y-69597842D01*
X37268500Y-69545500D01*
X37268500Y-66210000D01*
X38346738Y-66210000D01*
X38365767Y-66512462D01*
X38422555Y-66810154D01*
X38516206Y-67098381D01*
X38517893Y-67101967D01*
X38517895Y-67101971D01*
X38544351Y-67158192D01*
X38645242Y-67372598D01*
X38807630Y-67628480D01*
X38810149Y-67631525D01*
X38810152Y-67631529D01*
X38841215Y-67669077D01*
X39000808Y-67861992D01*
X39221729Y-68069450D01*
X39466910Y-68247584D01*
X39470379Y-68249491D01*
X39470382Y-68249493D01*
X39488572Y-68259493D01*
X39732483Y-68393585D01*
X39736152Y-68395038D01*
X39736157Y-68395040D01*
X40010591Y-68503696D01*
X40014261Y-68505149D01*
X40307800Y-68580516D01*
X40608470Y-68618500D01*
X40911530Y-68618500D01*
X41212200Y-68580516D01*
X41505739Y-68505149D01*
X41509409Y-68503696D01*
X41783843Y-68395040D01*
X41783848Y-68395038D01*
X41787517Y-68393585D01*
X42031428Y-68259493D01*
X42049618Y-68249493D01*
X42049621Y-68249491D01*
X42053090Y-68247584D01*
X42298271Y-68069450D01*
X42519192Y-67861992D01*
X42678785Y-67669077D01*
X42709848Y-67631529D01*
X42709851Y-67631525D01*
X42712370Y-67628480D01*
X42874758Y-67372598D01*
X42975649Y-67158192D01*
X43002105Y-67101971D01*
X43002107Y-67101967D01*
X43003794Y-67098381D01*
X43097445Y-66810154D01*
X43154233Y-66512462D01*
X43173262Y-66210000D01*
X43154233Y-65907538D01*
X43097445Y-65609846D01*
X43012859Y-65349519D01*
X43005020Y-65325392D01*
X43005020Y-65325391D01*
X43003794Y-65321619D01*
X42991161Y-65294771D01*
X42925554Y-65155349D01*
X42874758Y-65047402D01*
X42712370Y-64791520D01*
X42519192Y-64558008D01*
X42298271Y-64350550D01*
X42053090Y-64172416D01*
X42008480Y-64147891D01*
X41790986Y-64028322D01*
X41790985Y-64028321D01*
X41787517Y-64026415D01*
X41783848Y-64024962D01*
X41783843Y-64024960D01*
X41509409Y-63916304D01*
X41509408Y-63916304D01*
X41505739Y-63914851D01*
X41212200Y-63839484D01*
X40911530Y-63801500D01*
X40608470Y-63801500D01*
X40307800Y-63839484D01*
X40014261Y-63914851D01*
X40010592Y-63916304D01*
X40010591Y-63916304D01*
X39736157Y-64024960D01*
X39736152Y-64024962D01*
X39732483Y-64026415D01*
X39729015Y-64028321D01*
X39729014Y-64028322D01*
X39511521Y-64147891D01*
X39466910Y-64172416D01*
X39221729Y-64350550D01*
X39000808Y-64558008D01*
X38807630Y-64791520D01*
X38645242Y-65047402D01*
X38594446Y-65155349D01*
X38528840Y-65294771D01*
X38516206Y-65321619D01*
X38514980Y-65325391D01*
X38514980Y-65325392D01*
X38507141Y-65349519D01*
X38422555Y-65609846D01*
X38365767Y-65907538D01*
X38346738Y-66210000D01*
X37268500Y-66210000D01*
X37268500Y-39160000D01*
X38316738Y-39160000D01*
X38335767Y-39462462D01*
X38392555Y-39760154D01*
X38441987Y-39912289D01*
X38483867Y-40041181D01*
X38486206Y-40048381D01*
X38487893Y-40051967D01*
X38487895Y-40051971D01*
X38529973Y-40141392D01*
X38615242Y-40322598D01*
X38777630Y-40578480D01*
X38780149Y-40581525D01*
X38780152Y-40581529D01*
X38834292Y-40646973D01*
X38970808Y-40811992D01*
X39191729Y-41019450D01*
X39436910Y-41197584D01*
X39440379Y-41199491D01*
X39440382Y-41199493D01*
X39541421Y-41255040D01*
X39702483Y-41343585D01*
X39706152Y-41345038D01*
X39706157Y-41345040D01*
X39980591Y-41453696D01*
X39984261Y-41455149D01*
X40277800Y-41530516D01*
X40578470Y-41568500D01*
X40881530Y-41568500D01*
X41182200Y-41530516D01*
X41475739Y-41455149D01*
X41479409Y-41453696D01*
X41753843Y-41345040D01*
X41753848Y-41345038D01*
X41757517Y-41343585D01*
X41918579Y-41255040D01*
X42019618Y-41199493D01*
X42019621Y-41199491D01*
X42023090Y-41197584D01*
X42268271Y-41019450D01*
X42489192Y-40811992D01*
X42625708Y-40646973D01*
X42679848Y-40581529D01*
X42679851Y-40581525D01*
X42682370Y-40578480D01*
X42844758Y-40322598D01*
X42930027Y-40141392D01*
X42972105Y-40051971D01*
X42972107Y-40051967D01*
X42973794Y-40048381D01*
X42976134Y-40041181D01*
X43018013Y-39912289D01*
X43067445Y-39760154D01*
X43124233Y-39462462D01*
X43143262Y-39160000D01*
X43124233Y-38857538D01*
X43067445Y-38559846D01*
X42973794Y-38271619D01*
X42931444Y-38181619D01*
X42897777Y-38110074D01*
X42844758Y-37997402D01*
X42813862Y-37948717D01*
X42751013Y-37849684D01*
X42682370Y-37741520D01*
X42653076Y-37706109D01*
X42623930Y-37670879D01*
X42489192Y-37508008D01*
X42268271Y-37300550D01*
X42255112Y-37290989D01*
X42159059Y-37221203D01*
X42023090Y-37122416D01*
X41998629Y-37108968D01*
X41760986Y-36978322D01*
X41760985Y-36978321D01*
X41757517Y-36976415D01*
X41753848Y-36974962D01*
X41753843Y-36974960D01*
X41479409Y-36866304D01*
X41479408Y-36866304D01*
X41475739Y-36864851D01*
X41182200Y-36789484D01*
X40881530Y-36751500D01*
X40578470Y-36751500D01*
X40277800Y-36789484D01*
X39984261Y-36864851D01*
X39980592Y-36866304D01*
X39980591Y-36866304D01*
X39706157Y-36974960D01*
X39706152Y-36974962D01*
X39702483Y-36976415D01*
X39699015Y-36978321D01*
X39699014Y-36978322D01*
X39461372Y-37108968D01*
X39436910Y-37122416D01*
X39300941Y-37221203D01*
X39204889Y-37290989D01*
X39191729Y-37300550D01*
X38970808Y-37508008D01*
X38836070Y-37670879D01*
X38806925Y-37706109D01*
X38777630Y-37741520D01*
X38708987Y-37849684D01*
X38646139Y-37948717D01*
X38615242Y-37997402D01*
X38562223Y-38110074D01*
X38528557Y-38181619D01*
X38486206Y-38271619D01*
X38392555Y-38559846D01*
X38335767Y-38857538D01*
X38316738Y-39160000D01*
X37268500Y-39160000D01*
X37268500Y-35714500D01*
X37288502Y-35646379D01*
X37342158Y-35599886D01*
X37394500Y-35588500D01*
X53651405Y-35588500D01*
X53719526Y-35608502D01*
G37*
%TD.AperFunction*%
%TA.AperFunction,Conductor*%
G36*
X51873527Y-47353502D02*
G01*
X51894501Y-47370405D01*
X59623848Y-55099753D01*
X59631388Y-55108039D01*
X59635500Y-55114518D01*
X59641277Y-55119943D01*
X59685151Y-55161143D01*
X59687993Y-55163898D01*
X59707730Y-55183635D01*
X59710927Y-55186115D01*
X59719947Y-55193818D01*
X59752179Y-55224086D01*
X59759125Y-55227905D01*
X59759128Y-55227907D01*
X59769934Y-55233848D01*
X59786453Y-55244699D01*
X59802459Y-55257114D01*
X59809728Y-55260259D01*
X59809732Y-55260262D01*
X59843037Y-55274674D01*
X59853687Y-55279891D01*
X59892440Y-55301195D01*
X59900115Y-55303166D01*
X59900116Y-55303166D01*
X59912062Y-55306233D01*
X59930766Y-55312637D01*
X59940359Y-55316788D01*
X59949355Y-55320681D01*
X59957178Y-55321920D01*
X59957188Y-55321923D01*
X59993024Y-55327599D01*
X60004644Y-55330005D01*
X60039789Y-55339028D01*
X60047470Y-55341000D01*
X60067724Y-55341000D01*
X60087434Y-55342551D01*
X60107443Y-55345720D01*
X60115335Y-55344974D01*
X60151461Y-55341559D01*
X60163319Y-55341000D01*
X60622783Y-55341000D01*
X60690904Y-55361002D01*
X60737397Y-55414658D01*
X60747501Y-55484932D01*
X60718007Y-55549512D01*
X60661928Y-55586765D01*
X60477314Y-55647106D01*
X60472726Y-55649494D01*
X60472722Y-55649496D01*
X60279546Y-55750057D01*
X60271872Y-55754052D01*
X60267739Y-55757155D01*
X60267736Y-55757157D01*
X60124801Y-55864476D01*
X60086655Y-55893117D01*
X60072294Y-55908145D01*
X60069170Y-55911414D01*
X60007646Y-55946844D01*
X59936733Y-55943387D01*
X59878947Y-55902141D01*
X59860094Y-55868592D01*
X59838768Y-55811705D01*
X59838767Y-55811704D01*
X59835615Y-55803295D01*
X59748261Y-55686739D01*
X59631705Y-55599385D01*
X59495316Y-55548255D01*
X59433134Y-55541500D01*
X57536866Y-55541500D01*
X57474684Y-55548255D01*
X57467289Y-55551027D01*
X57467282Y-55551029D01*
X57441163Y-55560821D01*
X57370356Y-55566004D01*
X57307839Y-55531934D01*
X51914364Y-50138459D01*
X51880338Y-50076147D01*
X51880940Y-50019950D01*
X51933380Y-49801524D01*
X51933381Y-49801518D01*
X51934535Y-49796711D01*
X51953165Y-49560000D01*
X51934535Y-49323289D01*
X51905113Y-49200735D01*
X51887564Y-49127639D01*
X51879105Y-49092406D01*
X51860579Y-49047679D01*
X51790135Y-48877611D01*
X51790133Y-48877607D01*
X51788240Y-48873037D01*
X51695628Y-48721908D01*
X51666759Y-48674798D01*
X51666755Y-48674792D01*
X51664176Y-48670584D01*
X51509969Y-48490031D01*
X51329416Y-48335824D01*
X51325208Y-48333245D01*
X51325202Y-48333241D01*
X51131183Y-48214346D01*
X51126963Y-48211760D01*
X51122393Y-48209867D01*
X51122389Y-48209865D01*
X50912167Y-48122789D01*
X50912165Y-48122788D01*
X50907594Y-48120895D01*
X50784701Y-48091391D01*
X50681524Y-48066620D01*
X50681518Y-48066619D01*
X50676711Y-48065465D01*
X50440000Y-48046835D01*
X50203289Y-48065465D01*
X50198482Y-48066619D01*
X50198476Y-48066620D01*
X50095299Y-48091391D01*
X49972406Y-48120895D01*
X49967835Y-48122788D01*
X49967833Y-48122789D01*
X49757611Y-48209865D01*
X49757607Y-48209867D01*
X49753037Y-48211760D01*
X49748817Y-48214346D01*
X49554798Y-48333241D01*
X49554792Y-48333245D01*
X49550584Y-48335824D01*
X49370031Y-48490031D01*
X49215824Y-48670584D01*
X49213245Y-48674792D01*
X49213241Y-48674798D01*
X49184372Y-48721908D01*
X49091760Y-48873037D01*
X49089867Y-48877607D01*
X49089865Y-48877611D01*
X49019421Y-49047679D01*
X49000895Y-49092406D01*
X48992436Y-49127639D01*
X48974888Y-49200735D01*
X48945465Y-49323289D01*
X48926835Y-49560000D01*
X48945465Y-49796711D01*
X49000895Y-50027594D01*
X49002788Y-50032165D01*
X49002789Y-50032167D01*
X49078312Y-50214496D01*
X49091760Y-50246963D01*
X49094346Y-50251183D01*
X49213241Y-50445202D01*
X49213245Y-50445208D01*
X49215824Y-50449416D01*
X49370031Y-50629969D01*
X49550584Y-50784176D01*
X49554792Y-50786755D01*
X49554798Y-50786759D01*
X49727933Y-50892856D01*
X49753037Y-50908240D01*
X49757607Y-50910133D01*
X49757611Y-50910135D01*
X49967833Y-50997211D01*
X49972406Y-50999105D01*
X50052609Y-51018360D01*
X50198476Y-51053380D01*
X50198482Y-51053381D01*
X50203289Y-51054535D01*
X50440000Y-51073165D01*
X50676711Y-51054535D01*
X50681518Y-51053381D01*
X50681524Y-51053380D01*
X50899951Y-51000940D01*
X50970859Y-51004487D01*
X51018460Y-51034364D01*
X56700001Y-56715905D01*
X56734027Y-56778217D01*
X56728962Y-56849032D01*
X56700001Y-56894095D01*
X55307343Y-58286752D01*
X53917747Y-59676348D01*
X53909461Y-59683888D01*
X53902982Y-59688000D01*
X53897557Y-59693777D01*
X53856357Y-59737651D01*
X53853602Y-59740493D01*
X53833865Y-59760230D01*
X53831385Y-59763427D01*
X53823682Y-59772447D01*
X53793414Y-59804679D01*
X53789595Y-59811625D01*
X53789593Y-59811628D01*
X53783652Y-59822434D01*
X53772801Y-59838953D01*
X53760386Y-59854959D01*
X53757241Y-59862228D01*
X53757238Y-59862232D01*
X53742826Y-59895537D01*
X53737609Y-59906187D01*
X53716305Y-59944940D01*
X53714334Y-59952615D01*
X53714334Y-59952616D01*
X53711267Y-59964562D01*
X53704863Y-59983266D01*
X53696819Y-60001855D01*
X53695580Y-60009678D01*
X53695577Y-60009688D01*
X53689901Y-60045524D01*
X53687495Y-60057144D01*
X53676500Y-60099970D01*
X53676500Y-60120224D01*
X53674949Y-60139934D01*
X53671780Y-60159943D01*
X53672526Y-60167835D01*
X53675941Y-60203961D01*
X53676500Y-60215819D01*
X53676500Y-65781233D01*
X53675973Y-65792416D01*
X53674298Y-65799909D01*
X53674547Y-65807835D01*
X53674547Y-65807836D01*
X53676438Y-65867986D01*
X53676500Y-65871945D01*
X53676500Y-65899856D01*
X53676997Y-65903790D01*
X53676997Y-65903791D01*
X53677005Y-65903856D01*
X53677938Y-65915693D01*
X53679327Y-65959889D01*
X53684978Y-65979339D01*
X53688987Y-65998700D01*
X53691526Y-66018797D01*
X53694445Y-66026168D01*
X53694445Y-66026170D01*
X53707804Y-66059912D01*
X53711649Y-66071142D01*
X53723982Y-66113593D01*
X53728015Y-66120412D01*
X53728017Y-66120417D01*
X53734293Y-66131028D01*
X53742988Y-66148776D01*
X53750448Y-66167617D01*
X53755110Y-66174033D01*
X53755110Y-66174034D01*
X53776436Y-66203387D01*
X53782952Y-66213307D01*
X53784570Y-66216042D01*
X53805458Y-66251362D01*
X53819779Y-66265683D01*
X53832619Y-66280716D01*
X53844528Y-66297107D01*
X53850634Y-66302158D01*
X53878605Y-66325298D01*
X53887384Y-66333288D01*
X54115000Y-66560904D01*
X54149026Y-66623216D01*
X54143961Y-66694031D01*
X54115000Y-66739094D01*
X54074499Y-66779595D01*
X54012187Y-66813621D01*
X53985404Y-66816500D01*
X51909430Y-66816500D01*
X51841309Y-66796498D01*
X51794816Y-66742842D01*
X51784712Y-66672568D01*
X51812909Y-66609509D01*
X51832499Y-66586162D01*
X51839437Y-66576031D01*
X51931094Y-66409308D01*
X51935924Y-66398038D01*
X51993452Y-66216685D01*
X51996002Y-66204691D01*
X52012607Y-66056650D01*
X52013000Y-66049626D01*
X52013000Y-66042115D01*
X52008525Y-66026876D01*
X52007135Y-66025671D01*
X51999452Y-66024000D01*
X50869500Y-66024000D01*
X50801379Y-66003998D01*
X50754886Y-65950342D01*
X50743500Y-65898000D01*
X50743500Y-65497885D01*
X51234000Y-65497885D01*
X51238475Y-65513124D01*
X51239865Y-65514329D01*
X51247548Y-65516000D01*
X51994885Y-65516000D01*
X52010124Y-65511525D01*
X52011329Y-65510135D01*
X52013000Y-65502452D01*
X52013000Y-65497110D01*
X52012700Y-65490965D01*
X51998830Y-65349519D01*
X51996447Y-65337481D01*
X51941458Y-65155349D01*
X51936783Y-65144007D01*
X51847465Y-64976023D01*
X51840678Y-64965807D01*
X51720428Y-64818366D01*
X51711784Y-64809662D01*
X51565191Y-64688390D01*
X51555020Y-64681530D01*
X51387658Y-64591038D01*
X51376353Y-64586286D01*
X51251308Y-64547578D01*
X51237205Y-64547372D01*
X51234000Y-64554127D01*
X51234000Y-65497885D01*
X50743500Y-65497885D01*
X50743500Y-65493996D01*
X50728723Y-65343287D01*
X50728032Y-65340998D01*
X50726000Y-65320276D01*
X50726000Y-64561014D01*
X50722027Y-64547483D01*
X50714232Y-64546363D01*
X50597068Y-64580846D01*
X50585700Y-64585439D01*
X50527875Y-64615669D01*
X50458239Y-64629503D01*
X50392179Y-64603493D01*
X50350667Y-64545897D01*
X50343500Y-64504007D01*
X50343500Y-63658768D01*
X50344027Y-63647585D01*
X50345702Y-63640092D01*
X50343562Y-63572001D01*
X50343500Y-63568044D01*
X50343500Y-63540144D01*
X50342996Y-63536153D01*
X50342063Y-63524311D01*
X50340923Y-63488036D01*
X50340674Y-63480111D01*
X50338462Y-63472497D01*
X50338461Y-63472492D01*
X50335023Y-63460659D01*
X50331012Y-63441295D01*
X50329467Y-63429064D01*
X50328474Y-63421203D01*
X50325557Y-63413836D01*
X50325556Y-63413831D01*
X50312198Y-63380092D01*
X50308354Y-63368865D01*
X50298230Y-63334022D01*
X50296018Y-63326407D01*
X50285707Y-63308972D01*
X50277012Y-63291224D01*
X50269552Y-63272383D01*
X50243564Y-63236613D01*
X50237048Y-63226693D01*
X50218580Y-63195465D01*
X50218578Y-63195462D01*
X50214542Y-63188638D01*
X50200221Y-63174317D01*
X50187380Y-63159283D01*
X50180131Y-63149306D01*
X50175472Y-63142893D01*
X50169368Y-63137843D01*
X50169363Y-63137838D01*
X50141402Y-63114707D01*
X50132622Y-63106717D01*
X49768953Y-62743048D01*
X49734927Y-62680736D01*
X49739992Y-62609921D01*
X49782539Y-62553085D01*
X49849059Y-62528274D01*
X49897715Y-62534360D01*
X50036265Y-62580315D01*
X50049632Y-62583181D01*
X50142270Y-62592672D01*
X50148685Y-62593000D01*
X50172885Y-62593000D01*
X50188124Y-62588525D01*
X50189329Y-62587135D01*
X50191000Y-62579452D01*
X50191000Y-62574885D01*
X50699000Y-62574885D01*
X50703475Y-62590124D01*
X50704865Y-62591329D01*
X50712548Y-62593000D01*
X50741266Y-62593000D01*
X50747782Y-62592663D01*
X50841632Y-62582925D01*
X50855028Y-62580032D01*
X51006453Y-62529512D01*
X51019615Y-62523347D01*
X51154992Y-62439574D01*
X51166390Y-62430540D01*
X51278863Y-62317871D01*
X51287875Y-62306460D01*
X51371412Y-62170937D01*
X51377556Y-62157759D01*
X51427815Y-62006234D01*
X51430681Y-61992868D01*
X51440172Y-61900230D01*
X51440500Y-61893815D01*
X51440500Y-61882115D01*
X51436025Y-61866876D01*
X51434635Y-61865671D01*
X51426952Y-61864000D01*
X50717115Y-61864000D01*
X50701876Y-61868475D01*
X50700671Y-61869865D01*
X50699000Y-61877548D01*
X50699000Y-62574885D01*
X50191000Y-62574885D01*
X50191000Y-61337885D01*
X50699000Y-61337885D01*
X50703475Y-61353124D01*
X50704865Y-61354329D01*
X50712548Y-61356000D01*
X51422385Y-61356000D01*
X51437624Y-61351525D01*
X51438829Y-61350135D01*
X51440500Y-61342452D01*
X51440500Y-61326234D01*
X51440163Y-61319718D01*
X51430425Y-61225868D01*
X51427532Y-61212472D01*
X51377012Y-61061047D01*
X51370847Y-61047885D01*
X51287074Y-60912508D01*
X51278040Y-60901110D01*
X51165371Y-60788637D01*
X51153960Y-60779625D01*
X51018437Y-60696088D01*
X51005259Y-60689944D01*
X50853734Y-60639685D01*
X50840368Y-60636819D01*
X50747730Y-60627328D01*
X50741315Y-60627000D01*
X50717115Y-60627000D01*
X50701876Y-60631475D01*
X50700671Y-60632865D01*
X50699000Y-60640548D01*
X50699000Y-61337885D01*
X50191000Y-61337885D01*
X50191000Y-60645115D01*
X50186525Y-60629876D01*
X50185135Y-60628671D01*
X50177452Y-60627000D01*
X50148734Y-60627000D01*
X50142218Y-60627337D01*
X50048368Y-60637075D01*
X50034972Y-60639968D01*
X49883547Y-60690488D01*
X49870385Y-60696653D01*
X49735008Y-60780426D01*
X49723610Y-60789460D01*
X49622107Y-60891140D01*
X49559824Y-60925219D01*
X49489004Y-60920216D01*
X49443916Y-60891295D01*
X49340680Y-60788239D01*
X49335503Y-60783071D01*
X49329276Y-60779233D01*
X49329274Y-60779231D01*
X49313384Y-60769436D01*
X49265891Y-60716664D01*
X49253500Y-60662176D01*
X49253500Y-58388670D01*
X49273502Y-58320549D01*
X49290328Y-58299651D01*
X49300748Y-58289213D01*
X49363031Y-58255135D01*
X49433851Y-58260138D01*
X49478937Y-58289059D01*
X49581812Y-58391754D01*
X49581817Y-58391758D01*
X49586997Y-58396929D01*
X49593227Y-58400769D01*
X49593228Y-58400770D01*
X49713791Y-58475086D01*
X49735080Y-58488209D01*
X49900191Y-58542974D01*
X49907027Y-58543674D01*
X49907030Y-58543675D01*
X49958526Y-58548951D01*
X50002928Y-58553500D01*
X50602072Y-58553500D01*
X50605318Y-58553163D01*
X50605322Y-58553163D01*
X50699235Y-58543419D01*
X50699239Y-58543418D01*
X50706093Y-58542707D01*
X50712629Y-58540526D01*
X50712631Y-58540526D01*
X50845395Y-58496232D01*
X50871107Y-58487654D01*
X51019031Y-58396116D01*
X51026464Y-58388670D01*
X51136758Y-58278184D01*
X51136762Y-58278179D01*
X51141929Y-58273003D01*
X51149859Y-58260138D01*
X51229369Y-58131150D01*
X51229370Y-58131148D01*
X51233209Y-58124920D01*
X51287974Y-57959809D01*
X51289009Y-57949714D01*
X51298172Y-57860271D01*
X51298500Y-57857072D01*
X51298500Y-57282928D01*
X51292188Y-57222094D01*
X51288419Y-57185765D01*
X51288418Y-57185761D01*
X51287707Y-57178907D01*
X51282941Y-57164620D01*
X51234972Y-57020841D01*
X51232654Y-57013893D01*
X51141116Y-56865969D01*
X51018003Y-56743071D01*
X51011776Y-56739233D01*
X51011774Y-56739231D01*
X50995884Y-56729436D01*
X50948391Y-56676664D01*
X50936000Y-56622176D01*
X50936000Y-54781268D01*
X50936527Y-54770085D01*
X50938202Y-54762592D01*
X50936062Y-54694501D01*
X50936000Y-54690544D01*
X50936000Y-54662644D01*
X50935496Y-54658653D01*
X50934563Y-54646811D01*
X50933423Y-54610536D01*
X50933174Y-54602611D01*
X50927521Y-54583152D01*
X50923512Y-54563793D01*
X50923346Y-54562483D01*
X50920974Y-54543703D01*
X50918058Y-54536337D01*
X50918056Y-54536331D01*
X50904700Y-54502598D01*
X50900855Y-54491368D01*
X50890730Y-54456517D01*
X50890730Y-54456516D01*
X50888519Y-54448907D01*
X50878205Y-54431466D01*
X50869508Y-54413713D01*
X50864972Y-54402258D01*
X50862052Y-54394883D01*
X50836063Y-54359112D01*
X50829547Y-54349192D01*
X50811078Y-54317963D01*
X50807042Y-54311138D01*
X50792721Y-54296817D01*
X50779880Y-54281783D01*
X50772631Y-54271806D01*
X50767972Y-54265393D01*
X50733895Y-54237202D01*
X50725116Y-54229212D01*
X48380405Y-51884500D01*
X48346379Y-51822188D01*
X48343500Y-51795405D01*
X48343500Y-47764594D01*
X48363502Y-47696473D01*
X48380405Y-47675499D01*
X48685499Y-47370405D01*
X48747811Y-47336379D01*
X48774594Y-47333500D01*
X51805406Y-47333500D01*
X51873527Y-47353502D01*
G37*
%TD.AperFunction*%
%TA.AperFunction,Conductor*%
G36*
X64642012Y-46188371D02*
G01*
X64648595Y-46194500D01*
X65505067Y-47050972D01*
X65539093Y-47113284D01*
X65534028Y-47184099D01*
X65491481Y-47240935D01*
X65469221Y-47254262D01*
X65453587Y-47261552D01*
X65444093Y-47267034D01*
X65402851Y-47295911D01*
X65394477Y-47306387D01*
X65401545Y-47319834D01*
X66080000Y-47998290D01*
X67118388Y-49036677D01*
X67130162Y-49043106D01*
X67142176Y-49033810D01*
X67170466Y-48993407D01*
X67175948Y-48983913D01*
X67183238Y-48968279D01*
X67230155Y-48914993D01*
X67298432Y-48895532D01*
X67366392Y-48916073D01*
X67386528Y-48932433D01*
X67439389Y-48985294D01*
X67473415Y-49047606D01*
X67468350Y-49118421D01*
X67464494Y-49127626D01*
X67448573Y-49161769D01*
X67435204Y-49190439D01*
X67435202Y-49190444D01*
X67432880Y-49195424D01*
X67375885Y-49408129D01*
X67356693Y-49627500D01*
X67375885Y-49846871D01*
X67432880Y-50059576D01*
X67463576Y-50125404D01*
X67523618Y-50254166D01*
X67523621Y-50254171D01*
X67525944Y-50259153D01*
X67529100Y-50263660D01*
X67529101Y-50263662D01*
X67640721Y-50423071D01*
X67652251Y-50439538D01*
X67807962Y-50595249D01*
X67812471Y-50598406D01*
X67812473Y-50598408D01*
X67852183Y-50626213D01*
X67988346Y-50721556D01*
X67993328Y-50723879D01*
X67993333Y-50723882D01*
X68120768Y-50783305D01*
X68174053Y-50830222D01*
X68193514Y-50898499D01*
X68172972Y-50966459D01*
X68120768Y-51011695D01*
X67993334Y-51071118D01*
X67993329Y-51071121D01*
X67988347Y-51073444D01*
X67983840Y-51076600D01*
X67983838Y-51076601D01*
X67812473Y-51196592D01*
X67812470Y-51196594D01*
X67807962Y-51199751D01*
X67652251Y-51355462D01*
X67649094Y-51359970D01*
X67649092Y-51359973D01*
X67530631Y-51529153D01*
X67525944Y-51535847D01*
X67523621Y-51540829D01*
X67523618Y-51540834D01*
X67518877Y-51551002D01*
X67432880Y-51735424D01*
X67375885Y-51948129D01*
X67356693Y-52167500D01*
X67375885Y-52386871D01*
X67432880Y-52599576D01*
X67476415Y-52692938D01*
X67523618Y-52794166D01*
X67523621Y-52794171D01*
X67525944Y-52799153D01*
X67529100Y-52803660D01*
X67529101Y-52803662D01*
X67603143Y-52909404D01*
X67652251Y-52979538D01*
X67807962Y-53135249D01*
X67988346Y-53261556D01*
X67993328Y-53263879D01*
X67993333Y-53263882D01*
X68120768Y-53323305D01*
X68174053Y-53370222D01*
X68193514Y-53438499D01*
X68172972Y-53506459D01*
X68120768Y-53551695D01*
X67993334Y-53611118D01*
X67993329Y-53611121D01*
X67988347Y-53613444D01*
X67983840Y-53616600D01*
X67983838Y-53616601D01*
X67812473Y-53736592D01*
X67812470Y-53736594D01*
X67807962Y-53739751D01*
X67652251Y-53895462D01*
X67649094Y-53899970D01*
X67649092Y-53899973D01*
X67615750Y-53947591D01*
X67602676Y-53966263D01*
X67564859Y-54020271D01*
X67509402Y-54064599D01*
X67461646Y-54074000D01*
X67369576Y-54074000D01*
X67301455Y-54053998D01*
X67254962Y-54000342D01*
X67244858Y-53930068D01*
X67255382Y-53894749D01*
X67264794Y-53874566D01*
X67264797Y-53874558D01*
X67267120Y-53869576D01*
X67324115Y-53656871D01*
X67343307Y-53437500D01*
X67324115Y-53218129D01*
X67267120Y-53005424D01*
X67222345Y-52909404D01*
X67176382Y-52810834D01*
X67176379Y-52810829D01*
X67174056Y-52805847D01*
X67146922Y-52767095D01*
X67050908Y-52629973D01*
X67050906Y-52629970D01*
X67047749Y-52625462D01*
X66892038Y-52469751D01*
X66861825Y-52448595D01*
X66765849Y-52381392D01*
X66711654Y-52343444D01*
X66706672Y-52341121D01*
X66706667Y-52341118D01*
X66579232Y-52281695D01*
X66525947Y-52234778D01*
X66506486Y-52166501D01*
X66527028Y-52098541D01*
X66579232Y-52053305D01*
X66706667Y-51993882D01*
X66706672Y-51993879D01*
X66711654Y-51991556D01*
X66892038Y-51865249D01*
X67047749Y-51709538D01*
X67092005Y-51646335D01*
X67170899Y-51533662D01*
X67170900Y-51533660D01*
X67174056Y-51529153D01*
X67176379Y-51524171D01*
X67176382Y-51524166D01*
X67243723Y-51379751D01*
X67267120Y-51329576D01*
X67324115Y-51116871D01*
X67343307Y-50897500D01*
X67324115Y-50678129D01*
X67267120Y-50465424D01*
X67203732Y-50329487D01*
X67176382Y-50270834D01*
X67176379Y-50270829D01*
X67174056Y-50265847D01*
X67163788Y-50251183D01*
X67050908Y-50089973D01*
X67050906Y-50089970D01*
X67047749Y-50085462D01*
X66892038Y-49929751D01*
X66711654Y-49803444D01*
X66706672Y-49801121D01*
X66706667Y-49801118D01*
X66578641Y-49741419D01*
X66525356Y-49694502D01*
X66505895Y-49626224D01*
X66526437Y-49558264D01*
X66578641Y-49513029D01*
X66706416Y-49453447D01*
X66715912Y-49447964D01*
X66757148Y-49419090D01*
X66765523Y-49408612D01*
X66758457Y-49395168D01*
X66092811Y-48729521D01*
X66078868Y-48721908D01*
X66077034Y-48722039D01*
X66070420Y-48726290D01*
X65400820Y-49395891D01*
X65394393Y-49407661D01*
X65403687Y-49419675D01*
X65444088Y-49447964D01*
X65453584Y-49453447D01*
X65581359Y-49513029D01*
X65634644Y-49559946D01*
X65654105Y-49628224D01*
X65633563Y-49696184D01*
X65581359Y-49741419D01*
X65453334Y-49801118D01*
X65453329Y-49801121D01*
X65448347Y-49803444D01*
X65443840Y-49806600D01*
X65443838Y-49806601D01*
X65272473Y-49926592D01*
X65272470Y-49926594D01*
X65267962Y-49929751D01*
X65112251Y-50085462D01*
X65109094Y-50089970D01*
X65109092Y-50089973D01*
X65024859Y-50210271D01*
X64969402Y-50254599D01*
X64921646Y-50264000D01*
X64572095Y-50264000D01*
X64503974Y-50243998D01*
X64482996Y-50227092D01*
X64470401Y-50214496D01*
X64436378Y-50152182D01*
X64433500Y-50125404D01*
X64433500Y-48362975D01*
X64817674Y-48362975D01*
X64835901Y-48571304D01*
X64837804Y-48582099D01*
X64891928Y-48784095D01*
X64895674Y-48794387D01*
X64984054Y-48983917D01*
X64989534Y-48993407D01*
X65018411Y-49034649D01*
X65028887Y-49043023D01*
X65042334Y-49035955D01*
X65707979Y-48370311D01*
X65715592Y-48356368D01*
X65715461Y-48354534D01*
X65711210Y-48347920D01*
X65041609Y-47678320D01*
X65029839Y-47671893D01*
X65017824Y-47681189D01*
X64989534Y-47721593D01*
X64984054Y-47731083D01*
X64895674Y-47920613D01*
X64891928Y-47930905D01*
X64837804Y-48132901D01*
X64835901Y-48143696D01*
X64817674Y-48352025D01*
X64817674Y-48362975D01*
X64433500Y-48362975D01*
X64433500Y-46283595D01*
X64453502Y-46215474D01*
X64507158Y-46168981D01*
X64577432Y-46158877D01*
X64642012Y-46188371D01*
G37*
%TD.AperFunction*%
%TA.AperFunction,Conductor*%
G36*
X57794526Y-36563502D02*
G01*
X57841019Y-36617158D01*
X57851123Y-36687432D01*
X57821629Y-36752012D01*
X57815505Y-36758590D01*
X57507742Y-37066353D01*
X57499463Y-37073887D01*
X57492982Y-37078000D01*
X57453937Y-37119579D01*
X57446357Y-37127651D01*
X57443602Y-37130493D01*
X57423865Y-37150230D01*
X57421385Y-37153427D01*
X57413682Y-37162447D01*
X57383414Y-37194679D01*
X57379595Y-37201625D01*
X57379593Y-37201628D01*
X57373652Y-37212434D01*
X57362801Y-37228953D01*
X57350386Y-37244959D01*
X57347241Y-37252228D01*
X57347238Y-37252232D01*
X57332826Y-37285537D01*
X57327609Y-37296187D01*
X57306305Y-37334940D01*
X57304334Y-37342615D01*
X57304334Y-37342616D01*
X57301267Y-37354562D01*
X57294863Y-37373266D01*
X57286819Y-37391855D01*
X57285580Y-37399678D01*
X57285577Y-37399688D01*
X57279901Y-37435524D01*
X57277495Y-37447144D01*
X57274512Y-37458763D01*
X57266500Y-37489970D01*
X57266500Y-37510224D01*
X57264949Y-37529934D01*
X57261780Y-37549943D01*
X57262526Y-37557835D01*
X57265941Y-37593961D01*
X57266500Y-37605819D01*
X57266500Y-40171233D01*
X57265973Y-40182416D01*
X57264298Y-40189909D01*
X57264547Y-40197835D01*
X57264547Y-40197836D01*
X57266438Y-40257986D01*
X57266500Y-40261945D01*
X57266500Y-40289856D01*
X57266997Y-40293790D01*
X57266997Y-40293791D01*
X57267005Y-40293856D01*
X57267938Y-40305693D01*
X57269327Y-40349889D01*
X57274978Y-40369339D01*
X57278987Y-40388700D01*
X57281526Y-40408797D01*
X57284445Y-40416168D01*
X57284445Y-40416170D01*
X57297804Y-40449912D01*
X57301649Y-40461142D01*
X57313982Y-40503593D01*
X57318015Y-40510412D01*
X57318017Y-40510417D01*
X57324293Y-40521028D01*
X57332988Y-40538776D01*
X57340448Y-40557617D01*
X57345110Y-40564033D01*
X57345110Y-40564034D01*
X57366436Y-40593387D01*
X57372952Y-40603307D01*
X57395458Y-40641362D01*
X57409779Y-40655683D01*
X57422619Y-40670716D01*
X57434528Y-40687107D01*
X57466184Y-40713295D01*
X57468605Y-40715298D01*
X57477384Y-40723288D01*
X60671238Y-43917142D01*
X60705264Y-43979454D01*
X60700199Y-44050269D01*
X60657652Y-44107105D01*
X60621287Y-44126002D01*
X60592235Y-44135497D01*
X60592229Y-44135500D01*
X60587314Y-44137106D01*
X60582726Y-44139494D01*
X60582722Y-44139496D01*
X60417128Y-44225699D01*
X60381872Y-44244052D01*
X60377739Y-44247155D01*
X60377736Y-44247157D01*
X60200790Y-44380012D01*
X60196655Y-44383117D01*
X60189778Y-44390314D01*
X60178787Y-44401815D01*
X60117263Y-44437245D01*
X60046351Y-44433788D01*
X59988564Y-44392543D01*
X59969711Y-44358994D01*
X59948324Y-44301946D01*
X59939786Y-44286351D01*
X59863285Y-44184276D01*
X59850724Y-44171715D01*
X59748649Y-44095214D01*
X59733054Y-44086676D01*
X59612606Y-44041522D01*
X59597351Y-44037895D01*
X59546486Y-44032369D01*
X59539672Y-44032000D01*
X58867115Y-44032000D01*
X58851876Y-44036475D01*
X58850671Y-44037865D01*
X58849000Y-44045548D01*
X58849000Y-46829884D01*
X58853475Y-46845123D01*
X58854865Y-46846328D01*
X58862548Y-46847999D01*
X59539669Y-46847999D01*
X59546490Y-46847629D01*
X59597352Y-46842105D01*
X59612604Y-46838479D01*
X59733054Y-46793324D01*
X59748649Y-46784786D01*
X59850724Y-46708285D01*
X59863285Y-46695724D01*
X59939786Y-46593649D01*
X59948324Y-46578054D01*
X59969773Y-46520840D01*
X60012415Y-46464075D01*
X60078977Y-46439376D01*
X60148325Y-46454584D01*
X60168240Y-46468126D01*
X60324349Y-46597730D01*
X60437073Y-46663600D01*
X60439070Y-46664767D01*
X60487794Y-46716405D01*
X60501500Y-46773555D01*
X60501500Y-50140500D01*
X60481498Y-50208621D01*
X60427842Y-50255114D01*
X60375500Y-50266500D01*
X60355428Y-50266500D01*
X60352182Y-50266837D01*
X60352178Y-50266837D01*
X60258265Y-50276581D01*
X60258261Y-50276582D01*
X60251407Y-50277293D01*
X60244871Y-50279474D01*
X60244869Y-50279474D01*
X60112105Y-50323768D01*
X60086393Y-50332346D01*
X59938469Y-50423884D01*
X59933296Y-50429066D01*
X59831753Y-50530786D01*
X59769470Y-50564865D01*
X59698650Y-50559862D01*
X59653563Y-50530941D01*
X59550688Y-50428246D01*
X59550683Y-50428242D01*
X59545503Y-50423071D01*
X59539272Y-50419230D01*
X59403650Y-50335631D01*
X59403648Y-50335630D01*
X59397420Y-50331791D01*
X59232309Y-50277026D01*
X59225473Y-50276326D01*
X59225470Y-50276325D01*
X59171873Y-50270834D01*
X59129572Y-50266500D01*
X58530428Y-50266500D01*
X58527182Y-50266837D01*
X58527178Y-50266837D01*
X58433265Y-50276581D01*
X58433261Y-50276582D01*
X58426407Y-50277293D01*
X58419871Y-50279474D01*
X58419869Y-50279474D01*
X58287105Y-50323768D01*
X58261393Y-50332346D01*
X58113469Y-50423884D01*
X58108296Y-50429066D01*
X57995742Y-50541816D01*
X57995738Y-50541821D01*
X57990571Y-50546997D01*
X57986731Y-50553227D01*
X57986730Y-50553228D01*
X57906364Y-50683606D01*
X57899291Y-50695080D01*
X57844526Y-50860191D01*
X57843826Y-50867027D01*
X57843825Y-50867030D01*
X57839868Y-50905654D01*
X57834000Y-50962928D01*
X57834000Y-51213906D01*
X57813998Y-51282027D01*
X57760342Y-51328520D01*
X57690068Y-51338624D01*
X57625488Y-51309130D01*
X57618905Y-51303001D01*
X55211437Y-48895532D01*
X52700574Y-46384669D01*
X57187001Y-46384669D01*
X57187371Y-46391490D01*
X57192895Y-46442352D01*
X57196521Y-46457604D01*
X57241676Y-46578054D01*
X57250214Y-46593649D01*
X57326715Y-46695724D01*
X57339276Y-46708285D01*
X57441351Y-46784786D01*
X57456946Y-46793324D01*
X57577394Y-46838478D01*
X57592649Y-46842105D01*
X57643514Y-46847631D01*
X57650328Y-46848000D01*
X58322885Y-46848000D01*
X58338124Y-46843525D01*
X58339329Y-46842135D01*
X58341000Y-46834452D01*
X58341000Y-45712115D01*
X58336525Y-45696876D01*
X58335135Y-45695671D01*
X58327452Y-45694000D01*
X57205116Y-45694000D01*
X57189877Y-45698475D01*
X57188672Y-45699865D01*
X57187001Y-45707548D01*
X57187001Y-46384669D01*
X52700574Y-46384669D01*
X52623652Y-46307747D01*
X52616112Y-46299461D01*
X52612000Y-46292982D01*
X52562348Y-46246356D01*
X52559507Y-46243602D01*
X52539770Y-46223865D01*
X52536573Y-46221385D01*
X52527551Y-46213680D01*
X52514116Y-46201064D01*
X52495321Y-46183414D01*
X52488375Y-46179595D01*
X52488372Y-46179593D01*
X52477566Y-46173652D01*
X52461047Y-46162801D01*
X52455988Y-46158877D01*
X52445041Y-46150386D01*
X52437772Y-46147241D01*
X52437768Y-46147238D01*
X52404463Y-46132826D01*
X52393813Y-46127609D01*
X52355060Y-46106305D01*
X52335437Y-46101267D01*
X52316734Y-46094863D01*
X52305420Y-46089967D01*
X52305419Y-46089967D01*
X52298145Y-46086819D01*
X52290322Y-46085580D01*
X52290312Y-46085577D01*
X52254476Y-46079901D01*
X52242856Y-46077495D01*
X52207711Y-46068472D01*
X52207710Y-46068472D01*
X52200030Y-46066500D01*
X52179776Y-46066500D01*
X52160065Y-46064949D01*
X52147886Y-46063020D01*
X52140057Y-46061780D01*
X52110786Y-46064547D01*
X52096039Y-46065941D01*
X52084181Y-46066500D01*
X48538767Y-46066500D01*
X48527584Y-46065973D01*
X48520091Y-46064298D01*
X48512165Y-46064547D01*
X48512164Y-46064547D01*
X48452014Y-46066438D01*
X48448055Y-46066500D01*
X48420144Y-46066500D01*
X48416210Y-46066997D01*
X48416209Y-46066997D01*
X48416144Y-46067005D01*
X48404307Y-46067938D01*
X48372490Y-46068938D01*
X48368029Y-46069078D01*
X48360110Y-46069327D01*
X48342454Y-46074456D01*
X48340658Y-46074978D01*
X48321306Y-46078986D01*
X48314235Y-46079880D01*
X48301203Y-46081526D01*
X48293834Y-46084443D01*
X48293832Y-46084444D01*
X48260097Y-46097800D01*
X48248869Y-46101645D01*
X48206407Y-46113982D01*
X48199585Y-46118016D01*
X48199579Y-46118019D01*
X48188968Y-46124294D01*
X48171218Y-46132990D01*
X48159756Y-46137528D01*
X48159751Y-46137531D01*
X48152383Y-46140448D01*
X48134970Y-46153099D01*
X48116625Y-46166427D01*
X48106707Y-46172943D01*
X48095463Y-46179593D01*
X48068637Y-46195458D01*
X48054313Y-46209782D01*
X48039281Y-46222621D01*
X48022893Y-46234528D01*
X47994712Y-46268593D01*
X47986722Y-46277373D01*
X47828595Y-46435500D01*
X47766283Y-46469526D01*
X47695468Y-46464461D01*
X47638632Y-46421914D01*
X47613821Y-46355394D01*
X47613500Y-46346405D01*
X47613500Y-45734594D01*
X47633502Y-45666473D01*
X47650405Y-45645499D01*
X48128019Y-45167885D01*
X57187000Y-45167885D01*
X57191475Y-45183124D01*
X57192865Y-45184329D01*
X57200548Y-45186000D01*
X58322885Y-45186000D01*
X58338124Y-45181525D01*
X58339329Y-45180135D01*
X58341000Y-45172452D01*
X58341000Y-44050116D01*
X58336525Y-44034877D01*
X58335135Y-44033672D01*
X58327452Y-44032001D01*
X57650331Y-44032001D01*
X57643510Y-44032371D01*
X57592648Y-44037895D01*
X57577396Y-44041521D01*
X57456946Y-44086676D01*
X57441351Y-44095214D01*
X57339276Y-44171715D01*
X57326715Y-44184276D01*
X57250214Y-44286351D01*
X57241676Y-44301946D01*
X57196522Y-44422394D01*
X57192895Y-44437649D01*
X57187369Y-44488514D01*
X57187000Y-44495328D01*
X57187000Y-45167885D01*
X48128019Y-45167885D01*
X49790500Y-43505405D01*
X49852812Y-43471379D01*
X49879595Y-43468500D01*
X51488134Y-43468500D01*
X51550316Y-43461745D01*
X51686705Y-43410615D01*
X51803261Y-43323261D01*
X51890615Y-43206705D01*
X51941745Y-43070316D01*
X51948500Y-43008134D01*
X51948500Y-40911866D01*
X51941745Y-40849684D01*
X51890615Y-40713295D01*
X51803261Y-40596739D01*
X51686705Y-40509385D01*
X51550316Y-40458255D01*
X51488134Y-40451500D01*
X51199500Y-40451500D01*
X51131379Y-40431498D01*
X51084886Y-40377842D01*
X51073500Y-40325500D01*
X51073500Y-40314594D01*
X51093502Y-40246473D01*
X51110405Y-40225499D01*
X54755499Y-36580405D01*
X54817811Y-36546379D01*
X54844594Y-36543500D01*
X57726405Y-36543500D01*
X57794526Y-36563502D01*
G37*
%TD.AperFunction*%
%TA.AperFunction,Conductor*%
G36*
X64093527Y-36563502D02*
G01*
X64114501Y-36580405D01*
X64917975Y-37383879D01*
X64952001Y-37446191D01*
X64950694Y-37475795D01*
X64954000Y-37475795D01*
X64954000Y-40128517D01*
X64958064Y-40142359D01*
X64971478Y-40144393D01*
X64978184Y-40143534D01*
X64988262Y-40141392D01*
X65192255Y-40080191D01*
X65201842Y-40076433D01*
X65393095Y-39982739D01*
X65401945Y-39977464D01*
X65575328Y-39853792D01*
X65583193Y-39847145D01*
X65687897Y-39742805D01*
X65750268Y-39708889D01*
X65821075Y-39714077D01*
X65877837Y-39756723D01*
X65894819Y-39787826D01*
X65917057Y-39847145D01*
X65939385Y-39906705D01*
X66026739Y-40023261D01*
X66143295Y-40110615D01*
X66279684Y-40161745D01*
X66341866Y-40168500D01*
X66480500Y-40168500D01*
X66548621Y-40188502D01*
X66595114Y-40242158D01*
X66606500Y-40294500D01*
X66606500Y-44091233D01*
X66605973Y-44102416D01*
X66604298Y-44109909D01*
X66604547Y-44117835D01*
X66604547Y-44117836D01*
X66606438Y-44177986D01*
X66606500Y-44181945D01*
X66606500Y-44209856D01*
X66606997Y-44213790D01*
X66606997Y-44213791D01*
X66607005Y-44213856D01*
X66607938Y-44225693D01*
X66609327Y-44269889D01*
X66614110Y-44286351D01*
X66614978Y-44289339D01*
X66618987Y-44308700D01*
X66621526Y-44328797D01*
X66624445Y-44336168D01*
X66624445Y-44336170D01*
X66637804Y-44369912D01*
X66641649Y-44381142D01*
X66653982Y-44423593D01*
X66658015Y-44430412D01*
X66658017Y-44430417D01*
X66664293Y-44441028D01*
X66672988Y-44458776D01*
X66680448Y-44477617D01*
X66685110Y-44484033D01*
X66685110Y-44484034D01*
X66706436Y-44513387D01*
X66712952Y-44523307D01*
X66735458Y-44561362D01*
X66749779Y-44575683D01*
X66762619Y-44590716D01*
X66774528Y-44607107D01*
X66808605Y-44635298D01*
X66817384Y-44643288D01*
X67803258Y-45629162D01*
X67837284Y-45691474D01*
X67832219Y-45762289D01*
X67789672Y-45819125D01*
X67758392Y-45836239D01*
X67631705Y-45883732D01*
X67631704Y-45883733D01*
X67623295Y-45886885D01*
X67506739Y-45974239D01*
X67419385Y-46090795D01*
X67368255Y-46227184D01*
X67361500Y-46289366D01*
X67361500Y-46811406D01*
X67341498Y-46879527D01*
X67287842Y-46926020D01*
X67217568Y-46936124D01*
X67152988Y-46906630D01*
X67146405Y-46900501D01*
X60370011Y-40124106D01*
X60335985Y-40061794D01*
X60341050Y-39990979D01*
X60385938Y-39932432D01*
X60388236Y-39930793D01*
X60499860Y-39851173D01*
X60658096Y-39693489D01*
X60672151Y-39673930D01*
X60788453Y-39512077D01*
X60789776Y-39513028D01*
X60836645Y-39469857D01*
X60906580Y-39457625D01*
X60972026Y-39485144D01*
X60999875Y-39516994D01*
X61059987Y-39615088D01*
X61206250Y-39783938D01*
X61319405Y-39877881D01*
X61370102Y-39919970D01*
X61378126Y-39926632D01*
X61571000Y-40039338D01*
X61575825Y-40041180D01*
X61575826Y-40041181D01*
X61594681Y-40048381D01*
X61779692Y-40119030D01*
X61784760Y-40120061D01*
X61784763Y-40120062D01*
X61865092Y-40136405D01*
X61998597Y-40163567D01*
X62003772Y-40163757D01*
X62003774Y-40163757D01*
X62216673Y-40171564D01*
X62216677Y-40171564D01*
X62221837Y-40171753D01*
X62226957Y-40171097D01*
X62226959Y-40171097D01*
X62438288Y-40144025D01*
X62438289Y-40144025D01*
X62443416Y-40143368D01*
X62448366Y-40141883D01*
X62652429Y-40080661D01*
X62652434Y-40080659D01*
X62657384Y-40079174D01*
X62857994Y-39980896D01*
X63039860Y-39851173D01*
X63198096Y-39693489D01*
X63212151Y-39673930D01*
X63328453Y-39512077D01*
X63329640Y-39512930D01*
X63376960Y-39469362D01*
X63446897Y-39457145D01*
X63512338Y-39484678D01*
X63540166Y-39516511D01*
X63597694Y-39610388D01*
X63603777Y-39618699D01*
X63743213Y-39779667D01*
X63750580Y-39786883D01*
X63914434Y-39922916D01*
X63922881Y-39928831D01*
X64106756Y-40036279D01*
X64116042Y-40040729D01*
X64315001Y-40116703D01*
X64324899Y-40119579D01*
X64428250Y-40140606D01*
X64442299Y-40139410D01*
X64446000Y-40129065D01*
X64446000Y-37493102D01*
X64442082Y-37479758D01*
X64427806Y-37477771D01*
X64389324Y-37483660D01*
X64379288Y-37486051D01*
X64176868Y-37552212D01*
X64167359Y-37556209D01*
X63978463Y-37654542D01*
X63969738Y-37660036D01*
X63799433Y-37787905D01*
X63791726Y-37794748D01*
X63644590Y-37948717D01*
X63638109Y-37956722D01*
X63533498Y-38110074D01*
X63478587Y-38155076D01*
X63408062Y-38163247D01*
X63344315Y-38131993D01*
X63323618Y-38107509D01*
X63242822Y-37982617D01*
X63242820Y-37982614D01*
X63240014Y-37978277D01*
X63089670Y-37813051D01*
X63085619Y-37809852D01*
X63085615Y-37809848D01*
X62918414Y-37677800D01*
X62918410Y-37677798D01*
X62914359Y-37674598D01*
X62909835Y-37672101D01*
X62909831Y-37672098D01*
X62858608Y-37643822D01*
X62808636Y-37593390D01*
X62793500Y-37533513D01*
X62793500Y-37458763D01*
X62794027Y-37447579D01*
X62795701Y-37440091D01*
X62793562Y-37372032D01*
X62793500Y-37368075D01*
X62793500Y-37340144D01*
X62792994Y-37336138D01*
X62792061Y-37324292D01*
X62790922Y-37288037D01*
X62790673Y-37280110D01*
X62785022Y-37260658D01*
X62781014Y-37241306D01*
X62779467Y-37229063D01*
X62778474Y-37221203D01*
X62775330Y-37213261D01*
X62762200Y-37180097D01*
X62758355Y-37168870D01*
X62753866Y-37153419D01*
X62746018Y-37126407D01*
X62741984Y-37119585D01*
X62741981Y-37119579D01*
X62735706Y-37108968D01*
X62727010Y-37091218D01*
X62722472Y-37079756D01*
X62722469Y-37079751D01*
X62719552Y-37072383D01*
X62693573Y-37036625D01*
X62687057Y-37026707D01*
X62668575Y-36995457D01*
X62664542Y-36988637D01*
X62650218Y-36974313D01*
X62637376Y-36959278D01*
X62625472Y-36942893D01*
X62591406Y-36914711D01*
X62582627Y-36906722D01*
X62434500Y-36758595D01*
X62400474Y-36696283D01*
X62405539Y-36625468D01*
X62448086Y-36568632D01*
X62514606Y-36543821D01*
X62523595Y-36543500D01*
X64025406Y-36543500D01*
X64093527Y-36563502D01*
G37*
%TD.AperFunction*%
%TD*%
M02*
