%TF.GenerationSoftware,KiCad,Pcbnew,(6.0.8)*%
%TF.CreationDate,2022-10-29T21:58:50-05:00*%
%TF.ProjectId,SE,53452e6b-6963-4616-945f-706362585858,rev?*%
%TF.SameCoordinates,Original*%
%TF.FileFunction,Legend,Top*%
%TF.FilePolarity,Positive*%
%FSLAX46Y46*%
G04 Gerber Fmt 4.6, Leading zero omitted, Abs format (unit mm)*
G04 Created by KiCad (PCBNEW (6.0.8)) date 2022-10-29 21:58:50*
%MOMM*%
%LPD*%
G01*
G04 APERTURE LIST*
%ADD10C,0.150000*%
%ADD11C,0.120000*%
G04 APERTURE END LIST*
D10*
%TO.C,D5*%
X56321904Y-68792380D02*
X56321904Y-67792380D01*
X56560000Y-67792380D01*
X56702857Y-67840000D01*
X56798095Y-67935238D01*
X56845714Y-68030476D01*
X56893333Y-68220952D01*
X56893333Y-68363809D01*
X56845714Y-68554285D01*
X56798095Y-68649523D01*
X56702857Y-68744761D01*
X56560000Y-68792380D01*
X56321904Y-68792380D01*
X57798095Y-67792380D02*
X57321904Y-67792380D01*
X57274285Y-68268571D01*
X57321904Y-68220952D01*
X57417142Y-68173333D01*
X57655238Y-68173333D01*
X57750476Y-68220952D01*
X57798095Y-68268571D01*
X57845714Y-68363809D01*
X57845714Y-68601904D01*
X57798095Y-68697142D01*
X57750476Y-68744761D01*
X57655238Y-68792380D01*
X57417142Y-68792380D01*
X57321904Y-68744761D01*
X57274285Y-68697142D01*
%TO.C,R14*%
X48747142Y-59452380D02*
X48413809Y-58976190D01*
X48175714Y-59452380D02*
X48175714Y-58452380D01*
X48556666Y-58452380D01*
X48651904Y-58500000D01*
X48699523Y-58547619D01*
X48747142Y-58642857D01*
X48747142Y-58785714D01*
X48699523Y-58880952D01*
X48651904Y-58928571D01*
X48556666Y-58976190D01*
X48175714Y-58976190D01*
X49699523Y-59452380D02*
X49128095Y-59452380D01*
X49413809Y-59452380D02*
X49413809Y-58452380D01*
X49318571Y-58595238D01*
X49223333Y-58690476D01*
X49128095Y-58738095D01*
X50556666Y-58785714D02*
X50556666Y-59452380D01*
X50318571Y-58404761D02*
X50080476Y-59119047D01*
X50699523Y-59119047D01*
%TO.C,BZ1*%
X47458571Y-43150952D02*
X47506190Y-43008095D01*
X47553809Y-42960476D01*
X47649047Y-42912857D01*
X47791904Y-42912857D01*
X47887142Y-42960476D01*
X47934761Y-43008095D01*
X47982380Y-43103333D01*
X47982380Y-43484285D01*
X46982380Y-43484285D01*
X46982380Y-43150952D01*
X47030000Y-43055714D01*
X47077619Y-43008095D01*
X47172857Y-42960476D01*
X47268095Y-42960476D01*
X47363333Y-43008095D01*
X47410952Y-43055714D01*
X47458571Y-43150952D01*
X47458571Y-43484285D01*
X46982380Y-42579523D02*
X46982380Y-41912857D01*
X47982380Y-42579523D01*
X47982380Y-41912857D01*
X47982380Y-41008095D02*
X47982380Y-41579523D01*
X47982380Y-41293809D02*
X46982380Y-41293809D01*
X47125238Y-41389047D01*
X47220476Y-41484285D01*
X47268095Y-41579523D01*
X47721428Y-45100952D02*
X47721428Y-44339047D01*
X48102380Y-44720000D02*
X47340476Y-44720000D01*
%TO.C,J3*%
X60187380Y-67693333D02*
X60901666Y-67693333D01*
X61044523Y-67740952D01*
X61139761Y-67836190D01*
X61187380Y-67979047D01*
X61187380Y-68074285D01*
X60187380Y-67312380D02*
X60187380Y-66693333D01*
X60568333Y-67026666D01*
X60568333Y-66883809D01*
X60615952Y-66788571D01*
X60663571Y-66740952D01*
X60758809Y-66693333D01*
X60996904Y-66693333D01*
X61092142Y-66740952D01*
X61139761Y-66788571D01*
X61187380Y-66883809D01*
X61187380Y-67169523D01*
X61139761Y-67264761D01*
X61092142Y-67312380D01*
%TO.C,R19*%
X48889642Y-60632380D02*
X48556309Y-60156190D01*
X48318214Y-60632380D02*
X48318214Y-59632380D01*
X48699166Y-59632380D01*
X48794404Y-59680000D01*
X48842023Y-59727619D01*
X48889642Y-59822857D01*
X48889642Y-59965714D01*
X48842023Y-60060952D01*
X48794404Y-60108571D01*
X48699166Y-60156190D01*
X48318214Y-60156190D01*
X49842023Y-60632380D02*
X49270595Y-60632380D01*
X49556309Y-60632380D02*
X49556309Y-59632380D01*
X49461071Y-59775238D01*
X49365833Y-59870476D01*
X49270595Y-59918095D01*
X50318214Y-60632380D02*
X50508690Y-60632380D01*
X50603928Y-60584761D01*
X50651547Y-60537142D01*
X50746785Y-60394285D01*
X50794404Y-60203809D01*
X50794404Y-59822857D01*
X50746785Y-59727619D01*
X50699166Y-59680000D01*
X50603928Y-59632380D01*
X50413452Y-59632380D01*
X50318214Y-59680000D01*
X50270595Y-59727619D01*
X50222976Y-59822857D01*
X50222976Y-60060952D01*
X50270595Y-60156190D01*
X50318214Y-60203809D01*
X50413452Y-60251428D01*
X50603928Y-60251428D01*
X50699166Y-60203809D01*
X50746785Y-60156190D01*
X50794404Y-60060952D01*
%TO.C,REF\u002A\u002A*%
X39426666Y-63762380D02*
X39093333Y-63286190D01*
X38855238Y-63762380D02*
X38855238Y-62762380D01*
X39236190Y-62762380D01*
X39331428Y-62810000D01*
X39379047Y-62857619D01*
X39426666Y-62952857D01*
X39426666Y-63095714D01*
X39379047Y-63190952D01*
X39331428Y-63238571D01*
X39236190Y-63286190D01*
X38855238Y-63286190D01*
X39855238Y-63238571D02*
X40188571Y-63238571D01*
X40331428Y-63762380D02*
X39855238Y-63762380D01*
X39855238Y-62762380D01*
X40331428Y-62762380D01*
X41093333Y-63238571D02*
X40760000Y-63238571D01*
X40760000Y-63762380D02*
X40760000Y-62762380D01*
X41236190Y-62762380D01*
X41760000Y-62762380D02*
X41760000Y-63000476D01*
X41521904Y-62905238D02*
X41760000Y-63000476D01*
X41998095Y-62905238D01*
X41617142Y-63190952D02*
X41760000Y-63000476D01*
X41902857Y-63190952D01*
X42521904Y-62762380D02*
X42521904Y-63000476D01*
X42283809Y-62905238D02*
X42521904Y-63000476D01*
X42760000Y-62905238D01*
X42379047Y-63190952D02*
X42521904Y-63000476D01*
X42664761Y-63190952D01*
%TO.C,R18*%
X59357142Y-63332380D02*
X59023809Y-62856190D01*
X58785714Y-63332380D02*
X58785714Y-62332380D01*
X59166666Y-62332380D01*
X59261904Y-62380000D01*
X59309523Y-62427619D01*
X59357142Y-62522857D01*
X59357142Y-62665714D01*
X59309523Y-62760952D01*
X59261904Y-62808571D01*
X59166666Y-62856190D01*
X58785714Y-62856190D01*
X60309523Y-63332380D02*
X59738095Y-63332380D01*
X60023809Y-63332380D02*
X60023809Y-62332380D01*
X59928571Y-62475238D01*
X59833333Y-62570476D01*
X59738095Y-62618095D01*
X60880952Y-62760952D02*
X60785714Y-62713333D01*
X60738095Y-62665714D01*
X60690476Y-62570476D01*
X60690476Y-62522857D01*
X60738095Y-62427619D01*
X60785714Y-62380000D01*
X60880952Y-62332380D01*
X61071428Y-62332380D01*
X61166666Y-62380000D01*
X61214285Y-62427619D01*
X61261904Y-62522857D01*
X61261904Y-62570476D01*
X61214285Y-62665714D01*
X61166666Y-62713333D01*
X61071428Y-62760952D01*
X60880952Y-62760952D01*
X60785714Y-62808571D01*
X60738095Y-62856190D01*
X60690476Y-62951428D01*
X60690476Y-63141904D01*
X60738095Y-63237142D01*
X60785714Y-63284761D01*
X60880952Y-63332380D01*
X61071428Y-63332380D01*
X61166666Y-63284761D01*
X61214285Y-63237142D01*
X61261904Y-63141904D01*
X61261904Y-62951428D01*
X61214285Y-62856190D01*
X61166666Y-62808571D01*
X61071428Y-62760952D01*
%TO.C,REF\u002A\u002A*%
X39396666Y-36712380D02*
X39063333Y-36236190D01*
X38825238Y-36712380D02*
X38825238Y-35712380D01*
X39206190Y-35712380D01*
X39301428Y-35760000D01*
X39349047Y-35807619D01*
X39396666Y-35902857D01*
X39396666Y-36045714D01*
X39349047Y-36140952D01*
X39301428Y-36188571D01*
X39206190Y-36236190D01*
X38825238Y-36236190D01*
X39825238Y-36188571D02*
X40158571Y-36188571D01*
X40301428Y-36712380D02*
X39825238Y-36712380D01*
X39825238Y-35712380D01*
X40301428Y-35712380D01*
X41063333Y-36188571D02*
X40730000Y-36188571D01*
X40730000Y-36712380D02*
X40730000Y-35712380D01*
X41206190Y-35712380D01*
X41730000Y-35712380D02*
X41730000Y-35950476D01*
X41491904Y-35855238D02*
X41730000Y-35950476D01*
X41968095Y-35855238D01*
X41587142Y-36140952D02*
X41730000Y-35950476D01*
X41872857Y-36140952D01*
X42491904Y-35712380D02*
X42491904Y-35950476D01*
X42253809Y-35855238D02*
X42491904Y-35950476D01*
X42730000Y-35855238D01*
X42349047Y-36140952D02*
X42491904Y-35950476D01*
X42634761Y-36140952D01*
%TO.C,R1*%
X59575833Y-50272380D02*
X59242500Y-49796190D01*
X59004404Y-50272380D02*
X59004404Y-49272380D01*
X59385357Y-49272380D01*
X59480595Y-49320000D01*
X59528214Y-49367619D01*
X59575833Y-49462857D01*
X59575833Y-49605714D01*
X59528214Y-49700952D01*
X59480595Y-49748571D01*
X59385357Y-49796190D01*
X59004404Y-49796190D01*
X60528214Y-50272380D02*
X59956785Y-50272380D01*
X60242500Y-50272380D02*
X60242500Y-49272380D01*
X60147261Y-49415238D01*
X60052023Y-49510476D01*
X59956785Y-49558095D01*
%TO.C,D1*%
X59126904Y-42932380D02*
X59126904Y-41932380D01*
X59365000Y-41932380D01*
X59507857Y-41980000D01*
X59603095Y-42075238D01*
X59650714Y-42170476D01*
X59698333Y-42360952D01*
X59698333Y-42503809D01*
X59650714Y-42694285D01*
X59603095Y-42789523D01*
X59507857Y-42884761D01*
X59365000Y-42932380D01*
X59126904Y-42932380D01*
X60650714Y-42932380D02*
X60079285Y-42932380D01*
X60365000Y-42932380D02*
X60365000Y-41932380D01*
X60269761Y-42075238D01*
X60174523Y-42170476D01*
X60079285Y-42218095D01*
%TO.C,REF\u002A\u002A*%
X74296666Y-36622380D02*
X73963333Y-36146190D01*
X73725238Y-36622380D02*
X73725238Y-35622380D01*
X74106190Y-35622380D01*
X74201428Y-35670000D01*
X74249047Y-35717619D01*
X74296666Y-35812857D01*
X74296666Y-35955714D01*
X74249047Y-36050952D01*
X74201428Y-36098571D01*
X74106190Y-36146190D01*
X73725238Y-36146190D01*
X74725238Y-36098571D02*
X75058571Y-36098571D01*
X75201428Y-36622380D02*
X74725238Y-36622380D01*
X74725238Y-35622380D01*
X75201428Y-35622380D01*
X75963333Y-36098571D02*
X75630000Y-36098571D01*
X75630000Y-36622380D02*
X75630000Y-35622380D01*
X76106190Y-35622380D01*
X76630000Y-35622380D02*
X76630000Y-35860476D01*
X76391904Y-35765238D02*
X76630000Y-35860476D01*
X76868095Y-35765238D01*
X76487142Y-36050952D02*
X76630000Y-35860476D01*
X76772857Y-36050952D01*
X77391904Y-35622380D02*
X77391904Y-35860476D01*
X77153809Y-35765238D02*
X77391904Y-35860476D01*
X77630000Y-35765238D01*
X77249047Y-36050952D02*
X77391904Y-35860476D01*
X77534761Y-36050952D01*
%TO.C,D4*%
X59016904Y-54442380D02*
X59016904Y-53442380D01*
X59255000Y-53442380D01*
X59397857Y-53490000D01*
X59493095Y-53585238D01*
X59540714Y-53680476D01*
X59588333Y-53870952D01*
X59588333Y-54013809D01*
X59540714Y-54204285D01*
X59493095Y-54299523D01*
X59397857Y-54394761D01*
X59255000Y-54442380D01*
X59016904Y-54442380D01*
X60445476Y-53775714D02*
X60445476Y-54442380D01*
X60207380Y-53394761D02*
X59969285Y-54109047D01*
X60588333Y-54109047D01*
%TO.C,REF\u002A\u002A*%
X75096666Y-63362380D02*
X74763333Y-62886190D01*
X74525238Y-63362380D02*
X74525238Y-62362380D01*
X74906190Y-62362380D01*
X75001428Y-62410000D01*
X75049047Y-62457619D01*
X75096666Y-62552857D01*
X75096666Y-62695714D01*
X75049047Y-62790952D01*
X75001428Y-62838571D01*
X74906190Y-62886190D01*
X74525238Y-62886190D01*
X75525238Y-62838571D02*
X75858571Y-62838571D01*
X76001428Y-63362380D02*
X75525238Y-63362380D01*
X75525238Y-62362380D01*
X76001428Y-62362380D01*
X76763333Y-62838571D02*
X76430000Y-62838571D01*
X76430000Y-63362380D02*
X76430000Y-62362380D01*
X76906190Y-62362380D01*
X77430000Y-62362380D02*
X77430000Y-62600476D01*
X77191904Y-62505238D02*
X77430000Y-62600476D01*
X77668095Y-62505238D01*
X77287142Y-62790952D02*
X77430000Y-62600476D01*
X77572857Y-62790952D01*
X78191904Y-62362380D02*
X78191904Y-62600476D01*
X77953809Y-62505238D02*
X78191904Y-62600476D01*
X78430000Y-62505238D01*
X78049047Y-62790952D02*
X78191904Y-62600476D01*
X78334761Y-62790952D01*
D11*
%TO.C,D5*%
X59310000Y-67340000D02*
X59310000Y-65340000D01*
X59310000Y-67340000D02*
X55410000Y-67340000D01*
X59310000Y-65340000D02*
X55410000Y-65340000D01*
%TO.C,R14*%
X49644724Y-58092500D02*
X49135276Y-58092500D01*
X49644724Y-57047500D02*
X49135276Y-57047500D01*
%TO.C,BZ1*%
X56540000Y-45760000D02*
G75*
G03*
X56540000Y-45760000I-6100000J0D01*
G01*
%TO.C,J3*%
X62175000Y-73070000D02*
X62175000Y-64440000D01*
X62531190Y-73070000D02*
X62531190Y-64440000D01*
X63865000Y-64440000D02*
X63865000Y-64090000D01*
X63357855Y-73070000D02*
X63357855Y-64440000D01*
X66405000Y-64440000D02*
X66405000Y-64030000D01*
X62175000Y-73070000D02*
X69915000Y-73070000D01*
X64420710Y-73070000D02*
X64420710Y-64440000D01*
X62413095Y-73070000D02*
X62413095Y-64440000D01*
X62295000Y-73070000D02*
X62295000Y-64440000D01*
X68225000Y-64440000D02*
X68225000Y-64030000D01*
X69915000Y-73070000D02*
X69915000Y-64440000D01*
X64538805Y-73070000D02*
X64538805Y-64440000D01*
X63239760Y-73070000D02*
X63239760Y-64440000D01*
X67315000Y-73070000D02*
X67315000Y-64440000D01*
X64775000Y-73070000D02*
X64775000Y-64440000D01*
X63145000Y-64440000D02*
X63145000Y-64090000D01*
X63948330Y-73070000D02*
X63948330Y-64440000D01*
X64066425Y-73070000D02*
X64066425Y-64440000D01*
X63475950Y-73070000D02*
X63475950Y-64440000D01*
X62649285Y-73070000D02*
X62649285Y-64440000D01*
X63594045Y-73070000D02*
X63594045Y-64440000D01*
X62885475Y-73070000D02*
X62885475Y-64440000D01*
X63003570Y-73070000D02*
X63003570Y-64440000D01*
X65685000Y-64440000D02*
X65685000Y-64030000D01*
X62767380Y-73070000D02*
X62767380Y-64440000D01*
X68945000Y-64440000D02*
X68945000Y-64030000D01*
X63712140Y-73070000D02*
X63712140Y-64440000D01*
X62175000Y-61870000D02*
X63505000Y-61870000D01*
X63830235Y-73070000D02*
X63830235Y-64440000D01*
X63121665Y-73070000D02*
X63121665Y-64440000D01*
X64184520Y-73070000D02*
X64184520Y-64440000D01*
X62175000Y-62980000D02*
X62175000Y-61870000D01*
X64302615Y-73070000D02*
X64302615Y-64440000D01*
X62175000Y-64440000D02*
X69915000Y-64440000D01*
X64656900Y-73070000D02*
X64656900Y-64440000D01*
%TO.C,R19*%
X49277776Y-62132500D02*
X49787224Y-62132500D01*
X49277776Y-61087500D02*
X49787224Y-61087500D01*
%TO.C,R18*%
X60254724Y-61972500D02*
X59745276Y-61972500D01*
X60254724Y-60927500D02*
X59745276Y-60927500D01*
%TO.C,R1*%
X59487776Y-51772500D02*
X59997224Y-51772500D01*
X59487776Y-50727500D02*
X59997224Y-50727500D01*
%TO.C,D1*%
X58305000Y-46520000D02*
X58305000Y-46676000D01*
X58305000Y-44204000D02*
X58305000Y-44360000D01*
X60906130Y-44360163D02*
G75*
G03*
X58824039Y-44360000I-1041130J-1079837D01*
G01*
X61537335Y-44361392D02*
G75*
G03*
X58305000Y-44204484I-1672335J-1078608D01*
G01*
X58305000Y-46675516D02*
G75*
G03*
X61537335Y-46518608I1560000J1235516D01*
G01*
X58824039Y-46520000D02*
G75*
G03*
X60906130Y-46519837I1040961J1080000D01*
G01*
%TO.C,D4*%
X58195000Y-55714000D02*
X58195000Y-55870000D01*
X58195000Y-58030000D02*
X58195000Y-58186000D01*
X58195000Y-58185516D02*
G75*
G03*
X61427335Y-58028608I1560000J1235516D01*
G01*
X58714039Y-58030000D02*
G75*
G03*
X60796130Y-58029837I1040961J1080000D01*
G01*
X60796130Y-55870163D02*
G75*
G03*
X58714039Y-55870000I-1041130J-1079837D01*
G01*
X61427335Y-55871392D02*
G75*
G03*
X58195000Y-55714484I-1672335J-1078608D01*
G01*
%TD*%
M02*
