%TF.GenerationSoftware,KiCad,Pcbnew,(6.0.8)*%
%TF.CreationDate,2022-11-06T10:20:19-05:00*%
%TF.ProjectId,SE,53452e6b-6963-4616-945f-706362585858,rev?*%
%TF.SameCoordinates,Original*%
%TF.FileFunction,Copper,L1,Top*%
%TF.FilePolarity,Positive*%
%FSLAX46Y46*%
G04 Gerber Fmt 4.6, Leading zero omitted, Abs format (unit mm)*
G04 Created by KiCad (PCBNEW (6.0.8)) date 2022-11-06 10:20:19*
%MOMM*%
%LPD*%
G01*
G04 APERTURE LIST*
G04 Aperture macros list*
%AMRoundRect*
0 Rectangle with rounded corners*
0 $1 Rounding radius*
0 $2 $3 $4 $5 $6 $7 $8 $9 X,Y pos of 4 corners*
0 Add a 4 corners polygon primitive as box body*
4,1,4,$2,$3,$4,$5,$6,$7,$8,$9,$2,$3,0*
0 Add four circle primitives for the rounded corners*
1,1,$1+$1,$2,$3*
1,1,$1+$1,$4,$5*
1,1,$1+$1,$6,$7*
1,1,$1+$1,$8,$9*
0 Add four rect primitives between the rounded corners*
20,1,$1+$1,$2,$3,$4,$5,0*
20,1,$1+$1,$4,$5,$6,$7,0*
20,1,$1+$1,$6,$7,$8,$9,0*
20,1,$1+$1,$8,$9,$2,$3,0*%
G04 Aperture macros list end*
%TA.AperFunction,SMDPad,CuDef*%
%ADD10R,0.900000X1.200000*%
%TD*%
%TA.AperFunction,SMDPad,CuDef*%
%ADD11RoundRect,0.237500X0.250000X0.237500X-0.250000X0.237500X-0.250000X-0.237500X0.250000X-0.237500X0*%
%TD*%
%TA.AperFunction,ComponentPad*%
%ADD12R,2.000000X2.000000*%
%TD*%
%TA.AperFunction,ComponentPad*%
%ADD13C,2.000000*%
%TD*%
%TA.AperFunction,ComponentPad*%
%ADD14R,1.700000X1.700000*%
%TD*%
%TA.AperFunction,ComponentPad*%
%ADD15O,1.700000X1.700000*%
%TD*%
%TA.AperFunction,ComponentPad*%
%ADD16C,3.800000*%
%TD*%
%TA.AperFunction,SMDPad,CuDef*%
%ADD17RoundRect,0.237500X-0.237500X0.250000X-0.237500X-0.250000X0.237500X-0.250000X0.237500X0.250000X0*%
%TD*%
%TA.AperFunction,SMDPad,CuDef*%
%ADD18RoundRect,0.237500X0.237500X-0.250000X0.237500X0.250000X-0.237500X0.250000X-0.237500X-0.250000X0*%
%TD*%
%TA.AperFunction,ComponentPad*%
%ADD19R,1.800000X1.800000*%
%TD*%
%TA.AperFunction,ComponentPad*%
%ADD20C,1.800000*%
%TD*%
%TA.AperFunction,ComponentPad*%
%ADD21R,1.500000X1.500000*%
%TD*%
%TA.AperFunction,ComponentPad*%
%ADD22C,1.500000*%
%TD*%
%TA.AperFunction,ComponentPad*%
%ADD23R,1.500000X1.050000*%
%TD*%
%TA.AperFunction,ComponentPad*%
%ADD24O,1.500000X1.050000*%
%TD*%
%TA.AperFunction,Conductor*%
%ADD25C,0.250000*%
%TD*%
G04 APERTURE END LIST*
D10*
%TO.P,D5,1,K*%
%TO.N,+3.3V*%
X56514000Y-53848000D03*
%TO.P,D5,2,A*%
%TO.N,Net-(BZ1-Pad2)*%
X53214000Y-53848000D03*
%TD*%
D11*
%TO.P,R14,1*%
%TO.N,Buzzer*%
X53998500Y-58420000D03*
%TO.P,R14,2*%
%TO.N,Net-(Q4-Pad2)*%
X52173500Y-58420000D03*
%TD*%
D12*
%TO.P,BZ1,1,-*%
%TO.N,+3.3V*%
X39126000Y-47244000D03*
D13*
%TO.P,BZ1,2,+*%
%TO.N,Net-(BZ1-Pad2)*%
X46726000Y-47244000D03*
%TD*%
D14*
%TO.P,J3,1,Pin_1*%
%TO.N,Botones*%
X59944000Y-62980000D03*
D15*
%TO.P,J3,2,Pin_2*%
%TO.N,+3.3V*%
X62484000Y-62980000D03*
%TO.P,J3,3,Pin_3*%
%TO.N,GND*%
X65024000Y-62980000D03*
%TD*%
D11*
%TO.P,R19,1*%
%TO.N,Net-(Q4-Pad2)*%
X53998500Y-62738000D03*
%TO.P,R19,2*%
%TO.N,GND*%
X52173500Y-62738000D03*
%TD*%
D16*
%TO.P,REF\u002A\u002A,1*%
%TO.N,N/C*%
X40760000Y-66210000D03*
%TD*%
D17*
%TO.P,R18,1*%
%TO.N,Net-(D4-Pad2)*%
X57404000Y-58523500D03*
%TO.P,R18,2*%
%TO.N,+3.3V*%
X57404000Y-60348500D03*
%TD*%
D14*
%TO.P,J2,1,Pin_1*%
%TO.N,+3.3V*%
X38618000Y-37821000D03*
D15*
%TO.P,J2,2,Pin_2*%
%TO.N,GND*%
X41158000Y-37821000D03*
%TO.P,J2,3,Pin_3*%
%TO.N,SCL*%
X43698000Y-37821000D03*
%TO.P,J2,4,Pin_4*%
%TO.N,SDA*%
X46238000Y-37821000D03*
%TD*%
D18*
%TO.P,R1,1*%
%TO.N,Led_Verde*%
X61468000Y-51355000D03*
%TO.P,R1,2*%
%TO.N,Net-(D1-Pad2)*%
X61468000Y-49530000D03*
%TD*%
D19*
%TO.P,D1,1,K*%
%TO.N,GND*%
X61468000Y-44191000D03*
D20*
%TO.P,D1,2,A*%
%TO.N,Net-(D1-Pad2)*%
X61468000Y-46731000D03*
%TD*%
D16*
%TO.P,REF\u002A\u002A,1*%
%TO.N,N/C*%
X75630000Y-39070000D03*
%TD*%
D19*
%TO.P,D4,1,K*%
%TO.N,Net-(BZ1-Pad2)*%
X61468000Y-55621000D03*
D20*
%TO.P,D4,2,A*%
%TO.N,Net-(D4-Pad2)*%
X61468000Y-58161000D03*
%TD*%
D16*
%TO.P,REF\u002A\u002A,1*%
%TO.N,N/C*%
X75640000Y-66220000D03*
%TD*%
D21*
%TO.P,J1,1*%
%TO.N,+3.3V*%
X68620000Y-47087500D03*
D22*
%TO.P,J1,2*%
%TO.N,GND*%
X66080000Y-48357500D03*
%TO.P,J1,3*%
%TO.N,SDA*%
X68620000Y-49627500D03*
%TO.P,J1,4*%
%TO.N,SCL*%
X66080000Y-50897500D03*
%TO.P,J1,5*%
%TO.N,Botones*%
X68620000Y-52167500D03*
%TO.P,J1,6*%
%TO.N,Led_Verde*%
X66080000Y-53437500D03*
%TO.P,J1,7*%
%TO.N,Buzzer*%
X68620000Y-54707500D03*
%TO.P,J1,8*%
%TO.N,unconnected-(J1-Pad8)*%
X66080000Y-55977500D03*
%TD*%
D23*
%TO.P,Q4,1,C*%
%TO.N,Net-(BZ1-Pad2)*%
X46842000Y-57150000D03*
D24*
%TO.P,Q4,2,B*%
%TO.N,Net-(Q4-Pad2)*%
X46842000Y-58420000D03*
%TO.P,Q4,3,E*%
%TO.N,GND*%
X46842000Y-59690000D03*
%TD*%
D25*
%TO.N,+3.3V*%
X56514000Y-53848000D02*
X62230000Y-53848000D01*
X65180500Y-49432500D02*
X63754000Y-48006000D01*
X57404000Y-63500000D02*
X57404000Y-60348500D01*
X42488000Y-38272701D02*
X43331299Y-39116000D01*
X58420000Y-64516000D02*
X61976000Y-64516000D01*
X56768000Y-54102000D02*
X56982500Y-53887500D01*
X38618000Y-46736000D02*
X39126000Y-47244000D01*
X38618000Y-37821000D02*
X39793000Y-36646000D01*
X62230000Y-53848000D02*
X63246000Y-54864000D01*
X67564000Y-39116000D02*
X68620000Y-40172000D01*
X56514000Y-47880000D02*
X56514000Y-53848000D01*
X61214000Y-45466000D02*
X58928000Y-45466000D01*
X61975412Y-45506000D02*
X61254000Y-45506000D01*
X58928000Y-45466000D02*
X56514000Y-47880000D01*
X61254000Y-45506000D02*
X61214000Y-45466000D01*
X63754000Y-47284588D02*
X61975412Y-45506000D01*
X68620000Y-48087500D02*
X67275000Y-49432500D01*
X67275000Y-49432500D02*
X65180500Y-49432500D01*
X43331299Y-39116000D02*
X67564000Y-39116000D01*
X61254000Y-45506000D02*
X60920000Y-45506000D01*
X61976000Y-64516000D02*
X62484000Y-64008000D01*
X38618000Y-37821000D02*
X38618000Y-46736000D01*
X68620000Y-47087500D02*
X68620000Y-47458000D01*
X68620000Y-40172000D02*
X68620000Y-47087500D01*
X41726000Y-36646000D02*
X42488000Y-37408000D01*
X56514000Y-53848000D02*
X56768000Y-54102000D01*
X39126000Y-38329000D02*
X38618000Y-37821000D01*
X62484000Y-64008000D02*
X62484000Y-62980000D01*
X61825500Y-60348500D02*
X57404000Y-60348500D01*
X57404000Y-63500000D02*
X58420000Y-64516000D01*
X42488000Y-37408000D02*
X42488000Y-38272701D01*
X39793000Y-36646000D02*
X41726000Y-36646000D01*
X63754000Y-48006000D02*
X63754000Y-47284588D01*
X68620000Y-47087500D02*
X68620000Y-48087500D01*
X63246000Y-54864000D02*
X63246000Y-58928000D01*
X63246000Y-58928000D02*
X61825500Y-60348500D01*
%TO.N,Net-(BZ1-Pad2)*%
X53214000Y-53848000D02*
X53214000Y-55490000D01*
X46726000Y-57034000D02*
X46842000Y-57150000D01*
X53345000Y-55621000D02*
X61468000Y-55621000D01*
X46842000Y-57150000D02*
X51816000Y-57150000D01*
X46726000Y-47244000D02*
X46726000Y-57034000D01*
X53214000Y-55490000D02*
X53345000Y-55621000D01*
X51816000Y-57150000D02*
X53345000Y-55621000D01*
%TO.N,Botones*%
X59944000Y-62980000D02*
X59944000Y-62230000D01*
X68620000Y-52167500D02*
X67310000Y-53477500D01*
X61456000Y-61468000D02*
X61468000Y-61468000D01*
X61468000Y-61468000D02*
X63754000Y-59182000D01*
X61456000Y-61468000D02*
X59944000Y-62980000D01*
X66548000Y-59182000D02*
X67310000Y-58420000D01*
X67310000Y-53477500D02*
X67310000Y-58420000D01*
X63754000Y-59182000D02*
X66548000Y-59182000D01*
%TO.N,Led_Verde*%
X61468000Y-51355000D02*
X61468000Y-51562000D01*
X61468000Y-51562000D02*
X63343500Y-53437500D01*
X63343500Y-53437500D02*
X66080000Y-53437500D01*
%TO.N,Buzzer*%
X64874299Y-61468000D02*
X65278000Y-61468000D01*
X62992000Y-65278000D02*
X63754000Y-64516000D01*
X56134000Y-60555500D02*
X56134000Y-64262000D01*
X68620000Y-58126000D02*
X68620000Y-54707500D01*
X63754000Y-62588299D02*
X64874299Y-61468000D01*
X65278000Y-61468000D02*
X68620000Y-58126000D01*
X53998500Y-58420000D02*
X56134000Y-60555500D01*
X63754000Y-64516000D02*
X63754000Y-62588299D01*
X56134000Y-64262000D02*
X57150000Y-65278000D01*
X53998500Y-58420000D02*
X54356000Y-58420000D01*
X57150000Y-65278000D02*
X62992000Y-65278000D01*
%TO.N,Net-(D4-Pad2)*%
X61468000Y-58161000D02*
X57766500Y-58161000D01*
X57766500Y-58161000D02*
X57404000Y-58523500D01*
%TO.N,Net-(D1-Pad2)*%
X61468000Y-50800000D02*
X61468000Y-49530000D01*
X61468000Y-46731000D02*
X61468000Y-49530000D01*
%TO.N,SCL*%
X71882000Y-39116000D02*
X69088000Y-36322000D01*
X71022500Y-50897500D02*
X71882000Y-50038000D01*
X69088000Y-36322000D02*
X45197000Y-36322000D01*
X45197000Y-36322000D02*
X43698000Y-37821000D01*
X66080000Y-50897500D02*
X71022500Y-50897500D01*
X71882000Y-50038000D02*
X71882000Y-39116000D01*
%TO.N,SDA*%
X70006500Y-49627500D02*
X68620000Y-49627500D01*
X46238000Y-37821000D02*
X69375000Y-37821000D01*
X68620000Y-49627500D02*
X68620000Y-49062000D01*
X71374000Y-48260000D02*
X70006500Y-49627500D01*
X69375000Y-37821000D02*
X71374000Y-39820000D01*
X71374000Y-39820000D02*
X71374000Y-48260000D01*
X68620000Y-49627500D02*
X68620000Y-49377220D01*
%TO.N,Net-(Q4-Pad2)*%
X52173500Y-58420000D02*
X46842000Y-58420000D01*
X52173500Y-60913000D02*
X53998500Y-62738000D01*
X52173500Y-58420000D02*
X52173500Y-60913000D01*
%TD*%
%TA.AperFunction,Conductor*%
%TO.N,GND*%
G36*
X79073621Y-35608502D02*
G01*
X79120114Y-35662158D01*
X79131500Y-35714500D01*
X79131500Y-69545500D01*
X79111498Y-69613621D01*
X79057842Y-69660114D01*
X79005500Y-69671500D01*
X37394500Y-69671500D01*
X37326379Y-69651498D01*
X37279886Y-69597842D01*
X37268500Y-69545500D01*
X37268500Y-66210000D01*
X38346738Y-66210000D01*
X38365767Y-66512462D01*
X38422555Y-66810154D01*
X38516206Y-67098381D01*
X38517893Y-67101967D01*
X38517895Y-67101971D01*
X38522601Y-67111971D01*
X38645242Y-67372598D01*
X38807630Y-67628480D01*
X38810149Y-67631525D01*
X38810152Y-67631529D01*
X38818425Y-67641529D01*
X39000808Y-67861992D01*
X39221729Y-68069450D01*
X39466910Y-68247584D01*
X39470379Y-68249491D01*
X39470382Y-68249493D01*
X39488572Y-68259493D01*
X39732483Y-68393585D01*
X39736152Y-68395038D01*
X39736157Y-68395040D01*
X40010591Y-68503696D01*
X40014261Y-68505149D01*
X40307800Y-68580516D01*
X40608470Y-68618500D01*
X40911530Y-68618500D01*
X41212200Y-68580516D01*
X41505739Y-68505149D01*
X41509409Y-68503696D01*
X41783843Y-68395040D01*
X41783848Y-68395038D01*
X41787517Y-68393585D01*
X42031428Y-68259493D01*
X42049618Y-68249493D01*
X42049621Y-68249491D01*
X42053090Y-68247584D01*
X42298271Y-68069450D01*
X42519192Y-67861992D01*
X42701575Y-67641529D01*
X42709848Y-67631529D01*
X42709851Y-67631525D01*
X42712370Y-67628480D01*
X42874758Y-67372598D01*
X42997399Y-67111971D01*
X43002105Y-67101971D01*
X43002107Y-67101967D01*
X43003794Y-67098381D01*
X43097445Y-66810154D01*
X43154233Y-66512462D01*
X43172633Y-66220000D01*
X73226738Y-66220000D01*
X73245767Y-66522462D01*
X73302555Y-66820154D01*
X73396206Y-67108381D01*
X73525242Y-67382598D01*
X73687630Y-67638480D01*
X73880808Y-67871992D01*
X74101729Y-68079450D01*
X74346910Y-68257584D01*
X74612483Y-68403585D01*
X74616152Y-68405038D01*
X74616157Y-68405040D01*
X74890591Y-68513696D01*
X74894261Y-68515149D01*
X75187800Y-68590516D01*
X75488470Y-68628500D01*
X75791530Y-68628500D01*
X76092200Y-68590516D01*
X76385739Y-68515149D01*
X76389409Y-68513696D01*
X76663843Y-68405040D01*
X76663848Y-68405038D01*
X76667517Y-68403585D01*
X76933090Y-68257584D01*
X77178271Y-68079450D01*
X77399192Y-67871992D01*
X77592370Y-67638480D01*
X77754758Y-67382598D01*
X77883794Y-67108381D01*
X77977445Y-66820154D01*
X78034233Y-66522462D01*
X78053262Y-66220000D01*
X78034233Y-65917538D01*
X77977445Y-65619846D01*
X77883794Y-65331619D01*
X77879089Y-65321619D01*
X77756445Y-65060988D01*
X77754758Y-65057402D01*
X77723407Y-65008000D01*
X77653027Y-64897100D01*
X77592370Y-64801520D01*
X77586986Y-64795011D01*
X77509560Y-64701420D01*
X77399192Y-64568008D01*
X77178271Y-64360550D01*
X77169215Y-64353970D01*
X77125061Y-64321891D01*
X76933090Y-64182416D01*
X76914901Y-64172416D01*
X76670986Y-64038322D01*
X76670985Y-64038321D01*
X76667517Y-64036415D01*
X76663848Y-64034962D01*
X76663843Y-64034960D01*
X76389409Y-63926304D01*
X76389408Y-63926304D01*
X76385739Y-63924851D01*
X76092200Y-63849484D01*
X75791530Y-63811500D01*
X75488470Y-63811500D01*
X75187800Y-63849484D01*
X74894261Y-63924851D01*
X74890592Y-63926304D01*
X74890591Y-63926304D01*
X74616157Y-64034960D01*
X74616152Y-64034962D01*
X74612483Y-64036415D01*
X74609015Y-64038321D01*
X74609014Y-64038322D01*
X74365100Y-64172416D01*
X74346910Y-64182416D01*
X74154939Y-64321891D01*
X74110786Y-64353970D01*
X74101729Y-64360550D01*
X73880808Y-64568008D01*
X73770440Y-64701420D01*
X73693015Y-64795011D01*
X73687630Y-64801520D01*
X73626973Y-64897100D01*
X73556594Y-65008000D01*
X73525242Y-65057402D01*
X73523555Y-65060988D01*
X73400912Y-65321619D01*
X73396206Y-65331619D01*
X73302555Y-65619846D01*
X73245767Y-65917538D01*
X73226738Y-66220000D01*
X43172633Y-66220000D01*
X43173262Y-66210000D01*
X43154233Y-65907538D01*
X43097445Y-65609846D01*
X43003794Y-65321619D01*
X42874758Y-65047402D01*
X42712370Y-64791520D01*
X42672549Y-64743384D01*
X42653930Y-64720879D01*
X42519192Y-64558008D01*
X42364699Y-64412930D01*
X42301158Y-64353261D01*
X42301157Y-64353261D01*
X42298271Y-64350550D01*
X42053090Y-64172416D01*
X41787517Y-64026415D01*
X41783848Y-64024962D01*
X41783843Y-64024960D01*
X41509409Y-63916304D01*
X41509408Y-63916304D01*
X41505739Y-63914851D01*
X41212200Y-63839484D01*
X40911530Y-63801500D01*
X40608470Y-63801500D01*
X40307800Y-63839484D01*
X40014261Y-63914851D01*
X40010592Y-63916304D01*
X40010591Y-63916304D01*
X39736157Y-64024960D01*
X39736152Y-64024962D01*
X39732483Y-64026415D01*
X39466910Y-64172416D01*
X39221729Y-64350550D01*
X39218843Y-64353261D01*
X39218842Y-64353261D01*
X39155301Y-64412930D01*
X39000808Y-64558008D01*
X38866070Y-64720879D01*
X38847452Y-64743384D01*
X38807630Y-64791520D01*
X38645242Y-65047402D01*
X38516206Y-65321619D01*
X38422555Y-65609846D01*
X38365767Y-65907538D01*
X38346738Y-66210000D01*
X37268500Y-66210000D01*
X37268500Y-63021766D01*
X51178000Y-63021766D01*
X51178337Y-63028282D01*
X51188075Y-63122132D01*
X51190968Y-63135528D01*
X51241488Y-63286953D01*
X51247653Y-63300115D01*
X51331426Y-63435492D01*
X51340460Y-63446890D01*
X51453129Y-63559363D01*
X51464540Y-63568375D01*
X51600063Y-63651912D01*
X51613241Y-63658056D01*
X51764766Y-63708315D01*
X51778132Y-63711181D01*
X51870770Y-63720672D01*
X51877185Y-63721000D01*
X51901385Y-63721000D01*
X51916624Y-63716525D01*
X51917829Y-63715135D01*
X51919500Y-63707452D01*
X51919500Y-63010115D01*
X51915025Y-62994876D01*
X51913635Y-62993671D01*
X51905952Y-62992000D01*
X51196115Y-62992000D01*
X51180876Y-62996475D01*
X51179671Y-62997865D01*
X51178000Y-63005548D01*
X51178000Y-63021766D01*
X37268500Y-63021766D01*
X37268500Y-59955768D01*
X45618363Y-59955768D01*
X45652846Y-60072932D01*
X45657439Y-60084300D01*
X45745586Y-60252911D01*
X45752302Y-60263173D01*
X45871515Y-60411443D01*
X45880103Y-60420213D01*
X46025838Y-60542499D01*
X46035969Y-60549437D01*
X46202692Y-60641094D01*
X46213962Y-60645924D01*
X46395315Y-60703452D01*
X46407309Y-60706002D01*
X46555350Y-60722607D01*
X46562374Y-60723000D01*
X46569885Y-60723000D01*
X46585124Y-60718525D01*
X46586329Y-60717135D01*
X46588000Y-60709452D01*
X46588000Y-60704885D01*
X47096000Y-60704885D01*
X47100475Y-60720124D01*
X47101865Y-60721329D01*
X47109548Y-60723000D01*
X47114890Y-60723000D01*
X47121035Y-60722700D01*
X47262481Y-60708830D01*
X47274519Y-60706447D01*
X47456651Y-60651458D01*
X47467993Y-60646783D01*
X47635977Y-60557465D01*
X47646193Y-60550678D01*
X47793634Y-60430428D01*
X47802338Y-60421784D01*
X47923610Y-60275191D01*
X47930470Y-60265020D01*
X48020962Y-60097658D01*
X48025714Y-60086353D01*
X48064422Y-59961308D01*
X48064628Y-59947205D01*
X48057873Y-59944000D01*
X47114115Y-59944000D01*
X47098876Y-59948475D01*
X47097671Y-59949865D01*
X47096000Y-59957548D01*
X47096000Y-60704885D01*
X46588000Y-60704885D01*
X46588000Y-59962115D01*
X46583525Y-59946876D01*
X46582135Y-59945671D01*
X46574452Y-59944000D01*
X45633014Y-59944000D01*
X45619483Y-59947973D01*
X45618363Y-59955768D01*
X37268500Y-59955768D01*
X37268500Y-39184046D01*
X37288502Y-39115925D01*
X37342158Y-39069432D01*
X37412432Y-39059328D01*
X37470064Y-39083220D01*
X37521295Y-39121615D01*
X37657684Y-39172745D01*
X37719866Y-39179500D01*
X37858500Y-39179500D01*
X37926621Y-39199502D01*
X37973114Y-39253158D01*
X37984500Y-39305500D01*
X37984500Y-45666618D01*
X37964498Y-45734739D01*
X37910842Y-45781232D01*
X37902746Y-45784593D01*
X37879295Y-45793385D01*
X37762739Y-45880739D01*
X37675385Y-45997295D01*
X37624255Y-46133684D01*
X37617500Y-46195866D01*
X37617500Y-48292134D01*
X37624255Y-48354316D01*
X37675385Y-48490705D01*
X37762739Y-48607261D01*
X37879295Y-48694615D01*
X38015684Y-48745745D01*
X38077866Y-48752500D01*
X40174134Y-48752500D01*
X40236316Y-48745745D01*
X40372705Y-48694615D01*
X40489261Y-48607261D01*
X40576615Y-48490705D01*
X40627745Y-48354316D01*
X40634500Y-48292134D01*
X40634500Y-46195866D01*
X40627745Y-46133684D01*
X40576615Y-45997295D01*
X40489261Y-45880739D01*
X40372705Y-45793385D01*
X40236316Y-45742255D01*
X40174134Y-45735500D01*
X39377500Y-45735500D01*
X39309379Y-45715498D01*
X39262886Y-45661842D01*
X39251500Y-45609500D01*
X39251500Y-43918885D01*
X60060000Y-43918885D01*
X60064475Y-43934124D01*
X60065865Y-43935329D01*
X60073548Y-43937000D01*
X61195885Y-43937000D01*
X61211124Y-43932525D01*
X61212329Y-43931135D01*
X61214000Y-43923452D01*
X61214000Y-43918885D01*
X61722000Y-43918885D01*
X61726475Y-43934124D01*
X61727865Y-43935329D01*
X61735548Y-43937000D01*
X62857884Y-43937000D01*
X62873123Y-43932525D01*
X62874328Y-43931135D01*
X62875999Y-43923452D01*
X62875999Y-43246331D01*
X62875629Y-43239510D01*
X62870105Y-43188648D01*
X62866479Y-43173396D01*
X62821324Y-43052946D01*
X62812786Y-43037351D01*
X62736285Y-42935276D01*
X62723724Y-42922715D01*
X62621649Y-42846214D01*
X62606054Y-42837676D01*
X62485606Y-42792522D01*
X62470351Y-42788895D01*
X62419486Y-42783369D01*
X62412672Y-42783000D01*
X61740115Y-42783000D01*
X61724876Y-42787475D01*
X61723671Y-42788865D01*
X61722000Y-42796548D01*
X61722000Y-43918885D01*
X61214000Y-43918885D01*
X61214000Y-42801116D01*
X61209525Y-42785877D01*
X61208135Y-42784672D01*
X61200452Y-42783001D01*
X60523331Y-42783001D01*
X60516510Y-42783371D01*
X60465648Y-42788895D01*
X60450396Y-42792521D01*
X60329946Y-42837676D01*
X60314351Y-42846214D01*
X60212276Y-42922715D01*
X60199715Y-42935276D01*
X60123214Y-43037351D01*
X60114676Y-43052946D01*
X60069522Y-43173394D01*
X60065895Y-43188649D01*
X60060369Y-43239514D01*
X60060000Y-43246328D01*
X60060000Y-43918885D01*
X39251500Y-43918885D01*
X39251500Y-39305500D01*
X39271502Y-39237379D01*
X39325158Y-39190886D01*
X39377500Y-39179500D01*
X39516134Y-39179500D01*
X39578316Y-39172745D01*
X39714705Y-39121615D01*
X39831261Y-39034261D01*
X39918615Y-38917705D01*
X39941904Y-38855581D01*
X39962798Y-38799848D01*
X40005440Y-38743084D01*
X40072001Y-38718384D01*
X40141350Y-38733592D01*
X40176017Y-38761580D01*
X40201218Y-38790673D01*
X40208580Y-38797883D01*
X40372434Y-38933916D01*
X40380881Y-38939831D01*
X40564756Y-39047279D01*
X40574042Y-39051729D01*
X40773001Y-39127703D01*
X40782899Y-39130579D01*
X40886250Y-39151606D01*
X40900299Y-39150410D01*
X40904000Y-39140065D01*
X40904000Y-37693000D01*
X40924002Y-37624879D01*
X40977658Y-37578386D01*
X41030000Y-37567000D01*
X41286000Y-37567000D01*
X41354121Y-37587002D01*
X41400614Y-37640658D01*
X41412000Y-37693000D01*
X41412000Y-39139517D01*
X41416064Y-39153359D01*
X41429478Y-39155393D01*
X41436184Y-39154534D01*
X41446262Y-39152392D01*
X41650255Y-39091191D01*
X41659842Y-39087433D01*
X41851095Y-38993739D01*
X41859945Y-38988464D01*
X42034541Y-38863926D01*
X42101614Y-38840652D01*
X42170623Y-38857336D01*
X42196804Y-38877410D01*
X42827647Y-39508253D01*
X42835187Y-39516539D01*
X42839299Y-39523018D01*
X42845076Y-39528443D01*
X42888950Y-39569643D01*
X42891792Y-39572398D01*
X42911529Y-39592135D01*
X42914726Y-39594615D01*
X42923746Y-39602318D01*
X42955978Y-39632586D01*
X42962924Y-39636405D01*
X42962927Y-39636407D01*
X42973733Y-39642348D01*
X42990252Y-39653199D01*
X43006258Y-39665614D01*
X43013527Y-39668759D01*
X43013531Y-39668762D01*
X43046836Y-39683174D01*
X43057486Y-39688391D01*
X43096239Y-39709695D01*
X43103914Y-39711666D01*
X43103915Y-39711666D01*
X43115861Y-39714733D01*
X43134566Y-39721137D01*
X43153154Y-39729181D01*
X43160977Y-39730420D01*
X43160987Y-39730423D01*
X43196823Y-39736099D01*
X43208443Y-39738505D01*
X43243588Y-39747528D01*
X43251269Y-39749500D01*
X43271523Y-39749500D01*
X43291233Y-39751051D01*
X43311242Y-39754220D01*
X43319134Y-39753474D01*
X43355260Y-39750059D01*
X43367118Y-39749500D01*
X67249406Y-39749500D01*
X67317527Y-39769502D01*
X67338501Y-39786405D01*
X67949595Y-40397499D01*
X67983621Y-40459811D01*
X67986500Y-40486594D01*
X67986500Y-45703000D01*
X67966498Y-45771121D01*
X67912842Y-45817614D01*
X67860500Y-45829000D01*
X67821866Y-45829000D01*
X67759684Y-45835755D01*
X67623295Y-45886885D01*
X67506739Y-45974239D01*
X67419385Y-46090795D01*
X67368255Y-46227184D01*
X67361500Y-46289366D01*
X67361500Y-47594794D01*
X67341498Y-47662915D01*
X67287842Y-47709408D01*
X67217568Y-47719512D01*
X67155968Y-47691379D01*
X67155741Y-47691663D01*
X67154610Y-47690759D01*
X67152988Y-47690018D01*
X67151192Y-47688027D01*
X67131114Y-47671977D01*
X67117667Y-47679045D01*
X66169095Y-48627616D01*
X66106783Y-48661641D01*
X66035967Y-48656576D01*
X65990905Y-48627616D01*
X65041611Y-47678322D01*
X65029838Y-47671894D01*
X65017824Y-47681189D01*
X64989534Y-47721593D01*
X64984054Y-47731083D01*
X64895674Y-47920613D01*
X64891927Y-47930910D01*
X64881398Y-47970205D01*
X64844448Y-48030829D01*
X64780588Y-48061851D01*
X64710093Y-48053424D01*
X64670596Y-48026691D01*
X64424405Y-47780500D01*
X64390379Y-47718188D01*
X64387500Y-47691405D01*
X64387500Y-47363355D01*
X64388027Y-47352172D01*
X64389702Y-47344679D01*
X64388498Y-47306387D01*
X65394477Y-47306387D01*
X65401545Y-47319834D01*
X66067189Y-47985479D01*
X66081132Y-47993092D01*
X66082966Y-47992961D01*
X66089580Y-47988710D01*
X66759180Y-47319109D01*
X66765607Y-47307339D01*
X66756313Y-47295325D01*
X66715912Y-47267036D01*
X66706416Y-47261553D01*
X66516887Y-47173174D01*
X66506595Y-47169428D01*
X66304599Y-47115304D01*
X66293804Y-47113401D01*
X66085475Y-47095174D01*
X66074525Y-47095174D01*
X65866196Y-47113401D01*
X65855401Y-47115304D01*
X65653405Y-47169428D01*
X65643113Y-47173174D01*
X65453583Y-47261554D01*
X65444093Y-47267034D01*
X65402851Y-47295911D01*
X65394477Y-47306387D01*
X64388498Y-47306387D01*
X64387562Y-47276602D01*
X64387500Y-47272643D01*
X64387500Y-47244732D01*
X64386995Y-47240732D01*
X64386062Y-47228889D01*
X64384922Y-47192617D01*
X64384673Y-47184698D01*
X64379022Y-47165246D01*
X64375014Y-47145894D01*
X64373467Y-47133651D01*
X64372474Y-47125791D01*
X64367569Y-47113401D01*
X64356200Y-47084685D01*
X64352355Y-47073458D01*
X64351721Y-47071275D01*
X64340018Y-47030995D01*
X64335984Y-47024173D01*
X64335981Y-47024167D01*
X64329706Y-47013556D01*
X64321010Y-46995806D01*
X64316472Y-46984344D01*
X64316469Y-46984339D01*
X64313552Y-46976971D01*
X64287573Y-46941213D01*
X64281057Y-46931295D01*
X64262575Y-46900045D01*
X64258542Y-46893225D01*
X64244218Y-46878901D01*
X64231376Y-46863866D01*
X64219472Y-46847481D01*
X64185406Y-46819299D01*
X64176627Y-46811310D01*
X62843183Y-45477866D01*
X62809157Y-45415554D01*
X62814222Y-45344739D01*
X62820995Y-45329931D01*
X62866478Y-45208606D01*
X62870105Y-45193351D01*
X62875631Y-45142486D01*
X62876000Y-45135672D01*
X62876000Y-44463115D01*
X62871525Y-44447876D01*
X62870135Y-44446671D01*
X62862452Y-44445000D01*
X60078116Y-44445000D01*
X60062877Y-44449475D01*
X60061672Y-44450865D01*
X60060001Y-44458548D01*
X60060001Y-44706500D01*
X60039999Y-44774621D01*
X59986343Y-44821114D01*
X59934001Y-44832500D01*
X59006768Y-44832500D01*
X58995585Y-44831973D01*
X58988092Y-44830298D01*
X58980166Y-44830547D01*
X58980165Y-44830547D01*
X58920002Y-44832438D01*
X58916044Y-44832500D01*
X58888144Y-44832500D01*
X58884154Y-44833004D01*
X58872320Y-44833936D01*
X58828111Y-44835326D01*
X58820495Y-44837539D01*
X58820493Y-44837539D01*
X58808652Y-44840979D01*
X58789293Y-44844988D01*
X58787983Y-44845154D01*
X58769203Y-44847526D01*
X58761837Y-44850442D01*
X58761831Y-44850444D01*
X58728098Y-44863800D01*
X58716868Y-44867645D01*
X58700828Y-44872305D01*
X58674407Y-44879981D01*
X58667584Y-44884016D01*
X58656966Y-44890295D01*
X58639213Y-44898992D01*
X58631568Y-44902019D01*
X58620383Y-44906448D01*
X58613968Y-44911109D01*
X58584612Y-44932437D01*
X58574695Y-44938951D01*
X58536638Y-44961458D01*
X58522317Y-44975779D01*
X58507284Y-44988619D01*
X58490893Y-45000528D01*
X58485842Y-45006634D01*
X58462702Y-45034605D01*
X58454712Y-45043384D01*
X56121747Y-47376348D01*
X56113461Y-47383888D01*
X56106982Y-47388000D01*
X56101557Y-47393777D01*
X56060357Y-47437651D01*
X56057602Y-47440493D01*
X56037865Y-47460230D01*
X56035385Y-47463427D01*
X56027682Y-47472447D01*
X55997414Y-47504679D01*
X55993595Y-47511625D01*
X55993593Y-47511628D01*
X55987652Y-47522434D01*
X55976801Y-47538953D01*
X55964386Y-47554959D01*
X55961241Y-47562228D01*
X55961238Y-47562232D01*
X55946826Y-47595537D01*
X55941609Y-47606187D01*
X55920305Y-47644940D01*
X55918334Y-47652615D01*
X55918334Y-47652616D01*
X55915267Y-47664562D01*
X55908863Y-47683266D01*
X55905621Y-47690759D01*
X55900819Y-47701855D01*
X55899580Y-47709678D01*
X55899577Y-47709688D01*
X55893901Y-47745524D01*
X55891495Y-47757144D01*
X55885499Y-47780500D01*
X55880500Y-47799970D01*
X55880500Y-47820224D01*
X55878949Y-47839934D01*
X55875780Y-47859943D01*
X55876526Y-47867835D01*
X55879941Y-47903961D01*
X55880500Y-47915819D01*
X55880500Y-52689567D01*
X55860498Y-52757688D01*
X55818322Y-52797000D01*
X55817295Y-52797385D01*
X55700739Y-52884739D01*
X55613385Y-53001295D01*
X55562255Y-53137684D01*
X55555500Y-53199866D01*
X55555500Y-54496134D01*
X55562255Y-54558316D01*
X55613385Y-54694705D01*
X55659692Y-54756492D01*
X55681758Y-54785935D01*
X55706606Y-54852441D01*
X55691553Y-54921824D01*
X55641379Y-54972054D01*
X55580932Y-54987500D01*
X54147068Y-54987500D01*
X54078947Y-54967498D01*
X54032454Y-54913842D01*
X54022350Y-54843568D01*
X54046242Y-54785935D01*
X54068308Y-54756492D01*
X54114615Y-54694705D01*
X54165745Y-54558316D01*
X54172500Y-54496134D01*
X54172500Y-53199866D01*
X54165745Y-53137684D01*
X54114615Y-53001295D01*
X54027261Y-52884739D01*
X53910705Y-52797385D01*
X53774316Y-52746255D01*
X53712134Y-52739500D01*
X52715866Y-52739500D01*
X52653684Y-52746255D01*
X52517295Y-52797385D01*
X52400739Y-52884739D01*
X52313385Y-53001295D01*
X52262255Y-53137684D01*
X52255500Y-53199866D01*
X52255500Y-54496134D01*
X52262255Y-54558316D01*
X52313385Y-54694705D01*
X52400739Y-54811261D01*
X52517295Y-54898615D01*
X52517951Y-54898861D01*
X52565157Y-54946175D01*
X52580500Y-55006433D01*
X52580500Y-55411233D01*
X52579973Y-55422416D01*
X52578298Y-55429909D01*
X52578547Y-55437835D01*
X52577801Y-55445727D01*
X52575840Y-55445542D01*
X52560618Y-55504131D01*
X52541632Y-55528464D01*
X51590498Y-56479597D01*
X51528188Y-56513621D01*
X51501405Y-56516500D01*
X48181754Y-56516500D01*
X48113633Y-56496498D01*
X48067140Y-56442842D01*
X48063772Y-56434730D01*
X48045767Y-56386703D01*
X48042615Y-56378295D01*
X47955261Y-56261739D01*
X47838705Y-56174385D01*
X47702316Y-56123255D01*
X47640134Y-56116500D01*
X47485500Y-56116500D01*
X47417379Y-56096498D01*
X47370886Y-56042842D01*
X47359500Y-55990500D01*
X47359500Y-48695566D01*
X47379502Y-48627445D01*
X47419665Y-48588133D01*
X47611202Y-48470759D01*
X47611208Y-48470755D01*
X47615416Y-48468176D01*
X47795969Y-48313969D01*
X47950176Y-48133416D01*
X47952755Y-48129208D01*
X47952759Y-48129202D01*
X48071654Y-47935183D01*
X48074240Y-47930963D01*
X48076357Y-47925854D01*
X48163211Y-47716167D01*
X48163212Y-47716165D01*
X48165105Y-47711594D01*
X48188611Y-47613686D01*
X48219380Y-47485524D01*
X48219381Y-47485518D01*
X48220535Y-47480711D01*
X48239165Y-47244000D01*
X48220535Y-47007289D01*
X48217779Y-46995806D01*
X48166260Y-46781218D01*
X48165105Y-46776406D01*
X48074240Y-46557037D01*
X48071654Y-46552817D01*
X47952759Y-46358798D01*
X47952755Y-46358792D01*
X47950176Y-46354584D01*
X47795969Y-46174031D01*
X47615416Y-46019824D01*
X47611208Y-46017245D01*
X47611202Y-46017241D01*
X47417183Y-45898346D01*
X47412963Y-45895760D01*
X47408393Y-45893867D01*
X47408389Y-45893865D01*
X47198167Y-45806789D01*
X47198165Y-45806788D01*
X47193594Y-45804895D01*
X47109063Y-45784601D01*
X46967524Y-45750620D01*
X46967518Y-45750619D01*
X46962711Y-45749465D01*
X46726000Y-45730835D01*
X46489289Y-45749465D01*
X46484482Y-45750619D01*
X46484476Y-45750620D01*
X46342937Y-45784601D01*
X46258406Y-45804895D01*
X46253835Y-45806788D01*
X46253833Y-45806789D01*
X46043611Y-45893865D01*
X46043607Y-45893867D01*
X46039037Y-45895760D01*
X46034817Y-45898346D01*
X45840798Y-46017241D01*
X45840792Y-46017245D01*
X45836584Y-46019824D01*
X45656031Y-46174031D01*
X45501824Y-46354584D01*
X45499245Y-46358792D01*
X45499241Y-46358798D01*
X45380346Y-46552817D01*
X45377760Y-46557037D01*
X45286895Y-46776406D01*
X45285740Y-46781218D01*
X45234222Y-46995806D01*
X45231465Y-47007289D01*
X45212835Y-47244000D01*
X45231465Y-47480711D01*
X45232619Y-47485518D01*
X45232620Y-47485524D01*
X45263389Y-47613686D01*
X45286895Y-47711594D01*
X45288788Y-47716165D01*
X45288789Y-47716167D01*
X45375644Y-47925854D01*
X45377760Y-47930963D01*
X45380346Y-47935183D01*
X45499241Y-48129202D01*
X45499245Y-48129208D01*
X45501824Y-48133416D01*
X45656031Y-48313969D01*
X45836584Y-48468176D01*
X45840792Y-48470755D01*
X45840798Y-48470759D01*
X46032335Y-48588133D01*
X46079966Y-48640781D01*
X46092500Y-48695566D01*
X46092500Y-55998367D01*
X46072498Y-56066488D01*
X46018842Y-56112981D01*
X45995645Y-56120950D01*
X45989539Y-56122402D01*
X45981684Y-56123255D01*
X45974289Y-56126027D01*
X45974286Y-56126028D01*
X45859978Y-56168880D01*
X45845295Y-56174385D01*
X45728739Y-56261739D01*
X45641385Y-56378295D01*
X45590255Y-56514684D01*
X45583500Y-56576866D01*
X45583500Y-57723134D01*
X45590255Y-57785316D01*
X45598758Y-57807997D01*
X45638232Y-57913296D01*
X45638234Y-57913299D01*
X45641385Y-57921705D01*
X45646773Y-57928894D01*
X45646906Y-57929137D01*
X45662076Y-57998494D01*
X45656752Y-58026907D01*
X45599710Y-58211180D01*
X45578524Y-58412750D01*
X45581347Y-58443768D01*
X45590879Y-58548500D01*
X45596894Y-58614596D01*
X45598632Y-58620502D01*
X45598633Y-58620506D01*
X45621194Y-58697161D01*
X45654119Y-58809029D01*
X45656972Y-58814486D01*
X45656973Y-58814489D01*
X45745162Y-58983181D01*
X45745165Y-58983185D01*
X45748019Y-58988645D01*
X45748221Y-58988897D01*
X45768201Y-59054912D01*
X45753041Y-59115885D01*
X45663038Y-59282342D01*
X45658286Y-59293647D01*
X45619578Y-59418692D01*
X45619372Y-59432795D01*
X45626127Y-59436000D01*
X46395758Y-59436000D01*
X46409803Y-59436785D01*
X46558817Y-59453500D01*
X47118004Y-59453500D01*
X47268713Y-59438723D01*
X47271002Y-59438032D01*
X47291724Y-59436000D01*
X48050986Y-59436000D01*
X48064517Y-59432027D01*
X48065637Y-59424232D01*
X48031154Y-59307068D01*
X48026561Y-59295700D01*
X47996331Y-59237875D01*
X47982497Y-59168239D01*
X48008507Y-59102179D01*
X48066103Y-59060667D01*
X48107993Y-59053500D01*
X51221036Y-59053500D01*
X51289157Y-59073502D01*
X51328179Y-59113196D01*
X51334884Y-59124031D01*
X51457997Y-59246929D01*
X51464224Y-59250767D01*
X51464226Y-59250769D01*
X51480116Y-59260564D01*
X51527609Y-59313336D01*
X51540000Y-59367824D01*
X51540000Y-60834233D01*
X51539473Y-60845416D01*
X51537798Y-60852909D01*
X51538047Y-60860835D01*
X51538047Y-60860836D01*
X51539938Y-60920986D01*
X51540000Y-60924945D01*
X51540000Y-60952856D01*
X51540497Y-60956790D01*
X51540497Y-60956791D01*
X51540505Y-60956856D01*
X51541438Y-60968693D01*
X51542827Y-61012889D01*
X51548478Y-61032339D01*
X51552487Y-61051700D01*
X51555026Y-61071797D01*
X51557945Y-61079168D01*
X51557945Y-61079170D01*
X51571304Y-61112912D01*
X51575149Y-61124142D01*
X51587482Y-61166593D01*
X51591515Y-61173412D01*
X51591517Y-61173417D01*
X51597793Y-61184028D01*
X51606488Y-61201776D01*
X51613948Y-61220617D01*
X51618610Y-61227033D01*
X51618610Y-61227034D01*
X51639936Y-61256387D01*
X51646452Y-61266307D01*
X51668958Y-61304362D01*
X51683279Y-61318683D01*
X51696119Y-61333716D01*
X51708028Y-61350107D01*
X51714134Y-61355158D01*
X51742105Y-61378298D01*
X51750884Y-61386288D01*
X51909394Y-61544798D01*
X51943420Y-61607110D01*
X51938355Y-61677925D01*
X51895808Y-61734761D01*
X51833302Y-61759220D01*
X51776869Y-61765075D01*
X51763472Y-61767968D01*
X51612047Y-61818488D01*
X51598885Y-61824653D01*
X51463508Y-61908426D01*
X51452110Y-61917460D01*
X51339637Y-62030129D01*
X51330625Y-62041540D01*
X51247088Y-62177063D01*
X51240944Y-62190241D01*
X51190685Y-62341766D01*
X51187819Y-62355132D01*
X51178328Y-62447770D01*
X51178000Y-62454185D01*
X51178000Y-62465885D01*
X51182475Y-62481124D01*
X51183865Y-62482329D01*
X51191548Y-62484000D01*
X52301500Y-62484000D01*
X52369621Y-62504002D01*
X52416114Y-62557658D01*
X52427500Y-62610000D01*
X52427500Y-63702885D01*
X52431975Y-63718124D01*
X52433365Y-63719329D01*
X52441048Y-63721000D01*
X52469766Y-63721000D01*
X52476282Y-63720663D01*
X52570132Y-63710925D01*
X52583528Y-63708032D01*
X52734953Y-63657512D01*
X52748115Y-63651347D01*
X52883492Y-63567574D01*
X52894890Y-63558540D01*
X52996393Y-63456860D01*
X53058676Y-63422781D01*
X53129496Y-63427784D01*
X53174583Y-63456704D01*
X53282997Y-63564929D01*
X53289227Y-63568769D01*
X53289228Y-63568770D01*
X53386714Y-63628861D01*
X53431080Y-63656209D01*
X53596191Y-63710974D01*
X53603027Y-63711674D01*
X53603030Y-63711675D01*
X53650370Y-63716525D01*
X53698928Y-63721500D01*
X54298072Y-63721500D01*
X54301318Y-63721163D01*
X54301322Y-63721163D01*
X54395235Y-63711419D01*
X54395239Y-63711418D01*
X54402093Y-63710707D01*
X54408629Y-63708526D01*
X54408631Y-63708526D01*
X54557686Y-63658797D01*
X54567107Y-63655654D01*
X54715031Y-63564116D01*
X54739249Y-63539856D01*
X54832758Y-63446184D01*
X54832762Y-63446179D01*
X54837929Y-63441003D01*
X54929209Y-63292920D01*
X54983974Y-63127809D01*
X54994500Y-63025072D01*
X54994500Y-62450928D01*
X54994163Y-62447678D01*
X54984419Y-62353765D01*
X54984418Y-62353761D01*
X54983707Y-62346907D01*
X54928654Y-62181893D01*
X54837116Y-62033969D01*
X54815394Y-62012285D01*
X54719184Y-61916242D01*
X54719179Y-61916238D01*
X54714003Y-61911071D01*
X54707772Y-61907230D01*
X54572150Y-61823631D01*
X54572148Y-61823630D01*
X54565920Y-61819791D01*
X54400809Y-61765026D01*
X54393973Y-61764326D01*
X54393970Y-61764325D01*
X54342474Y-61759049D01*
X54298072Y-61754500D01*
X53963094Y-61754500D01*
X53894973Y-61734498D01*
X53873999Y-61717595D01*
X52843905Y-60687500D01*
X52809879Y-60625188D01*
X52807000Y-60598405D01*
X52807000Y-59367699D01*
X52827002Y-59299578D01*
X52866699Y-59260554D01*
X52890031Y-59246116D01*
X52898258Y-59237875D01*
X52996747Y-59139214D01*
X53059030Y-59105135D01*
X53129850Y-59110138D01*
X53174937Y-59139059D01*
X53277812Y-59241754D01*
X53277817Y-59241758D01*
X53282997Y-59246929D01*
X53289227Y-59250769D01*
X53289228Y-59250770D01*
X53403714Y-59321340D01*
X53431080Y-59338209D01*
X53596191Y-59392974D01*
X53603027Y-59393674D01*
X53603030Y-59393675D01*
X53654526Y-59398951D01*
X53698928Y-59403500D01*
X54033906Y-59403500D01*
X54102027Y-59423502D01*
X54123001Y-59440405D01*
X55463595Y-60781000D01*
X55497621Y-60843312D01*
X55500500Y-60870095D01*
X55500500Y-64183233D01*
X55499973Y-64194416D01*
X55498298Y-64201909D01*
X55498547Y-64209835D01*
X55498547Y-64209836D01*
X55500438Y-64269986D01*
X55500500Y-64273945D01*
X55500500Y-64301856D01*
X55500997Y-64305790D01*
X55500997Y-64305791D01*
X55501005Y-64305856D01*
X55501938Y-64317693D01*
X55503327Y-64361889D01*
X55508978Y-64381339D01*
X55512987Y-64400700D01*
X55515526Y-64420797D01*
X55518445Y-64428168D01*
X55518445Y-64428170D01*
X55531804Y-64461912D01*
X55535649Y-64473142D01*
X55547982Y-64515593D01*
X55552015Y-64522412D01*
X55552017Y-64522417D01*
X55558293Y-64533028D01*
X55566988Y-64550776D01*
X55574448Y-64569617D01*
X55579110Y-64576033D01*
X55579110Y-64576034D01*
X55600436Y-64605387D01*
X55606952Y-64615307D01*
X55624283Y-64644611D01*
X55629458Y-64653362D01*
X55643779Y-64667683D01*
X55656619Y-64682716D01*
X55668528Y-64699107D01*
X55674632Y-64704157D01*
X55674637Y-64704162D01*
X55702598Y-64727293D01*
X55711379Y-64735283D01*
X56646353Y-65670258D01*
X56653887Y-65678537D01*
X56658000Y-65685018D01*
X56679096Y-65704828D01*
X56707651Y-65731643D01*
X56710493Y-65734398D01*
X56730230Y-65754135D01*
X56733427Y-65756615D01*
X56742447Y-65764318D01*
X56774679Y-65794586D01*
X56781625Y-65798405D01*
X56781628Y-65798407D01*
X56792434Y-65804348D01*
X56808953Y-65815199D01*
X56824959Y-65827614D01*
X56832228Y-65830759D01*
X56832232Y-65830762D01*
X56865537Y-65845174D01*
X56876187Y-65850391D01*
X56914940Y-65871695D01*
X56922615Y-65873666D01*
X56922616Y-65873666D01*
X56934562Y-65876733D01*
X56953267Y-65883137D01*
X56971855Y-65891181D01*
X56979678Y-65892420D01*
X56979688Y-65892423D01*
X57015524Y-65898099D01*
X57027144Y-65900505D01*
X57054538Y-65907538D01*
X57069970Y-65911500D01*
X57090224Y-65911500D01*
X57109934Y-65913051D01*
X57129943Y-65916220D01*
X57137835Y-65915474D01*
X57157236Y-65913640D01*
X57173962Y-65912059D01*
X57185819Y-65911500D01*
X62913233Y-65911500D01*
X62924416Y-65912027D01*
X62931909Y-65913702D01*
X62939835Y-65913453D01*
X62939836Y-65913453D01*
X62999986Y-65911562D01*
X63003945Y-65911500D01*
X63031856Y-65911500D01*
X63035791Y-65911003D01*
X63035856Y-65910995D01*
X63047693Y-65910062D01*
X63079951Y-65909048D01*
X63083970Y-65908922D01*
X63091889Y-65908673D01*
X63111343Y-65903021D01*
X63130700Y-65899013D01*
X63142930Y-65897468D01*
X63142931Y-65897468D01*
X63150797Y-65896474D01*
X63158168Y-65893555D01*
X63158170Y-65893555D01*
X63191912Y-65880196D01*
X63203142Y-65876351D01*
X63237983Y-65866229D01*
X63237984Y-65866229D01*
X63245593Y-65864018D01*
X63252412Y-65859985D01*
X63252417Y-65859983D01*
X63263028Y-65853707D01*
X63280776Y-65845012D01*
X63299617Y-65837552D01*
X63335387Y-65811564D01*
X63345307Y-65805048D01*
X63376535Y-65786580D01*
X63376538Y-65786578D01*
X63383362Y-65782542D01*
X63397683Y-65768221D01*
X63412717Y-65755380D01*
X63422693Y-65748132D01*
X63429107Y-65743472D01*
X63457288Y-65709407D01*
X63465278Y-65700626D01*
X64146258Y-65019647D01*
X64154537Y-65012113D01*
X64161018Y-65008000D01*
X64207644Y-64958348D01*
X64210398Y-64955507D01*
X64230135Y-64935770D01*
X64232615Y-64932573D01*
X64240320Y-64923551D01*
X64265159Y-64897100D01*
X64270586Y-64891321D01*
X64274405Y-64884375D01*
X64274407Y-64884372D01*
X64280348Y-64873566D01*
X64291199Y-64857047D01*
X64298758Y-64847301D01*
X64303614Y-64841041D01*
X64306759Y-64833772D01*
X64306762Y-64833768D01*
X64321174Y-64800463D01*
X64326391Y-64789813D01*
X64347695Y-64751060D01*
X64352733Y-64731437D01*
X64359137Y-64712734D01*
X64364033Y-64701420D01*
X64364033Y-64701419D01*
X64367181Y-64694145D01*
X64368420Y-64686322D01*
X64368423Y-64686312D01*
X64374099Y-64650476D01*
X64376505Y-64638856D01*
X64385528Y-64603711D01*
X64385528Y-64603710D01*
X64387500Y-64596030D01*
X64387500Y-64575776D01*
X64389051Y-64556065D01*
X64390980Y-64543886D01*
X64392220Y-64536057D01*
X64388059Y-64492038D01*
X64387500Y-64480181D01*
X64387500Y-64373654D01*
X64407502Y-64305533D01*
X64461158Y-64259040D01*
X64531432Y-64248936D01*
X64558448Y-64255944D01*
X64638996Y-64286702D01*
X64648899Y-64289579D01*
X64752250Y-64310606D01*
X64766299Y-64309410D01*
X64770000Y-64299065D01*
X64770000Y-64298517D01*
X65278000Y-64298517D01*
X65282064Y-64312359D01*
X65295478Y-64314393D01*
X65302184Y-64313534D01*
X65312262Y-64311392D01*
X65516255Y-64250191D01*
X65525842Y-64246433D01*
X65717095Y-64152739D01*
X65725945Y-64147464D01*
X65899328Y-64023792D01*
X65907200Y-64017139D01*
X66058052Y-63866812D01*
X66064730Y-63858965D01*
X66189003Y-63686020D01*
X66194313Y-63677183D01*
X66288670Y-63486267D01*
X66292469Y-63476672D01*
X66354377Y-63272910D01*
X66356555Y-63262837D01*
X66357986Y-63251962D01*
X66355775Y-63237778D01*
X66342617Y-63234000D01*
X65296115Y-63234000D01*
X65280876Y-63238475D01*
X65279671Y-63239865D01*
X65278000Y-63247548D01*
X65278000Y-64298517D01*
X64770000Y-64298517D01*
X64770000Y-62852000D01*
X64790002Y-62783879D01*
X64843658Y-62737386D01*
X64896000Y-62726000D01*
X66342344Y-62726000D01*
X66355875Y-62722027D01*
X66357180Y-62712947D01*
X66315214Y-62545875D01*
X66311894Y-62536124D01*
X66226972Y-62340814D01*
X66222105Y-62331739D01*
X66106426Y-62152926D01*
X66100136Y-62144757D01*
X65956806Y-61987240D01*
X65949268Y-61980211D01*
X65899767Y-61941118D01*
X65858703Y-61883202D01*
X65855471Y-61812279D01*
X65888763Y-61753141D01*
X67388994Y-60252911D01*
X69012253Y-58629652D01*
X69020539Y-58622112D01*
X69027018Y-58618000D01*
X69073644Y-58568348D01*
X69076398Y-58565507D01*
X69096135Y-58545770D01*
X69098615Y-58542573D01*
X69106320Y-58533551D01*
X69131159Y-58507100D01*
X69136586Y-58501321D01*
X69140405Y-58494375D01*
X69140407Y-58494372D01*
X69146348Y-58483566D01*
X69157199Y-58467047D01*
X69164758Y-58457301D01*
X69169614Y-58451041D01*
X69172759Y-58443772D01*
X69172762Y-58443768D01*
X69187174Y-58410463D01*
X69192391Y-58399813D01*
X69213695Y-58361060D01*
X69218733Y-58341437D01*
X69225137Y-58322734D01*
X69230033Y-58311420D01*
X69230033Y-58311419D01*
X69233181Y-58304145D01*
X69234420Y-58296322D01*
X69234423Y-58296312D01*
X69240099Y-58260476D01*
X69242505Y-58248856D01*
X69251528Y-58213711D01*
X69251528Y-58213710D01*
X69253500Y-58206030D01*
X69253500Y-58185776D01*
X69255051Y-58166065D01*
X69256980Y-58153886D01*
X69258220Y-58146057D01*
X69254059Y-58102038D01*
X69253500Y-58090181D01*
X69253500Y-57380203D01*
X72860743Y-57380203D01*
X72861302Y-57384447D01*
X72861302Y-57384451D01*
X72869825Y-57449191D01*
X72898268Y-57665234D01*
X72974129Y-57942536D01*
X72975813Y-57946484D01*
X73060939Y-58146057D01*
X73086923Y-58206976D01*
X73156203Y-58322734D01*
X73215912Y-58422500D01*
X73234561Y-58453661D01*
X73414313Y-58678028D01*
X73431397Y-58694240D01*
X73600450Y-58854665D01*
X73622851Y-58875923D01*
X73856317Y-59043686D01*
X73860112Y-59045695D01*
X73860113Y-59045696D01*
X73881869Y-59057215D01*
X74110392Y-59178212D01*
X74380373Y-59277011D01*
X74661264Y-59338255D01*
X74689841Y-59340504D01*
X74884282Y-59355807D01*
X74884291Y-59355807D01*
X74886739Y-59356000D01*
X75042271Y-59356000D01*
X75044407Y-59355854D01*
X75044418Y-59355854D01*
X75252548Y-59341665D01*
X75252554Y-59341664D01*
X75256825Y-59341373D01*
X75261020Y-59340504D01*
X75261022Y-59340504D01*
X75397583Y-59312224D01*
X75538342Y-59283074D01*
X75809343Y-59187107D01*
X75943608Y-59117808D01*
X76061005Y-59057215D01*
X76061006Y-59057215D01*
X76064812Y-59055250D01*
X76068313Y-59052789D01*
X76068317Y-59052787D01*
X76274817Y-58907656D01*
X76300023Y-58889941D01*
X76393453Y-58803120D01*
X76507479Y-58697161D01*
X76507481Y-58697158D01*
X76510622Y-58694240D01*
X76692713Y-58471768D01*
X76842927Y-58226642D01*
X76869519Y-58166065D01*
X76956757Y-57967330D01*
X76958483Y-57963398D01*
X77037244Y-57686906D01*
X77071483Y-57446325D01*
X77077146Y-57406536D01*
X77077146Y-57406534D01*
X77077751Y-57402284D01*
X77077845Y-57384451D01*
X77079235Y-57119083D01*
X77079235Y-57119076D01*
X77079257Y-57114797D01*
X77068028Y-57029500D01*
X77056936Y-56945249D01*
X77041732Y-56829766D01*
X76965871Y-56552464D01*
X76902658Y-56404265D01*
X76854763Y-56291976D01*
X76854761Y-56291972D01*
X76853077Y-56288024D01*
X76738451Y-56096498D01*
X76707643Y-56045021D01*
X76707640Y-56045017D01*
X76705439Y-56041339D01*
X76525687Y-55816972D01*
X76376342Y-55675249D01*
X76320258Y-55622027D01*
X76320255Y-55622025D01*
X76317149Y-55619077D01*
X76083683Y-55451314D01*
X76061843Y-55439750D01*
X76007983Y-55411233D01*
X75829608Y-55316788D01*
X75559627Y-55217989D01*
X75278736Y-55156745D01*
X75247685Y-55154301D01*
X75055718Y-55139193D01*
X75055709Y-55139193D01*
X75053261Y-55139000D01*
X74897729Y-55139000D01*
X74895593Y-55139146D01*
X74895582Y-55139146D01*
X74687452Y-55153335D01*
X74687446Y-55153336D01*
X74683175Y-55153627D01*
X74678980Y-55154496D01*
X74678978Y-55154496D01*
X74542417Y-55182776D01*
X74401658Y-55211926D01*
X74130657Y-55307893D01*
X73875188Y-55439750D01*
X73871687Y-55442211D01*
X73871683Y-55442213D01*
X73783583Y-55504131D01*
X73639977Y-55605059D01*
X73624892Y-55619077D01*
X73480969Y-55752819D01*
X73429378Y-55800760D01*
X73247287Y-56023232D01*
X73097073Y-56268358D01*
X72981517Y-56531602D01*
X72980342Y-56535729D01*
X72980341Y-56535730D01*
X72955350Y-56623460D01*
X72902756Y-56808094D01*
X72879484Y-56971615D01*
X72862928Y-57087948D01*
X72862249Y-57092716D01*
X72862227Y-57097005D01*
X72862226Y-57097012D01*
X72860821Y-57365237D01*
X72860743Y-57380203D01*
X69253500Y-57380203D01*
X69253500Y-55865854D01*
X69273502Y-55797733D01*
X69307228Y-55762642D01*
X69374134Y-55715794D01*
X69427527Y-55678408D01*
X69427530Y-55678406D01*
X69432038Y-55675249D01*
X69587749Y-55519538D01*
X69608494Y-55489912D01*
X69710899Y-55343662D01*
X69710900Y-55343660D01*
X69714056Y-55339153D01*
X69716379Y-55334171D01*
X69716382Y-55334166D01*
X69769868Y-55219464D01*
X69807120Y-55139576D01*
X69864115Y-54926871D01*
X69883307Y-54707500D01*
X69864115Y-54488129D01*
X69807120Y-54275424D01*
X69721123Y-54091002D01*
X69716382Y-54080834D01*
X69716379Y-54080829D01*
X69714056Y-54075847D01*
X69587749Y-53895462D01*
X69432038Y-53739751D01*
X69251654Y-53613444D01*
X69246672Y-53611121D01*
X69246667Y-53611118D01*
X69119232Y-53551695D01*
X69065947Y-53504778D01*
X69046486Y-53436501D01*
X69067028Y-53368541D01*
X69119232Y-53323305D01*
X69246667Y-53263882D01*
X69246672Y-53263879D01*
X69251654Y-53261556D01*
X69417341Y-53145540D01*
X69427527Y-53138408D01*
X69427529Y-53138406D01*
X69432038Y-53135249D01*
X69587749Y-52979538D01*
X69714056Y-52799153D01*
X69716379Y-52794171D01*
X69716382Y-52794166D01*
X69791236Y-52633639D01*
X69807120Y-52599576D01*
X69864115Y-52386871D01*
X69883307Y-52167500D01*
X69864115Y-51948129D01*
X69807120Y-51735424D01*
X69804797Y-51730442D01*
X69804794Y-51730434D01*
X69795382Y-51710251D01*
X69784720Y-51640059D01*
X69813700Y-51575246D01*
X69873119Y-51536390D01*
X69909576Y-51531000D01*
X70943733Y-51531000D01*
X70954916Y-51531527D01*
X70962409Y-51533202D01*
X70970335Y-51532953D01*
X70970336Y-51532953D01*
X71030486Y-51531062D01*
X71034445Y-51531000D01*
X71062356Y-51531000D01*
X71066291Y-51530503D01*
X71066356Y-51530495D01*
X71078193Y-51529562D01*
X71110451Y-51528548D01*
X71114470Y-51528422D01*
X71122389Y-51528173D01*
X71141843Y-51522521D01*
X71161200Y-51518513D01*
X71173430Y-51516968D01*
X71173431Y-51516968D01*
X71181297Y-51515974D01*
X71188668Y-51513055D01*
X71188670Y-51513055D01*
X71222412Y-51499696D01*
X71233642Y-51495851D01*
X71268483Y-51485729D01*
X71268484Y-51485729D01*
X71276093Y-51483518D01*
X71282912Y-51479485D01*
X71282917Y-51479483D01*
X71293528Y-51473207D01*
X71311276Y-51464512D01*
X71330117Y-51457052D01*
X71365887Y-51431064D01*
X71375807Y-51424548D01*
X71407035Y-51406080D01*
X71407038Y-51406078D01*
X71413862Y-51402042D01*
X71428183Y-51387721D01*
X71443217Y-51374880D01*
X71453194Y-51367631D01*
X71459607Y-51362972D01*
X71487798Y-51328895D01*
X71495788Y-51320116D01*
X72274247Y-50541657D01*
X72282537Y-50534113D01*
X72289018Y-50530000D01*
X72335659Y-50480332D01*
X72338413Y-50477491D01*
X72358135Y-50457769D01*
X72360612Y-50454576D01*
X72368317Y-50445555D01*
X72393159Y-50419100D01*
X72398586Y-50413321D01*
X72402407Y-50406371D01*
X72408346Y-50395568D01*
X72419202Y-50379041D01*
X72426757Y-50369302D01*
X72426758Y-50369300D01*
X72431614Y-50363040D01*
X72449174Y-50322460D01*
X72454391Y-50311812D01*
X72471875Y-50280009D01*
X72471876Y-50280007D01*
X72475695Y-50273060D01*
X72478022Y-50264000D01*
X72480733Y-50253438D01*
X72487137Y-50234734D01*
X72492033Y-50223420D01*
X72492033Y-50223419D01*
X72495181Y-50216145D01*
X72496420Y-50208322D01*
X72496423Y-50208312D01*
X72502099Y-50172476D01*
X72504505Y-50160856D01*
X72513528Y-50125711D01*
X72513528Y-50125710D01*
X72515500Y-50118030D01*
X72515500Y-50097776D01*
X72517051Y-50078065D01*
X72518980Y-50065886D01*
X72520220Y-50058057D01*
X72516059Y-50014038D01*
X72515500Y-50002181D01*
X72515500Y-45950203D01*
X72860743Y-45950203D01*
X72861302Y-45954447D01*
X72861302Y-45954451D01*
X72877810Y-46079840D01*
X72898268Y-46235234D01*
X72974129Y-46512536D01*
X72975813Y-46516484D01*
X73052584Y-46696469D01*
X73086923Y-46776976D01*
X73132957Y-46853893D01*
X73224763Y-47007289D01*
X73234561Y-47023661D01*
X73414313Y-47248028D01*
X73475811Y-47306387D01*
X73567901Y-47393777D01*
X73622851Y-47445923D01*
X73856317Y-47613686D01*
X73860112Y-47615695D01*
X73860113Y-47615696D01*
X73881869Y-47627215D01*
X74110392Y-47748212D01*
X74134699Y-47757107D01*
X74280586Y-47810494D01*
X74380373Y-47847011D01*
X74661264Y-47908255D01*
X74689841Y-47910504D01*
X74884282Y-47925807D01*
X74884291Y-47925807D01*
X74886739Y-47926000D01*
X75042271Y-47926000D01*
X75044407Y-47925854D01*
X75044418Y-47925854D01*
X75252548Y-47911665D01*
X75252554Y-47911664D01*
X75256825Y-47911373D01*
X75261020Y-47910504D01*
X75261022Y-47910504D01*
X75467063Y-47867835D01*
X75538342Y-47853074D01*
X75809343Y-47757107D01*
X76011791Y-47652616D01*
X76061005Y-47627215D01*
X76061006Y-47627215D01*
X76064812Y-47625250D01*
X76068313Y-47622789D01*
X76068317Y-47622787D01*
X76270470Y-47480711D01*
X76300023Y-47459941D01*
X76421653Y-47346915D01*
X76507479Y-47267161D01*
X76507481Y-47267158D01*
X76510622Y-47264240D01*
X76692713Y-47041768D01*
X76842927Y-46796642D01*
X76958483Y-46533398D01*
X76979054Y-46461185D01*
X77027024Y-46292783D01*
X77037244Y-46256906D01*
X77072995Y-46005703D01*
X77077146Y-45976536D01*
X77077146Y-45976534D01*
X77077751Y-45972284D01*
X77077845Y-45954451D01*
X77079235Y-45689083D01*
X77079235Y-45689076D01*
X77079257Y-45684797D01*
X77041732Y-45399766D01*
X76965871Y-45122464D01*
X76926374Y-45029865D01*
X76854763Y-44861976D01*
X76854761Y-44861972D01*
X76853077Y-44858024D01*
X76705439Y-44611339D01*
X76525687Y-44386972D01*
X76317149Y-44189077D01*
X76083683Y-44021314D01*
X76061843Y-44009750D01*
X76038654Y-43997472D01*
X75829608Y-43886788D01*
X75559627Y-43787989D01*
X75278736Y-43726745D01*
X75247685Y-43724301D01*
X75055718Y-43709193D01*
X75055709Y-43709193D01*
X75053261Y-43709000D01*
X74897729Y-43709000D01*
X74895593Y-43709146D01*
X74895582Y-43709146D01*
X74687452Y-43723335D01*
X74687446Y-43723336D01*
X74683175Y-43723627D01*
X74678980Y-43724496D01*
X74678978Y-43724496D01*
X74542417Y-43752776D01*
X74401658Y-43781926D01*
X74130657Y-43877893D01*
X73875188Y-44009750D01*
X73871687Y-44012211D01*
X73871683Y-44012213D01*
X73861594Y-44019304D01*
X73639977Y-44175059D01*
X73429378Y-44370760D01*
X73247287Y-44593232D01*
X73097073Y-44838358D01*
X73095347Y-44842291D01*
X73095346Y-44842292D01*
X73025885Y-45000528D01*
X72981517Y-45101602D01*
X72902756Y-45378094D01*
X72862249Y-45662716D01*
X72862227Y-45667005D01*
X72862226Y-45667012D01*
X72860765Y-45945917D01*
X72860743Y-45950203D01*
X72515500Y-45950203D01*
X72515500Y-39194768D01*
X72516027Y-39183585D01*
X72517702Y-39176092D01*
X72517052Y-39155393D01*
X72515562Y-39108002D01*
X72515500Y-39104044D01*
X72515500Y-39076144D01*
X72514996Y-39072153D01*
X72514826Y-39070000D01*
X73216738Y-39070000D01*
X73235767Y-39372462D01*
X73292555Y-39670154D01*
X73386206Y-39958381D01*
X73387893Y-39961967D01*
X73387895Y-39961971D01*
X73408534Y-40005831D01*
X73515242Y-40232598D01*
X73517366Y-40235944D01*
X73517366Y-40235945D01*
X73526773Y-40250768D01*
X73677630Y-40488480D01*
X73870808Y-40721992D01*
X74091729Y-40929450D01*
X74336910Y-41107584D01*
X74602483Y-41253585D01*
X74606152Y-41255038D01*
X74606157Y-41255040D01*
X74880591Y-41363696D01*
X74884261Y-41365149D01*
X75177800Y-41440516D01*
X75478470Y-41478500D01*
X75781530Y-41478500D01*
X76082200Y-41440516D01*
X76375739Y-41365149D01*
X76379409Y-41363696D01*
X76653843Y-41255040D01*
X76653848Y-41255038D01*
X76657517Y-41253585D01*
X76923090Y-41107584D01*
X77168271Y-40929450D01*
X77389192Y-40721992D01*
X77582370Y-40488480D01*
X77733227Y-40250768D01*
X77742634Y-40235945D01*
X77742634Y-40235944D01*
X77744758Y-40232598D01*
X77851466Y-40005831D01*
X77872105Y-39961971D01*
X77872107Y-39961967D01*
X77873794Y-39958381D01*
X77967445Y-39670154D01*
X78024233Y-39372462D01*
X78043262Y-39070000D01*
X78024233Y-38767538D01*
X77967445Y-38469846D01*
X77873794Y-38181619D01*
X77744758Y-37907402D01*
X77582370Y-37651520D01*
X77389192Y-37418008D01*
X77168271Y-37210550D01*
X76923090Y-37032416D01*
X76783182Y-36955500D01*
X76660986Y-36888322D01*
X76660985Y-36888321D01*
X76657517Y-36886415D01*
X76653848Y-36884962D01*
X76653843Y-36884960D01*
X76379409Y-36776304D01*
X76379408Y-36776304D01*
X76375739Y-36774851D01*
X76082200Y-36699484D01*
X75781530Y-36661500D01*
X75478470Y-36661500D01*
X75177800Y-36699484D01*
X74884261Y-36774851D01*
X74880592Y-36776304D01*
X74880591Y-36776304D01*
X74606157Y-36884960D01*
X74606152Y-36884962D01*
X74602483Y-36886415D01*
X74599015Y-36888321D01*
X74599014Y-36888322D01*
X74476819Y-36955500D01*
X74336910Y-37032416D01*
X74091729Y-37210550D01*
X73870808Y-37418008D01*
X73677630Y-37651520D01*
X73515242Y-37907402D01*
X73386206Y-38181619D01*
X73292555Y-38469846D01*
X73235767Y-38767538D01*
X73216738Y-39070000D01*
X72514826Y-39070000D01*
X72514063Y-39060311D01*
X72514033Y-39059328D01*
X72512674Y-39016111D01*
X72510462Y-39008497D01*
X72510461Y-39008492D01*
X72507023Y-38996659D01*
X72503012Y-38977295D01*
X72501467Y-38965064D01*
X72500474Y-38957203D01*
X72497557Y-38949836D01*
X72497556Y-38949831D01*
X72484198Y-38916092D01*
X72480354Y-38904865D01*
X72470230Y-38870022D01*
X72468018Y-38862407D01*
X72457707Y-38844972D01*
X72449012Y-38827224D01*
X72441552Y-38808383D01*
X72433924Y-38797883D01*
X72415564Y-38772613D01*
X72409048Y-38762693D01*
X72390580Y-38731465D01*
X72390578Y-38731462D01*
X72386542Y-38724638D01*
X72372221Y-38710317D01*
X72359380Y-38695283D01*
X72352131Y-38685306D01*
X72347472Y-38678893D01*
X72313395Y-38650702D01*
X72304616Y-38642712D01*
X69591652Y-35929747D01*
X69584112Y-35921461D01*
X69580000Y-35914982D01*
X69554034Y-35890598D01*
X69530349Y-35868357D01*
X69527507Y-35865602D01*
X69507770Y-35845865D01*
X69504573Y-35843385D01*
X69495551Y-35835680D01*
X69464318Y-35806350D01*
X69428352Y-35745137D01*
X69431191Y-35674197D01*
X69471931Y-35616053D01*
X69537640Y-35589165D01*
X69550571Y-35588500D01*
X79005500Y-35588500D01*
X79073621Y-35608502D01*
G37*
%TD.AperFunction*%
%TD*%
M02*
