M48
; DRILL file {KiCad (6.0.8)} date Sat Oct 29 20:35:12 2022
; FORMAT={-:-/ absolute / metric / decimal}
; #@! TF.CreationDate,2022-10-29T20:35:12-05:00
; #@! TF.GenerationSoftware,Kicad,Pcbnew,(6.0.8)
; #@! TF.FileFunction,Plated,1,2,PTH
FMAT,2
METRIC
; #@! TA.AperFunction,Plated,PTH,ComponentDrill
T1C0.750
; #@! TA.AperFunction,Plated,PTH,ComponentDrill
T2C0.760
; #@! TA.AperFunction,Plated,PTH,ComponentDrill
T3C0.900
; #@! TA.AperFunction,Plated,PTH,ComponentDrill
T4C1.000
; #@! TA.AperFunction,Plated,PTH,ComponentDrill
T5C2.200
%
G90
G05
T1
X48.44Y-65.77
X49.71Y-65.77
X50.98Y-65.77
T2
X66.08Y-48.357
X66.08Y-50.898
X66.08Y-53.438
X66.08Y-55.977
X68.62Y-47.087
X68.62Y-49.627
X68.62Y-52.167
X68.62Y-54.707
T3
X58.485Y-56.95
X58.595Y-45.44
X61.025Y-56.95
X61.135Y-45.44
T4
X50.44Y-41.96
X50.44Y-49.56
X59.62Y-38.81
X62.16Y-38.81
X63.505Y-62.98
X64.7Y-38.81
X66.045Y-62.98
X67.24Y-38.81
X68.585Y-62.98
T5
X40.73Y-39.16
X40.76Y-66.21
X75.63Y-39.07
X75.64Y-66.22
T0
M30
