M48
; DRILL file {KiCad (6.0.8)} date Sun Nov  6 10:20:24 2022
; FORMAT={-:-/ absolute / metric / decimal}
; #@! TF.CreationDate,2022-11-06T10:20:24-05:00
; #@! TF.GenerationSoftware,Kicad,Pcbnew,(6.0.8)
; #@! TF.FileFunction,Plated,1,2,PTH
FMAT,2
METRIC
; #@! TA.AperFunction,Plated,PTH,ComponentDrill
T1C0.750
; #@! TA.AperFunction,Plated,PTH,ComponentDrill
T2C0.760
; #@! TA.AperFunction,Plated,PTH,ComponentDrill
T3C0.900
; #@! TA.AperFunction,Plated,PTH,ComponentDrill
T4C1.000
; #@! TA.AperFunction,Plated,PTH,ComponentDrill
T5C2.200
%
G90
G05
T1
X46.842Y-57.15
X46.842Y-58.42
X46.842Y-59.69
T2
X66.08Y-48.357
X66.08Y-50.898
X66.08Y-53.438
X66.08Y-55.977
X68.62Y-47.087
X68.62Y-49.627
X68.62Y-52.167
X68.62Y-54.707
T3
X61.468Y-44.191
X61.468Y-46.731
X61.468Y-55.621
X61.468Y-58.161
T4
X38.618Y-37.821
X39.126Y-47.244
X41.158Y-37.821
X43.698Y-37.821
X46.238Y-37.821
X46.726Y-47.244
X59.944Y-62.98
X62.484Y-62.98
X65.024Y-62.98
T5
X40.76Y-66.21
X75.63Y-39.07
X75.64Y-66.22
T0
M30
